<?xml version="1.0" encoding="UTF-8" standalone="no"?>
<svg width="103px" height="144px" viewBox="0 0 103 144" version="1.1" xmlns="http://www.w3.org/2000/svg" xmlns:xlink="http://www.w3.org/1999/xlink" xmlns:sketch="http://www.bohemiancoding.com/sketch/ns">
    <!-- Generator: Sketch 3.2.2 (9983) - http://www.bohemiancoding.com/sketch -->
    <title>avatar-icon-45</title>
    <desc>Created with Sketch.</desc>
    <defs></defs>
    <g id="Page-1" stroke="none" stroke-width="1" fill="none" fill-rule="evenodd" sketch:type="MSPage">
        <g id="item-collection-preview" sketch:type="MSArtboardGroup" transform="translate(-184.000000, -2621.000000)" fill="#2F2F2F">
            <g id="avatars" sketch:type="MSLayerGroup" transform="translate(183.000000, 80.000000)">
                <g id="avatar" transform="translate(1.000000, 2541.000000)" sketch:type="MSShapeGroup">
                    <path d="M75.6718408,59.8049831 C71.1027884,60.6770056 57.4709582,65.9652492 56.889528,66.1873461 L58.6055709,70.5451207 C62.4307693,69.0559027 73.1154313,65.0511452 76.5545789,64.3988817 C78.0728885,64.1253519 79.6217996,65.731463 80.0431599,66.32528 L83.8730663,63.6086844 C83.524679,63.124747 80.3515297,58.9376363 75.6718408,59.8049831 M89.5979171,91.2749424 L85.4290393,91.2702666 L85.7774266,95.0973466 C85.7915504,95.2282669 86.9873663,108.353024 86.9873663,116.278376 C86.8908536,119.457868 74.0452488,129.202076 59.8296344,136.92871 L51.2117566,136.933386 L42.4903042,136.68791 C28.4630073,129.073494 15.8245517,119.439165 15.7798263,116.278376 C15.7798263,108.383416 17.1992691,95.2890513 17.2133929,95.1557932 L17.6418152,91.2702666 L13.4305659,91.2749424 C9.89961354,91.14636 7.06308178,87.8406232 7.06308178,83.7961221 C7.06308178,79.7586346 9.88078179,76.4575735 13.3976104,76.3173018 L17.2369326,76.3173018 L17.2369326,52.0643223 C17.2369326,43.0051073 28.8043327,34.6589403 43.0481946,32.3678356 L43.0481946,50.8229176 L57.1720042,50.8229176 L57.1720042,32.1714552 C72.397471,34.2124087 85.7633028,43.0658917 85.7633028,52.0643223 L85.7633028,76.3173018 L89.5696695,76.3173018 C93.1006219,76.4435464 95.9371536,79.7492831 95.9371536,83.7961221 C95.9371536,87.826596 93.1147457,91.1276571 89.5979171,91.2749424 M102.999058,83.7961221 C102.999058,77.0747691 98.6724647,71.4031161 92.8252076,69.7736263 L92.8252076,52.0643223 C92.8252076,37.6817957 75.13749,27.2128501 57.1720042,25.1251394 L57.1720042,0.946971406 L43.0481946,0.946971406 L43.0481946,25.2724247 C26.036066,27.6734089 10.1750278,37.8337568 10.1750278,52.0643223 L10.1750278,69.7736263 C4.32541669,71.4031161 0.00117698413,77.0747691 0.00117698413,83.7961221 C0.00117698413,90.3935684 4.17005478,95.9787206 9.85724211,97.7227655 C9.41705004,102.25588 8.71792147,110.452424 8.71792147,116.278376 C8.71792147,118.672346 10.1797358,121.288414 12.4866247,123.941887 C13.6400691,125.265117 15.0077247,126.597698 16.5189723,127.923266 C23.7197612,134.212114 34.124301,140.176 39.8703375,143.257302 L40.6094835,143.650063 L51.0658106,143.942296 L51.1152439,143.946971 L61.6162963,143.942296 L62.4025217,143.523818 C68.4027868,140.304583 79.4099424,133.997031 86.7284298,127.453356 C88.2608631,126.088044 89.6120409,124.708706 90.7372377,123.34807 C92.7710663,120.890977 94.0492711,118.485317 94.0492711,116.278376 C94.0492711,110.457099 93.4560711,102.25588 93.091206,97.7414684 C98.8066409,96.0091128 102.999058,90.4122713 102.999058,83.7961221 M69.1748884,76.1933951 C65.126063,75.8193372 61.194936,77.2898524 58.228936,80.2191934 L59.5024328,71.641578 L57.1767122,71.2979123 L52.9725248,99.5486357 L55.3005995,99.8899635 L56.7341661,90.2696617 L60.7759296,101.278654 C60.7759296,102.480315 59.8319884,103.457541 58.673836,103.457541 C58.4572709,103.457541 58.2477677,103.415459 58.0453265,103.347661 C58.1865646,102.90113 58.2877852,102.442909 58.2877852,101.958971 L55.2252725,101.958971 C55.2252725,103.328958 53.4550883,104.479186 51.3647645,104.479186 C49.2673788,104.479186 47.4971947,103.328958 47.4971947,101.958971 L44.4393899,101.958971 C44.4393899,102.442909 44.5406105,102.905805 44.6842026,103.347661 C44.4817613,103.415459 44.2699042,103.457541 44.0533391,103.457541 C42.8951867,103.457541 41.9535994,102.480315 41.9535994,101.278654 L46.4944042,89.8956038 L47.843228,99.8782742 L50.1736566,99.5673386 L46.362582,71.3166152 L45.9624074,71.3657103 L46.0447962,70.9238544 C45.4374724,70.8139749 31.0476644,68.1558259 26.3938692,68.1558259 C21.6364993,68.1558259 19.3060707,72.8736312 19.0518422,73.4113394 L23.3290025,75.3704677 C23.6373723,74.7135285 24.8543739,72.8315497 26.3938692,72.8315497 C29.7270882,72.8315497 40.0680708,74.5896219 44.5406105,75.4031978 L45.2538629,80.7171579 C42.2384296,77.4441513 38.0719057,75.8006343 33.8018073,76.1933951 C30.1837581,76.5300472 27.0200247,78.3652689 25.3369374,81.0912159 L27.3472263,82.3115798 C28.3217692,80.7265094 29.9813168,79.5341998 31.972774,78.9286936 C31.6997136,79.5038076 31.5678914,80.1467196 31.6361565,80.8223617 C31.8338898,82.832923 33.6417375,84.2987624 35.6590883,84.0977063 C37.681147,83.9013259 39.1570851,82.1058479 38.9546438,80.1023003 C38.9193343,79.7492831 38.8228216,79.4219824 38.6933534,79.1110468 C40.5082629,79.7446074 42.1866423,80.8270375 43.5660677,82.3443098 L45.2679867,80.8083346 L46.3343343,88.7173214 L44.6936185,88.0697337 L38.8957946,101.278654 C38.8957946,104.156562 41.2073915,106.499099 44.0533391,106.499099 C44.8913518,106.499099 45.7011169,106.255962 46.4402629,105.863201 C47.694928,106.887184 49.4368645,107.520745 51.3647645,107.520745 C53.2903106,107.520745 55.0322471,106.887184 56.2892661,105.863201 C57.0284122,106.255962 57.8334693,106.499099 58.673836,106.499099 C61.5197836,106.499099 63.8337344,104.156562 63.8337344,101.278654 L58.3842979,88.0697337 L56.9789788,88.6214691 L58.0900519,81.1520003 L59.4106281,82.3443098 C60.7900535,80.8270375 62.4684328,79.7446074 64.2833424,79.1110468 C64.1538741,79.4219824 64.0573614,79.7492831 64.0220519,80.1023003 C63.8196106,82.1058479 65.2955487,83.9013259 67.3176075,84.0977063 C69.3373122,84.2987624 71.1428059,82.832923 71.3405392,80.8223617 C71.4088043,80.1467196 71.2769821,79.5038076 71.0062757,78.9286936 C72.9953789,79.5341998 74.6549265,80.7265094 75.6294694,82.3115798 L77.6397583,81.0912159 C75.956671,78.3652689 72.7929376,76.5300472 69.1748884,76.1933951 M51.0140233,112.411552 C43.8061724,112.411552 37.158566,110.945713 33.6629232,108.584472 L31.0147089,112.453633 C35.3130549,115.352582 42.7892581,117.087276 51.0140233,117.087276 C59.7448915,117.087276 67.7130741,115.090742 71.804271,111.885533 L68.8853503,108.21509 C65.6345201,110.763359 58.6196947,112.411552 51.0140233,112.411552" id="avatar-icon-45"></path>
                </g>
            </g>
        </g>
    </g>
</svg>