<?xml version="1.0" encoding="UTF-8" standalone="no"?>
<svg width="103px" height="136px" viewBox="0 0 103 136" version="1.1" xmlns="http://www.w3.org/2000/svg" xmlns:xlink="http://www.w3.org/1999/xlink" xmlns:sketch="http://www.bohemiancoding.com/sketch/ns">
    <!-- Generator: Sketch 3.2.2 (9983) - http://www.bohemiancoding.com/sketch -->
    <title>avatar-icon-21</title>
    <desc>Created with Sketch.</desc>
    <defs></defs>
    <g id="Page-1" stroke="none" stroke-width="1" fill="none" fill-rule="evenodd" sketch:type="MSPage">
        <g id="item-collection-preview" sketch:type="MSArtboardGroup" transform="translate(-184.000000, -1241.000000)" fill="#2F2F2F">
            <g id="avatars" sketch:type="MSLayerGroup" transform="translate(183.000000, 80.000000)">
                <g id="avatar" transform="translate(0.000000, 1161.000000)" sketch:type="MSShapeGroup">
                    <path d="M52.2310591,98.3423639 C48.0339337,98.3423639 44.0392496,97.4873425 42.0619162,96.1665777 L39.4137019,99.9991126 C42.2031543,101.864403 46.9934797,102.976626 52.2310591,102.976626 C57.8852909,102.976626 62.8733497,101.718424 65.5874751,99.6144689 L62.6685544,95.9765729 C61.1502449,97.1559927 57.3391703,98.3423639 52.2310591,98.3423639 L52.2310591,98.3423639 Z M90.6030958,83.503456 L86.4271561,83.503456 L86.7826053,87.2896483 C86.7920212,87.4217247 87.9854831,100.427782 87.9854831,108.285174 C87.8889704,111.434155 75.0433656,121.091957 60.8277512,128.75471 L55.6984544,128.759344 L55.6984544,116.34879 L48.6365496,116.34879 L48.6365496,128.659708 L43.4954829,128.513729 C29.4634781,120.966832 16.8250225,111.417935 16.7779431,108.289808 C16.7779431,100.460222 18.1997399,87.479653 18.2138637,87.3545279 L18.639932,83.503456 L14.4286828,83.503456 C10.8977304,83.3760137 8.0611986,80.0995903 8.0611986,76.0886363 C8.0611986,72.0939022 10.8859605,68.822113 14.4027891,68.6761337 L15.6480383,68.6761337 C16.1494336,77.6109914 23.6656542,84.7338526 32.8602543,84.7338526 C38.0389845,84.7338526 42.6810099,82.4653812 45.8447432,78.9039506 L45.8447432,85.2413043 C45.8447432,90.6703426 50.3361147,95.093746 55.8538163,95.093746 L55.8538163,90.4594837 C52.9301877,90.4594837 50.5526798,88.1191812 50.5526798,85.2413043 L50.5526798,69.6678659 L54.166021,69.6678659 C55.1452718,78.1300288 62.4566973,84.7338526 71.3099719,84.7338526 C80.5069259,84.7338526 88.0278545,77.6109914 88.5245418,68.680768 L90.5701403,68.6761337 C94.1010927,68.8035759 96.9376244,72.0799994 96.9376244,76.0886363 C96.9376244,80.0903218 94.1199244,83.362111 90.6030958,83.503456 L90.6030958,83.503456 Z M18.2374034,44.6451666 C18.2374034,34.0952684 34.1855384,24.4884427 51.6967083,24.4884427 C69.3938417,24.4884427 86.7637736,34.4729608 86.7637736,44.6451666 L86.7637736,63.5992994 C83.6777212,60.5314177 77.1454592,59.3450466 71.3099719,59.3450466 C64.6435338,59.3450466 57.063756,60.8975244 54.763929,65.0336036 L49.4133591,65.0336036 C47.1135321,60.8975244 39.5314003,59.3450466 32.8649622,59.3450466 C27.5096844,59.3450466 21.5659145,60.3460472 18.2374034,62.8786716 L18.2374034,44.6451666 Z M103.999529,76.0886363 C103.999529,69.4268842 99.6729355,63.8124754 93.8256784,62.1904836 L93.8256784,44.6451666 C93.8256784,43.5005038 93.6820863,42.3929151 93.4678752,41.3015463 L93.4678752,36.7576521 C93.4678752,22.7923027 82.6819926,11.2645752 68.8783227,9.81173395 C70.6673386,4.85075616 74.1888751,1.52103869 74.1888751,1.52103869 C74.1888751,1.52103869 65.6510322,2.30886328 51.9791845,6.00005321 C51.9791845,3.06424804 53.0219925,0.71004279 53.0219925,0.71004279 C53.0219925,0.71004279 47.6620067,3.52072288 39.9551146,9.64026625 C39.9456988,9.64490051 39.9362829,9.64953477 39.926867,9.64953477 L38.3520622,9.64953477 C23.164259,9.64953477 10.8106335,21.8098391 10.8106335,36.7576521 L10.8106335,54.2797979 L11.1754986,54.2797979 L11.1754986,62.1904836 C5.32588748,63.8124754 0.99929381,69.4268842 0.99929381,76.0886363 C0.99929381,82.6298975 5.17052557,88.1632067 10.8577129,89.8964208 C10.4198748,94.387021 9.71603829,102.510883 9.71603829,108.289808 C9.71603829,117.481867 31.5043686,130.049987 40.8755162,135.027184 L41.6099543,135.416462 L52.0662813,135.706104 L52.1157147,135.710738 L62.621475,135.706104 L63.4029925,135.28902 C72.9200862,130.235357 95.0473879,117.477233 95.0473879,108.289808 C95.0473879,102.520151 94.4565419,94.387021 94.0916768,89.9149579 C99.8071117,88.2002808 103.999529,82.6530688 103.999529,76.0886363 L103.999529,76.0886363 Z" id="avatar-icon-21"></path>
                </g>
            </g>
        </g>
    </g>
</svg>