<?xml version="1.0" encoding="UTF-8" standalone="no"?>
<svg width="95px" height="130px" viewBox="0 0 95 130" version="1.1" xmlns="http://www.w3.org/2000/svg" xmlns:xlink="http://www.w3.org/1999/xlink" xmlns:sketch="http://www.bohemiancoding.com/sketch/ns">
    <!-- Generator: Sketch 3.2.2 (9983) - http://www.bohemiancoding.com/sketch -->
    <title>avatar-icon-30</title>
    <desc>Created with Sketch.</desc>
    <defs></defs>
    <g id="Page-1" stroke="none" stroke-width="1" fill="none" fill-rule="evenodd" sketch:type="MSPage">
        <g id="item-collection-preview" sketch:type="MSArtboardGroup" transform="translate(-418.000000, -1705.000000)" fill="#2F2F2F">
            <g id="avatars" sketch:type="MSLayerGroup" transform="translate(183.000000, 80.000000)">
                <g id="avatar" transform="translate(235.000000, 1625.000000)" sketch:type="MSShapeGroup">
                    <path d="M64.8278311,55.9752368 C61.0496296,55.6192732 57.3869819,57.0840429 54.7374949,59.9808502 L56.2706482,61.3556062 C57.4777743,60.0279028 58.9490238,59.0786666 60.5420175,58.5242635 C60.4285271,58.7983964 60.3439251,59.0868496 60.3129731,59.3937148 C60.1355152,61.1489836 61.4293068,62.7180875 63.1997585,62.8919778 C64.9702101,63.0679138 66.5528866,61.7852174 66.728281,60.0258571 C66.7881214,59.4325844 66.6725674,58.8699982 66.4332057,58.3667394 C68.1788958,58.9006848 69.631574,59.9419806 70.4858479,61.3290112 L72.2480457,60.2631661 C70.7747328,57.8757551 68.0014379,56.2718731 64.8278311,55.9752368 L64.8278311,55.9752368 Z M83.0564672,71.7706102 L82.9863095,71.7644729 L80.023176,73.9350326 C79.9757163,74.098694 76.9527423,83.6012856 70.366167,91.536819 L70.366167,89.3560305 C70.366167,83.8999677 65.3086181,79.4626973 59.0934662,79.4626973 L39.8578599,79.4626973 C33.642708,79.4626973 28.5851591,83.8999677 28.5851591,89.3560305 L28.5851591,90.0004474 C22.5949247,82.4004199 19.7122663,74.0230006 19.6606797,73.869568 L16.7223078,71.7644729 L16.6500866,71.7706102 C13.4785432,71.7603814 10.8992139,68.8267503 10.8992139,65.2221074 C10.8992139,61.6154187 13.4785432,58.6817876 16.6500866,58.6715588 L16.7223078,58.6776961 L19.8175029,55.6090443 L19.8175029,37.4569463 C19.8175029,27.6454438 27.8691373,19.6628577 37.765508,19.6628577 L61.9410458,19.6628577 C71.8374165,19.6628577 79.8911143,27.6454438 79.8911143,37.4569463 L79.8911143,55.6090443 L82.9863095,58.6776961 L83.0564672,58.6715588 C86.230074,58.6817876 88.8094033,61.6154187 88.8094033,65.2221074 C88.8094033,68.8267503 86.230074,71.7603814 83.0564672,71.7706102 L83.0564672,71.7706102 Z M64.1757767,97.4449966 C60.7112215,99.9797029 56.6400082,101.76975 51.9167403,102.105256 L51.9167403,98.8790798 L47.7898134,98.8790798 L47.7898134,102.021379 C42.7467088,101.462885 38.4175625,99.2780045 34.7755495,96.3423277 L34.7755495,89.3560305 C34.7755495,87.3204915 37.1031362,85.6000008 39.8578599,85.6000008 L59.0934662,85.6000008 C61.8481899,85.6000008 64.1757767,87.3204915 64.1757767,89.3560305 L64.1757767,97.4449966 Z M86.0815046,52.9495461 L86.0815046,37.4569463 C86.0815046,34.4905829 85.5078618,31.661286 84.5091455,29.0365659 C84.5772398,28.5210324 84.5689859,28.1855265 84.5689859,28.1855265 C82.5055225,3.63631244 54.9954278,-1.13850969 41.238317,0.22601746 C38.4320067,0.504241886 34.7920572,1.22639793 30.8446516,2.58478778 C23.820622,3.7406466 15.9113666,6.99341746 7.05910845,13.3455266 C7.05910845,13.3455266 9.47129722,13.138904 13.1917218,13.3127943 C3.98248445,22.3735001 -2.59996394,37.1909965 1.00284324,60.9198576 C4.93580457,53.1070703 9.17415849,47.0986501 13.6271126,42.5324963 L13.6271126,52.9495461 C8.5014694,54.3795378 4.70882359,59.3405248 4.70882359,65.2221074 C4.70882359,71.4269212 8.92860634,76.6047596 14.4855134,77.6951539 C15.32947,79.8391186 16.9389714,83.5296837 19.3944929,87.6191736 C21.8892202,111.560795 34.5712666,129.788586 49.8532769,129.788586 C65.0073524,129.788586 77.6047968,111.861522 80.2480935,88.2144921 C82.7923439,83.8958762 84.4286704,79.9536816 85.2685,77.6869708 C90.8006455,76.5761189 94.9997937,71.4085093 94.9997937,65.2221074 C94.9997937,59.3405248 91.2071478,54.3795378 86.0815046,52.9495461 L86.0815046,52.9495461 Z M48.1488561,69.2072631 L48.1488561,56.8303677 C48.1488561,51.7527719 41.0587957,48.342477 34.4371415,48.342477 C27.0953385,48.342477 21.3424024,52.069866 21.3424024,56.8303677 L25.4693293,56.8303677 C25.4693293,54.7539134 29.3053079,52.4340126 34.4371415,52.4340126 C39.9053196,52.4340126 44.0219292,55.0996481 44.0219292,56.8303677 L44.0219292,69.2072631 C44.0219292,74.0045887 47.9548905,77.905868 52.7916488,77.905868 L52.7916488,73.8143323 C50.2329542,73.8143323 48.1488561,71.7481068 48.1488561,69.2072631 L48.1488561,69.2072631 Z M54.6920987,49.0421296 L55.4431994,53.0661549 L76.0035492,49.2896675 L75.2524485,45.2676879 L54.6920987,49.0421296 Z M49.6201055,89.4071747 C45.9368233,89.4071747 42.4371893,88.6522864 40.70388,87.4821072 L38.3824836,90.867853 C40.8276878,92.5146961 45.0268359,93.4987104 49.6201055,93.4987104 C54.5724178,93.4987104 58.9469603,92.3878585 61.3240702,90.5303013 L58.7653755,87.3164 C57.4385685,88.3576958 54.0936943,89.4071747 49.6201055,89.4071747 L49.6201055,89.4071747 Z M33.3249347,55.9752368 C30.1513279,56.2718731 27.378033,57.8757551 25.9067836,60.2631661 L27.6669179,61.3290112 C28.5211918,59.9419806 29.97387,58.9006848 31.7195601,58.3667394 C31.4822618,58.8699982 31.3646444,59.4325844 31.4244848,60.0258571 C31.5998792,61.7852174 33.1825557,63.0679138 34.9530073,62.8919778 C36.7255224,62.7180875 38.0172506,61.1489836 37.8418562,59.3937148 C37.8109042,59.0868496 37.7242387,58.7983964 37.6128117,58.5242635 C39.203742,59.0786666 40.672928,60.0279028 41.8841811,61.3556062 L43.4152709,59.9808502 C40.7678473,57.0840429 37.088692,55.6192732 33.3249347,55.9752368 L33.3249347,55.9752368 Z" id="avatar-icon-30"></path>
                </g>
            </g>
        </g>
    </g>
</svg>