<?xml version="1.0" encoding="UTF-8" standalone="no"?>
<svg width="103px" height="141px" viewBox="0 0 103 141" version="1.1" xmlns="http://www.w3.org/2000/svg" xmlns:xlink="http://www.w3.org/1999/xlink" xmlns:sketch="http://www.bohemiancoding.com/sketch/ns">
    <!-- Generator: Sketch 3.2.2 (9983) - http://www.bohemiancoding.com/sketch -->
    <title>avatar-icon-23</title>
    <desc>Created with Sketch.</desc>
    <defs></defs>
    <g id="Page-1" stroke="none" stroke-width="1" fill="none" fill-rule="evenodd" sketch:type="MSPage">
        <g id="item-collection-preview" sketch:type="MSArtboardGroup" transform="translate(-644.000000, -1239.000000)" fill="#2F2F2F">
            <g id="avatars" sketch:type="MSLayerGroup" transform="translate(183.000000, 80.000000)">
                <g id="avatar" transform="translate(460.000000, 1159.000000)" sketch:type="MSShapeGroup">
                    <path d="M53.0815435,100.296044 C55.9402153,100.296044 58.2640539,98.2016514 58.2640539,95.6273426 L55.9285377,95.6273426 C55.9285377,96.9179915 54.6510104,97.9663526 53.0815435,97.9663526 C51.5120767,97.9663526 50.2345493,96.9179915 50.2345493,95.6273426 L47.8990331,95.6273426 C47.8990331,98.2016514 50.2228717,100.296044 53.0815435,100.296044 L53.0815435,100.296044 Z M96.8094128,87.867141 L96.2769151,92.7012504 C95.9032325,95.1614043 93.6074201,96.9622557 91.0173327,96.5662082 C90.7674325,96.5289331 90.5362164,96.4473939 90.3050003,96.3728438 L86.801726,95.2476029 L85.8464999,98.793393 C80.3603724,119.18751 64.1472191,132.888424 52.4462831,132.888424 C42.9594164,132.888424 30.5041087,123.877179 23.2079562,109.596171 C21.5590818,106.327614 20.1764562,102.795803 19.1628422,99.0286918 L18.2076161,95.480572 L18.1585702,95.4968799 L18.0908402,95.2476029 L14.587566,96.3728438 C14.3540144,96.4473939 14.1227983,96.5289331 13.8752336,96.5662082 C11.7522494,96.899354 9.77406715,95.669277 8.97532062,93.9057008 C8.87489343,93.6377863 8.80015691,93.360553 8.7557821,93.074001 L8.18591616,87.9626584 C8.01075244,86.8164503 8.26065267,85.8263315 8.92393927,85.0155989 C9.62459412,84.1629319 10.7362998,83.5851685 12.0558665,83.3871448 C12.5323118,83.317254 12.9783953,83.3545291 13.4151369,83.4197604 L17.2944292,83.9975239 L17.3761723,81.6841405 C19.1208029,89.2696152 25.931168,94.9517321 34.0564288,94.9517321 C42.8449761,94.9517321 50.0990894,88.3144418 51.0683286,79.8064093 L55.1951857,79.8064093 C56.1644249,88.3144418 63.4185381,94.9517321 72.2047499,94.9517321 C79.5009025,94.9517321 85.7297241,90.3692294 88.1936937,83.943941 L91.710981,83.4197604 C92.1523936,83.3568588 92.6078192,83.3195837 93.0702514,83.3871448 C94.3921536,83.5851685 95.5038593,84.1629319 96.2021786,85.0155989 C96.3423096,85.1856664 96.4544144,85.369712 96.5571771,85.558417 C96.8514521,86.2130602 96.9472083,86.9632208 96.8094128,87.867141 L96.8094128,87.867141 Z M28.8365501,83.0074051 C30.0533541,81.4069072 31.8610436,80.3399086 33.9186333,79.9019267 C33.3370898,80.6194716 33.0264662,81.5583371 33.1245578,82.5507856 C33.3254122,84.5519904 35.1144176,86.0127068 37.120626,85.8123534 C39.1221634,85.6143296 40.586532,83.8297861 40.3856776,81.8285813 C40.3366318,81.3370165 40.1918298,80.8780673 39.9699557,80.4680416 C41.6468563,81.1553005 43.2186587,82.2619039 44.5849357,83.7668844 L45.3089457,83.1122412 C43.3190859,87.3383011 39.0427558,90.2923496 34.0564288,90.2923496 C27.1900112,90.2923496 21.601121,84.7173985 21.601121,77.8681062 C21.601121,76.2885755 26.3422189,74.0870173 34.0587643,74.0870173 C41.7753097,74.0870173 46.5140721,76.2885755 46.5140721,77.8681062 C46.5140721,79.2239865 46.2431522,80.5053167 45.8367724,81.7260749 C42.9056996,78.7463998 39.2225906,77.2251114 35.4180347,77.3392663 C32.0035101,77.4883665 28.9252998,79.0399409 26.9751438,81.5979419 L28.8365501,83.0074051 Z M69.0471321,85.8123534 C71.051005,86.0127068 72.8423459,84.5519904 73.0408647,82.5507856 C73.1389564,81.5583371 72.8283328,80.6194716 72.2467892,79.9019267 C74.304379,80.3399086 76.1120685,81.4069072 77.3312079,83.0074051 L79.1926143,81.5979419 C77.2401228,79.0376112 74.1619125,77.4883665 70.7473878,77.3392663 C66.9848713,77.220452 63.3251175,78.7207732 60.4010512,81.6515248 C60.0133555,80.4494041 59.7471067,79.1960302 59.7471067,77.8681062 C59.7471067,76.2885755 64.4882045,74.0870173 72.2047499,74.0870173 C79.9212954,74.0870173 84.6600577,76.2885755 84.6600577,77.8681062 C84.6600577,84.7173985 79.073503,90.2923496 72.2047499,90.2923496 C67.2931594,90.2923496 63.0775527,87.4198403 61.0503247,83.2916274 L61.5781514,83.7668844 C62.9444283,82.2642336 64.5185662,81.1576302 66.1931313,80.4680416 C65.9735928,80.8780673 65.8264553,81.3370165 65.7774094,81.8285813 C65.5788906,83.8297861 67.0409237,85.6143296 69.0471321,85.8123534 L69.0471321,85.8123534 Z M52.5630589,39.3536505 C67.2884884,39.3536505 76.9131505,44.0945722 82.3198705,54.5851718 C84.8188728,59.5311064 86.3883397,65.7537117 87.1357048,73.3228786 C83.9313766,70.5225897 77.7492653,69.4276348 72.2047499,69.4276348 C65.5882326,69.4276348 58.0678706,70.9861982 55.7860713,75.1470268 L50.477443,75.1470268 C48.1956437,70.9861982 40.6729461,69.4276348 34.0587643,69.4276348 C27.5356676,69.4276348 20.1274103,70.9396044 17.7335063,74.9699703 C19.7981026,50.0748896 30.4130236,39.3536505 52.5630589,39.3536505 L52.5630589,39.3536505 Z M102.793005,82.36674 C102.442678,81.6585139 102.02462,80.978244 101.510807,80.3538868 C101.501465,80.3422383 101.489787,80.3352492 101.482781,80.3236008 C101.716332,78.4272321 101.84245,76.4935884 101.84245,74.5296586 C101.84245,52.6864735 87.5490912,34.1980437 67.7929599,27.7937225 C69.5632812,25.0050821 70.6002503,21.7108986 70.6002503,18.1674382 C70.6002503,8.19403 62.4983447,0.112331056 52.5,0.112331056 C42.5039908,0.112331056 34.3997497,8.19403 34.3997497,18.1674382 C34.3997497,21.7248768 35.4483964,25.035368 37.2303953,27.8309975 C17.5279808,34.2656048 3.28366771,52.7260782 3.28366771,74.5296586 C3.28366771,76.4190382 3.40978559,78.2781319 3.62932411,80.1092692 C3.55225207,80.1977974 3.45883143,80.2653585 3.38643042,80.3538868 C1.46897165,82.6905671 0.672560633,85.679561 1.12097974,88.6359391 L1.6931812,93.7472817 C1.90804869,95.1683934 2.3868295,96.5009768 3.07113574,97.6984381 C5.05165345,101.356053 8.92393927,103.823196 13.2563218,103.839504 C14.0877655,106.353241 15.0780244,108.801747 16.2084142,111.161724 C24.1188075,127.823676 38.930651,140.110467 52.5630589,140.110467 C68.1246032,140.110467 85.2275881,124.098499 91.8370989,103.841834 C97.5334228,103.841834 102.468368,99.6017959 103.337181,93.8427991 L103.872014,89.0086897 C104.227012,86.6510422 103.841652,84.3609557 102.793005,82.36674 L102.793005,82.36674 Z M52.7755909,111.497199 C46.2127905,111.497199 40.1264353,108.883286 36.8940809,104.671204 L33.1852813,107.506438 C37.3471711,112.92297 44.6690143,116.156582 52.7755909,116.156582 C61.3656194,116.156582 69.1452238,112.457032 73.078233,106.502341 L69.177921,103.939681 C66.1440855,108.529173 59.7074029,111.497199 52.7755909,111.497199 L52.7755909,111.497199 Z" id="avatar-icon-23"></path>
                </g>
            </g>
        </g>
    </g>
</svg>