<?xml version="1.0" encoding="UTF-8" standalone="no"?>
<svg width="103px" height="126px" viewBox="0 0 103 126" version="1.1" xmlns="http://www.w3.org/2000/svg" xmlns:xlink="http://www.w3.org/1999/xlink" xmlns:sketch="http://www.bohemiancoding.com/sketch/ns">
    <!-- Generator: Sketch 3.2.2 (9983) - http://www.bohemiancoding.com/sketch -->
    <title>avatar-icon-32</title>
    <desc>Created with Sketch.</desc>
    <defs></defs>
    <g id="Page-1" stroke="none" stroke-width="1" fill="none" fill-rule="evenodd" sketch:type="MSPage">
        <g id="item-collection-preview" sketch:type="MSArtboardGroup" transform="translate(-874.000000, -1707.000000)" fill="#2F2F2F">
            <g id="avatars" sketch:type="MSLayerGroup" transform="translate(183.000000, 80.000000)">
                <g id="avatar" transform="translate(690.000000, 1627.000000)" sketch:type="MSShapeGroup">
                    <path d="M30.2337362,66.7971716 C29.6515352,67.523069 29.3405604,68.4674403 29.438763,69.4681921 C29.6398445,71.488489 31.4308723,72.9614264 33.4393487,72.7593967 C35.4454869,72.5597162 36.9091728,70.7578933 36.7104295,68.7422947 C36.6613283,68.244268 36.5140244,67.781479 36.2918995,67.3680229 C37.9706959,68.0633809 39.5442751,69.1792426 40.9120967,70.6968145 L42.6446706,69.1181639 C39.6354633,65.7823248 35.7494472,64.0932625 31.7348326,64.21542 C28.3164479,64.3634185 25.2347577,65.9279741 23.2823971,68.5073764 L25.1459078,69.9286318 C26.3640873,68.3147435 28.1738204,67.2388179 30.2337362,66.7971716 M72.9869268,64.21542 C68.9816648,64.086215 65.0816198,65.7823248 62.0747506,69.1181639 L63.8049864,70.6968145 C65.1728079,69.1792426 66.7487254,68.0633809 68.4251835,67.3703721 C68.2053968,67.781479 68.058093,68.244268 68.0089917,68.7422947 C67.8102484,70.7578933 69.2739343,72.5597162 71.2824107,72.7593967 C73.2908871,72.9614264 75.0819149,71.488489 75.2806582,69.4681921 C75.381199,68.4674403 75.067886,67.523069 74.485685,66.7971716 C76.5456009,67.2388179 78.3553339,68.3147435 79.5758516,69.9286318 L81.4393623,68.5073764 C79.4846635,65.9256249 76.4053115,64.3634185 72.9869268,64.21542 M96.9156198,66.2709547 L96.380182,71.1455084 C96.0060769,73.6285942 93.705331,75.4351156 91.1146537,75.0428021 C90.8644709,75.0052152 90.6329934,74.9229938 90.4015159,74.84782 L90.0928793,74.7491543 C90.4459409,73.4383105 90.6633895,72.0757846 90.6891092,70.663926 C90.7428868,67.5371641 89.924532,64.5959876 88.4725369,62.0353787 L91.6945165,61.5514471 C92.136428,61.48567 92.5900304,61.4457339 93.0553235,61.5162094 C94.3787201,61.7158899 95.4916825,62.3008363 96.1907913,63.1582879 C96.8548277,63.9758034 97.1073486,64.9765552 96.9156198,66.2709547 M73.1529359,53.0262639 C64.9553594,52.8829637 57.9572571,58.163926 55.7500375,65.45109 L49.4112953,65.3406784 C47.4589347,57.9783405 40.6502231,52.4554125 32.4549848,52.3097632 C26.1302716,52.1993516 20.5186962,55.3237643 17.2663206,60.0996523 L17.3341271,58.189767 C17.5960006,50.7146683 18.5172343,44.3742248 20.1235477,39.0509773 C27.5004313,44.2309246 40.9191111,49.4578557 55.2637009,48.9527814 C75.03749,48.2597726 75.03749,45.9904623 75.03749,45.9904623 L58.6563659,33.5045574 C58.6563659,33.5045574 69.388504,28.9635877 78.9913125,35.7738677 C81.7246174,37.7142924 84.1212277,40.0117929 85.933299,43.1315072 C86.8919431,47.5456211 87.4718059,52.5376339 87.6705492,58.189767 L87.7640755,60.8748825 C84.6309458,56.2422947 79.2742294,53.1343263 73.1529359,53.0262639 M72.6291888,82.9736422 C65.3738894,82.8467863 59.5635706,77.0795433 59.6851547,70.1165664 C59.8067389,63.1559387 65.8111246,57.5954238 73.0711004,57.7246288 C80.3263998,57.8514847 86.1367186,63.6187277 86.0151345,70.5793554 C85.8912122,77.5423323 79.8891646,83.100498 72.6291888,82.9736422 M18.9848655,69.4000658 C19.1064497,62.4417873 25.1131736,56.8789231 32.3731493,57.0081282 C39.6284488,57.1373332 45.4317531,62.902227 45.3125071,69.8652039 C45.190923,76.8281808 39.1888754,82.3863466 31.9335759,82.2571415 C24.6736002,82.1302857 18.8656196,76.3630427 18.9848655,69.4000658 M81.8602305,101.898656 C79.1526453,107.776311 62.6499371,118.808072 52.5023382,118.808072 C42.3079761,118.808072 24.9611934,106.71448 22.5458778,100.745208 C20.7595263,96.321697 19.5904481,88.2217158 19.2747969,81.5946721 C22.4546897,84.8200996 26.9018633,86.8662375 31.8494023,86.9555065 C41.6486159,87.1269968 49.7573425,79.5508833 49.9818055,70.0507893 L55.0158563,70.1377091 C54.9083011,79.6425014 62.7481397,87.5005168 72.5473533,87.6720071 C77.6936357,87.7612761 82.3582578,85.7033922 85.6761018,82.3675531 C85.2365284,89.8426518 83.7237411,97.8392689 81.8602305,101.898656 M14.3108908,69.3178444 C14.2781566,71.1877936 14.5610736,72.9896166 15.0988495,74.6857264 L14.5984841,74.84782 C14.3646684,74.9229938 14.1331909,75.0075644 13.8853463,75.0428021 C11.3461084,75.4351156 8.99626122,73.61215 8.6431996,71.2864593 L8.07268942,66.1300038 C7.89732769,64.9765552 8.14751043,63.9758034 8.81154686,63.1582879 C9.51299379,62.3008363 10.6259563,61.7158899 11.9470147,61.5162094 C12.4169841,61.4457339 12.8682483,61.48567 13.3101599,61.5514471 L16.1580344,61.9789983 C15.0287048,64.2013249 14.3553158,66.6820616 14.3108908,69.3178444 M101.617652,58.6948412 C101.234195,58.2250047 100.801636,57.7998027 100.343357,57.4004416 C100.677714,55.1217346 100.874119,52.7983932 100.874119,50.4233697 C100.874119,23.045997 78.7855547,0.855619245 51.5366795,0.855619245 C24.2901425,0.855619245 2.2015786,23.045997 2.2015786,50.4233697 C2.2015786,53.43972 2.49151,56.3855948 3.02227151,59.2492483 C1.39725278,61.5185585 0.702820316,64.2882447 1.11667401,67.0461849 L1.68952234,72.2002913 C2.49618631,77.5634749 6.96440327,81.6768934 12.2720184,82.1067938 C12.6344326,89.2905939 13.9321095,98.1611069 16.0481411,103.397435 C19.6301967,112.263249 39.8084868,125.855619 52.5023382,125.855619 C65.0862961,125.855619 84.2357974,113.529459 88.2246923,104.856277 C90.7990025,99.2605243 92.3281569,89.8755403 92.7279816,82.109143 C98.0379349,81.6815918 102.50849,77.5587765 103.336197,72.0616895 L103.869297,67.1871359 C104.33459,64.0674215 103.541955,61.0510712 101.617652,58.6948412 M52.9606168,90.103411 C55.8225203,90.103411 58.148986,87.991496 58.148986,85.3956493 L55.8108295,85.3956493 C55.8108295,86.6970964 54.5318579,87.7542285 52.9606168,87.7542285 C51.3893757,87.7542285 50.1104041,86.6970964 50.1104041,85.3956493 L47.7722477,85.3956493 C47.7722477,87.991496 50.1010515,90.103411 52.9606168,90.103411 M52.694067,99.8877561 C48.1790869,99.8877561 44.0124921,98.0953298 41.8122869,95.2128829 L38.0992945,98.0694888 C41.2113807,102.150019 46.6662997,104.586121 52.694067,104.586121 C59.0795722,104.586121 64.8782002,101.795292 67.8242773,97.3060045 L63.9195561,94.7195546 C61.8596402,97.8604116 57.4522153,99.8877561 52.694067,99.8877561" id="avatar-icon-32"></path>
                </g>
            </g>
        </g>
    </g>
</svg>