<?xml version="1.0" encoding="UTF-8" standalone="no"?>
<svg width="103px" height="121px" viewBox="0 0 103 121" version="1.1" xmlns="http://www.w3.org/2000/svg" xmlns:xlink="http://www.w3.org/1999/xlink" xmlns:sketch="http://www.bohemiancoding.com/sketch/ns">
    <!-- Generator: Sketch 3.2.2 (9983) - http://www.bohemiancoding.com/sketch -->
    <title>avatar-icon-41</title>
    <desc>Created with Sketch.</desc>
    <defs></defs>
    <g id="Page-1" stroke="none" stroke-width="1" fill="none" fill-rule="evenodd" sketch:type="MSPage">
        <g id="item-collection-preview" sketch:type="MSArtboardGroup" transform="translate(-184.000000, -2402.000000)" fill="#2F2F2F">
            <g id="avatars" sketch:type="MSLayerGroup" transform="translate(183.000000, 80.000000)">
                <g id="avatar" transform="translate(1.000000, 2322.000000)" sketch:type="MSShapeGroup">
                    <path d="M89.3518338,82.1841054 L85.1557104,82.1653081 L85.5290644,86.0422416 C85.538457,86.1432768 86.4260533,96.3501854 79.1937869,104.287326 C73.3797961,110.668993 63.9003612,113.878624 51.0114292,113.831631 C38.1905933,113.782288 28.8121284,110.535063 23.1390259,104.181591 C16.0805217,96.277346 17.1183989,85.9294581 17.1301396,85.8378215 L17.5880266,81.9162445 L13.643154,81.9021466 L13.3684218,81.9044962 C9.84856227,81.7611672 7.028448,78.4270044 7.04488497,74.3620984 C7.0589738,70.306591 9.88613249,67.0006241 13.3942513,66.8690433 L17.221717,66.8854909 L17.3109463,42.5125024 C17.3132944,41.8663469 17.3532127,41.2272402 17.4166125,40.5975323 C17.4353976,40.3978114 17.4659234,40.2004403 17.4917529,40.0030691 C17.5457601,39.5707323 17.611508,39.1407451 17.6913447,38.7178069 C17.7336112,38.4945896 17.7829221,38.2784211 17.832233,38.0599031 C17.9238104,37.6534125 18.0294766,37.2492715 18.1468835,36.8521796 C18.205587,36.6501091 18.2619423,36.4480386 18.3253421,36.2483178 C18.4826673,35.7689878 18.6611259,35.2990565 18.8513251,34.8338245 C18.8912434,34.7327893 18.9241174,34.6294044 18.9663839,34.5307188 C19.2035458,33.9808991 19.4688855,33.4475271 19.748314,32.9235536 C19.8469358,32.7426301 19.9572983,32.5687555 20.0606164,32.3901816 C20.25786,32.044782 20.462148,31.7087811 20.6805249,31.3774795 C20.8143688,31.1730594 20.952909,30.9756883 21.0937973,30.7783171 C21.3051298,30.4799107 21.5235066,30.1885533 21.7512761,29.9065945 C21.9039051,29.7139226 22.0541859,29.5212508 22.2138593,29.3356279 C22.4674583,29.0395712 22.7304498,28.7576124 22.9981376,28.4780032 C23.1460703,28.3229259 23.2869586,28.1607996 23.4395876,28.0127712 C23.8411193,27.6156792 24.2614361,27.2397342 24.6934935,26.8802367 C24.888389,26.7181104 25.0926771,26.570082 25.2922688,26.4173544 C25.5623048,26.2082349 25.8346888,25.9991155 26.1141173,25.8064436 C26.3489311,25.6443173 26.5884413,25.48924 26.8302995,25.3365123 C27.0909429,25.167337 27.3609788,25.0075604 27.6310147,24.852483 C27.8846137,24.7068043 28.1382126,24.5634753 28.398856,24.4295448 C28.6806326,24.2815165 28.9694536,24.1499357 29.2606228,24.0183549 C29.518918,23.8985224 29.7748651,23.7763403 30.0378566,23.6659064 C30.5333138,23.4638359 31.0381636,23.2829124 31.5500578,23.1184364 C31.571191,23.1113874 31.5899761,23.1019888 31.6111094,23.0972895 C33.5694569,22.4793298 35.6499075,22.1409792 37.8101949,22.1503779 L65.3209849,22.2514131 C76.5826569,22.2937069 85.7122192,31.497312 85.6699527,42.7639157 L85.5807234,67.1369042 L89.3776633,67.1486525 C92.899871,67.2896319 95.7176371,70.6237946 95.7035483,74.6910503 C95.6871113,78.744208 92.8599526,82.050175 89.3518338,82.1841054 L89.3518338,82.1841054 Z M92.6486202,60.5860614 L92.6721016,54.3735692 L94.8253445,54.4675555 C94.8253445,54.4675555 97.6360662,24.4013489 89.8848612,14.1145521 C82.485877,4.29768661 63.3344598,-2.62910121 49.2315403,1.23843364 C40.5903908,3.60688755 34.5486306,10.0848909 32.4400023,14.450553 C23.8974746,13.0830528 13.133608,16.1235085 9.23100186,23.217122 C6.87112272,27.514644 4.31399995,30.4423162 7.36188366,53.3632169 L10.2266126,53.3726155 L10.200783,60.2806061 C4.36096272,61.8995195 0.0239510122,67.5809893 0.000469627689,74.3362522 C-0.0253598952,81.0680185 4.24120766,86.7635862 10.0364133,88.4506397 C10.1796498,93.0865123 11.4171188,101.575822 17.8064035,108.791617 C24.8625595,116.756953 36.0256097,120.824209 50.9855997,120.880601 C65.9479379,120.934643 77.1884766,116.951975 84.3996098,109.040681 C90.9297828,101.871878 92.3316215,93.3849187 92.5687835,88.7678433 C98.3968631,87.134832 102.722134,81.4604111 102.747964,74.7145469 C102.771445,67.959284 98.4766998,62.2472687 92.6486202,60.5860614 L92.6486202,60.5860614 Z M69.5335453,61.0841886 C65.2388001,60.6682994 61.0567655,62.3248073 58.0347113,65.6401729 L59.7676375,67.2261911 C61.1530392,65.7083129 62.8319582,64.6251212 64.6423729,63.9977629 C64.5155734,64.3102672 64.4146035,64.6345198 64.3793814,64.989318 C64.1703971,67.0053234 65.6356355,68.8122094 67.6503383,69.0189792 C69.6650411,69.2280986 71.4707595,67.7619128 71.6773957,65.7435578 C71.750188,65.0621573 71.6163441,64.4136521 71.3486563,63.8356366 C73.3351814,64.4559459 74.9835746,65.6589701 75.9486595,67.254387 L77.9563179,66.0372649 C76.2914878,63.2881666 73.1426341,61.4342875 69.5335453,61.0841886 L69.5335453,61.0841886 Z M68.8760665,51.3331135 C63.8158282,51.3119666 59.6337936,53.567637 58.809597,56.5399527 L78.9026177,56.6151417 C78.0995544,53.635777 73.9363049,51.3519108 68.8760665,51.3331135 L68.8760665,51.3331135 Z M50.27881,94.2754385 C43.086462,94.2495923 36.4600153,92.752861 32.9800741,90.3656099 L30.3266777,94.244893 C34.6049859,97.1772645 42.0556292,98.946556 50.2623731,98.9747518 C58.9692704,99.007647 66.9224154,97.0339354 71.0152207,93.8243044 L68.119966,90.1235952 C64.8677942,92.6753223 57.8632972,94.3036344 50.27881,94.2754385 L50.27881,94.2754385 Z M44.5751818,78.0957028 C44.5634411,81.3405786 47.4727846,83.9909914 51.0677846,84.0027396 C54.6557401,84.0168376 57.5909132,81.3875718 57.6026539,78.1426959 L54.6674808,78.1309477 C54.6604364,79.7592597 53.0496134,81.0727178 51.0771771,81.0656688 C49.1047408,81.0586198 47.5056585,79.7310638 47.512703,78.1051014 L44.5751818,78.0957028 Z M32.0689964,65.5978791 C32.2615437,67.6185838 34.0555215,69.0988675 36.0725724,68.903846 C38.0872752,68.7111741 39.5666024,66.9160364 39.371707,64.8976814 C39.338833,64.5428832 39.2425593,64.2162809 39.1157599,63.9037766 C40.9238265,64.5452329 42.5933529,65.6401729 43.9670139,67.1674497 L45.1622164,66.0889573 L45.1316906,74.6511062 L47.479829,74.6605048 L47.5620139,52.3599135 L46.3644633,52.3552142 L46.3644633,52.3129203 L27.0181506,52.2588782 L26.9970173,52.2588782 C22.6177391,52.2588782 20.5396366,57.078024 20.3189116,57.6301933 L24.6700121,59.3924358 C25.0151885,58.5418601 26.0507176,56.9581915 26.9993655,56.9581915 L27.0040618,56.9581915 L45.1950903,57.009884 L45.1669126,65.0504091 C42.2129545,62.087492 38.286867,60.5931104 34.2480689,60.9526079 C30.6342838,61.2792101 27.4736895,63.1095927 25.787726,65.844593 L27.7859919,67.0781628 C28.7651656,65.4897949 30.4229513,64.2985189 32.4094765,63.6923075 C32.1394405,64.2703231 32.0032485,64.914129 32.0689964,65.5978791 L32.0689964,65.5978791 Z" id="avatar-icon-41"></path>
                </g>
            </g>
        </g>
    </g>
</svg>