<?xml version="1.0" encoding="UTF-8" standalone="no"?>
<svg width="155px" height="157px" viewBox="0 0 155 157" version="1.1" xmlns="http://www.w3.org/2000/svg" xmlns:xlink="http://www.w3.org/1999/xlink" xmlns:sketch="http://www.bohemiancoding.com/sketch/ns">
    <!-- Generator: Sketch 3.2.2 (9983) - http://www.bohemiancoding.com/sketch -->
    <title>avatar-icon-35</title>
    <desc>Created with Sketch.</desc>
    <defs></defs>
    <g id="Page-1" stroke="none" stroke-width="1" fill="none" fill-rule="evenodd" sketch:type="MSPage">
        <g id="item-collection-preview" sketch:type="MSArtboardGroup" transform="translate(-617.000000, -1923.000000)" fill="#2F2F2F">
            <g id="avatars" sketch:type="MSLayerGroup" transform="translate(183.000000, 80.000000)">
                <g id="avatar" transform="translate(434.000000, 1843.000000)" sketch:type="MSShapeGroup">
                    <path d="M102.443079,97.677073 C101.48334,97.0718217 100.478797,96.6706668 99.4695382,96.3821168 C97.4463042,95.828476 95.387699,95.7815573 93.4116267,95.938735 C91.3931089,96.1006045 89.4193947,96.5838672 87.5517941,97.5363169 C86.6250681,98.0148877 85.7054163,98.6037174 84.9343236,99.4670216 C84.1750214,100.295137 83.4841035,101.538482 83.6208722,102.892087 L85.9789537,102.892087 C86.1911811,101.967789 87.490484,101.184246 88.9265556,100.722097 C89.3274295,100.597762 89.7636746,100.543806 90.1881293,100.459352 C90.2470813,102.350176 91.7963409,103.867996 93.7134611,103.867996 C95.5834198,103.867996 97.0973081,102.418208 97.2270026,100.590725 C97.554776,100.665794 97.8990559,100.722097 98.2173969,100.811242 C99.6699751,101.24524 100.95513,101.730849 101.782816,102.481548 L104.907274,100.250564 C104.831816,99.9479383 104.202208,99.1385906 103.820199,98.7726247 C103.391028,98.3362808 102.917053,97.9796986 102.443079,97.677073 L102.443079,97.677073 Z M100.141591,88.044663 C94.9184408,87.3995308 88.0021877,90.3413336 83.7906541,93.3347469 L85.1606995,95.2466841 C89.1364249,92.4198322 95.4537253,89.8486872 99.8562635,90.3718307 C103.478277,90.8105206 105.543956,92.2063521 106.560289,94.8971398 L108.767454,94.0737165 C107.442212,90.5595055 104.619588,88.586574 100.141591,88.044663 L100.141591,88.044663 Z M77.829424,127.076333 L73.8819955,125.143283 C67.6448699,126.708021 61.3912377,127.367229 61.3912377,127.367229 C61.3912377,127.367229 69.67282,138.081115 77.829424,138.081115 C85.986028,138.081115 94.2652522,127.367229 94.2652522,127.367229 C94.2652522,127.367229 88.0139781,126.708021 81.7768525,125.143283 L77.829424,127.076333 Z M121.590701,103.804656 L121.053058,108.672471 C120.673407,111.152125 118.357771,112.963187 115.742659,112.564378 C115.487986,112.529189 115.254536,112.444735 115.023444,112.369665 L111.486322,111.236579 L110.519508,114.807092 C110.198809,115.998827 109.833306,117.160065 109.441865,118.304881 C109.302738,118.710728 109.147105,119.104845 108.998546,119.506 C108.73444,120.223856 108.465619,120.937021 108.175575,121.631417 C107.97278,122.119372 107.760553,122.597943 107.545967,123.076514 C107.291295,123.64423 107.027189,124.207254 106.758368,124.760895 C106.496621,125.293422 106.230158,125.821258 105.95662,126.337364 C105.720812,126.783091 105.475572,127.217089 105.230331,127.651087 C104.902558,128.230533 104.574785,128.812325 104.230505,129.370658 C104.074871,129.628711 103.909806,129.870342 103.749456,130.121357 C102.245,132.481368 100.608492,134.670125 98.8729435,136.647749 C91.9708389,144.506632 83.6279465,149.139854 76.7965843,149.139854 C69.8402438,149.139854 61.3181371,144.328341 54.342932,136.202021 C52.0909641,133.57692 50.0111362,130.597582 48.1859811,127.327348 C47.9855442,126.96842 47.7803911,126.614184 47.5870284,126.245872 C47.3040586,125.713345 47.0352373,125.16205 46.7687741,124.613101 C46.5117432,124.08292 46.2594285,123.550392 46.0189042,123.008481 C45.8019607,122.527565 45.5897334,122.041956 45.3869384,121.54931 C45.1039686,120.866643 44.8375054,120.167554 44.5804745,119.466119 C44.4319153,119.06731 44.27864,118.675539 44.1418713,118.269692 C43.7551459,117.136606 43.3920014,115.987097 43.0736604,114.807092 L42.1115631,111.236579 L38.5744408,112.369665 C38.3386327,112.444735 38.1051826,112.529189 37.855226,112.564378 C35.2943494,112.963187 32.9244775,111.138049 32.5684072,108.813227 L31.9930353,103.6639 C31.8138211,102.512045 32.0661358,101.512677 32.7381891,100.698638 C33.4432554,99.8376793 34.5680603,99.2558874 35.8980183,99.0564829 C36.3719927,98.9884508 36.8294605,99.0259857 37.2751379,99.0916719 L41.1895532,99.6734639 L41.3333962,95.7346386 C42.3520874,66.9852026 52.9587381,54.7183073 76.7965843,54.7183073 C100.639147,54.7183073 111.245797,66.9852026 112.269205,95.7346386 L112.408331,99.6734639 L116.327463,99.0916719 C116.77314,99.0259857 117.230608,98.9884508 117.699866,99.0564829 C119.034541,99.2558874 120.154629,99.8376793 120.864412,100.698638 C121.531749,101.512677 121.784064,102.512045 121.590701,103.804656 L121.590701,103.804656 Z M77.5016507,0.177659478 C34.6977548,0.177659478 0.00094323261,31.336371 0.00094323261,69.7745195 C0.00094323261,96.9944058 17.405943,120.561671 42.7694679,131.998105 C51.1406573,146.18163 64.4402371,156.177659 76.7965843,156.177659 C88.9241976,156.177659 101.952598,146.556979 110.347368,132.800415 C136.724868,121.701796 155,97.6629974 155,69.7745195 C155,31.336371 120.303188,0.177659478 77.5016507,0.177659478 L77.5016507,0.177659478 Z M77.829424,119.313633 C81.9890798,119.313633 85.3752849,116.681494 85.3752849,113.448795 L83.0172033,113.448795 C83.0172033,115.356041 80.6402572,116.967698 77.829424,116.967698 C75.0162327,116.967698 72.6392866,115.356041 72.6392866,113.448795 L70.281205,113.448795 C70.281205,116.681494 73.6674101,119.313633 77.829424,119.313633 L77.829424,119.313633 Z M64.812814,100.459352 C65.2372686,100.543806 65.6711556,100.597762 66.0743876,100.722097 C67.5104592,101.184246 68.8097622,101.967789 69.0219895,102.892087 L71.380071,102.892087 C71.5144817,101.538482 70.8259219,100.295137 70.0666196,99.4670216 C69.2931689,98.6037174 68.3758752,98.0148877 67.4491491,97.5363169 C65.5815485,96.5838672 63.6054762,96.1006045 61.5869584,95.938735 C59.6108861,95.7815573 57.5522809,95.828476 55.529047,96.3821168 C54.5221462,96.6706668 53.5176035,97.0718217 52.5578643,97.677073 C52.0838899,97.9796986 51.6075574,98.3362808 51.1807447,98.7726247 C50.7987355,99.1385906 50.1691277,99.9479383 50.091311,100.250564 L53.2181271,102.481548 C54.0458137,101.730849 55.3309682,101.24524 56.7835464,100.811242 C57.1018874,100.722097 57.4438092,100.665794 57.7739406,100.590725 C57.901277,102.418208 59.4175234,103.867996 61.2874821,103.867996 C63.2022443,103.867996 64.7538619,102.350176 64.812814,100.459352 L64.812814,100.459352 Z M69.8378857,95.2466841 L71.2079311,93.3347469 C66.9963975,90.3413336 60.070712,87.4042227 54.8569938,88.044663 C50.3789969,88.586574 47.5587314,90.5595055 46.2334896,94.0737165 L48.4406539,94.8971398 C49.454629,92.2063521 51.5226665,90.8105206 55.1423216,90.3718307 C59.5425018,89.8228819 65.8645183,92.4221781 69.8378857,95.2466841 L69.8378857,95.2466841 Z" id="avatar-icon-35"></path>
                </g>
            </g>
        </g>
    </g>
</svg>