<?xml version="1.0" encoding="UTF-8" standalone="no"?>
<svg width="103px" height="121px" viewBox="0 0 103 121" version="1.1" xmlns="http://www.w3.org/2000/svg" xmlns:xlink="http://www.w3.org/1999/xlink" xmlns:sketch="http://www.bohemiancoding.com/sketch/ns">
    <!-- Generator: Sketch 3.2.2 (9983) - http://www.bohemiancoding.com/sketch -->
    <title>avatar-icon-06</title>
    <desc>Created with Sketch.</desc>
    <defs></defs>
    <g id="Page-1" stroke="none" stroke-width="1" fill="none" fill-rule="evenodd" sketch:type="MSPage">
        <g id="item-collection-preview" sketch:type="MSArtboardGroup" transform="translate(-414.000000, -326.000000)" fill="#2F2F2F">
            <g id="avatars" sketch:type="MSLayerGroup" transform="translate(183.000000, 80.000000)">
                <g id="avatar" transform="translate(231.000000, 246.000000)" sketch:type="MSShapeGroup">
                    <path d="M54.3505969,83.1102235 C56.2031319,82.0787343 57.4530633,80.24602 57.462479,78.1407481 L54.5200792,78.1289999 C54.5153713,79.7549465 52.8982284,81.0707414 50.9209357,81.0636925 C48.945997,81.0566436 47.3429775,79.7291005 47.3476854,78.1008043 L44.4052856,78.0914058 C44.3958699,80.2695163 45.7211268,82.1586219 47.6748802,83.1830622 C37.1905212,84.364928 29.0130037,90.4927729 27.9961103,98.1455302 L74.8532388,98.3194031 C73.8669464,90.4316824 65.2751389,84.1041186 54.3505969,83.1102235 M69.4227457,61.0800571 C65.1197802,60.6641719 60.9250951,62.3206638 57.8956002,65.635997 L59.6375009,67.2219999 C61.0216058,65.7064861 62.7023046,64.6233049 64.5195307,63.993603 C64.392419,64.3061043 64.2935544,64.6327034 64.2558917,64.9851485 C64.0463928,67.0034839 65.5175927,68.8080027 67.534902,69.0171201 C69.5545652,69.2262375 71.3647296,67.760066 71.5742285,65.7393809 C71.6448461,65.0579871 71.5130265,64.4118378 71.2446797,63.8338279 C73.233742,64.4541312 74.8861937,65.6547941 75.8560087,67.2525451 L77.8709641,66.0330852 C76.197327,63.2863633 73.0430744,61.4301526 69.4227457,61.0800571 M89.5699457,82.1797686 L85.3634909,82.1633211 L85.7377642,86.0402169 C85.7471799,86.1412511 86.6369616,96.3480603 79.3868884,104.287473 C73.5609368,110.666729 64.0558085,113.876328 51.1351424,113.829336 C38.2827401,113.782343 28.8835381,110.535149 23.1941138,104.181739 C16.1182308,96.2752217 17.1610173,85.9250848 17.1704329,85.8334491 L17.6318012,81.9142599 L13.674862,81.8978125 L13.3994533,81.9001621 C9.87092749,81.7591841 7.04622367,78.4274034 7.06270111,74.3601873 C7.06505503,73.1407274 7.34987933,72.0035046 7.80653978,70.9861132 L17.2386966,71.0190081 L17.3352073,47.1302813 L17.3540387,42.5109013 C17.3563926,41.8624024 17.3940553,41.2256516 17.4576112,40.5936001 C17.4764425,40.3938812 17.5070435,40.196512 17.5329366,40.0014924 C17.5870768,39.5715094 17.6529865,39.1391768 17.7353737,38.7162427 C17.7753903,38.4953771 17.8248227,38.2768612 17.8719011,38.0559956 C17.9660578,37.649509 18.0743382,37.2477216 18.1896802,36.8529831 C18.2508821,36.6509146 18.3050223,36.4488461 18.3685781,36.2467776 C18.5262908,35.7721516 18.7004808,35.3045744 18.8887944,34.8487455 C18.9358728,34.743012 18.9688277,34.6302295 19.0135522,34.524496 C19.2512981,33.9770314 19.5149371,33.4460141 19.7974075,32.9243954 C19.8962721,32.7387743 20.0116142,32.5578525 20.1175406,32.3769307 C20.310562,32.0409331 20.5129991,31.7049355 20.7272058,31.380686 C20.8637332,31.1739182 21.0049684,30.9718497 21.1509114,30.7697812 C21.3580563,30.4784266 21.574617,30.1941209 21.7982394,29.9098153 C21.955952,29.7147957 22.1066029,29.5174264 22.2737312,29.3271061 C22.5185388,29.0404508 22.77747,28.7655436 23.041109,28.4906365 C23.1917599,28.333211 23.3424108,28.1616877 23.5001234,28.0066119 C23.9026437,27.614223 24.3192875,27.2382816 24.7500548,26.8787877 C24.950138,26.7143133 25.1619908,26.5639367 25.3667818,26.4041616 C25.6327748,26.1973939 25.9011217,25.997675 26.1741764,25.805005 C26.4095683,25.6428803 26.654376,25.4878045 26.8991837,25.330379 C27.1604688,25.1659046 27.4264617,25.0061295 27.6924547,24.8534033 C27.9513858,24.707726 28.2079631,24.5620488 28.4716021,24.42577 C28.7517186,24.2800927 29.0412507,24.1508628 29.326075,24.0192833 C29.5873601,23.899452 29.8439374,23.7725718 30.1122843,23.6644886 C30.6089614,23.4600705 31.1127002,23.2791487 31.6258547,23.117024 C31.64704,23.1099751 31.6658714,23.1005765 31.6894106,23.0935276 C33.6525797,22.4755739 35.7381527,22.1419259 37.903759,22.1489749 L65.47993,22.2500091 C76.7716835,22.2899529 85.9213699,31.4934684 85.8789994,42.7623121 L85.7754269,71.2727685 L95.2169994,71.308013 C95.6665981,72.3301037 95.9420067,73.4673265 95.9372989,74.6867864 C95.9231754,78.7422543 93.0890559,82.0505387 89.5699457,82.1797686 M95.6171658,61.7638006 L95.6713059,47.4216359 L95.464161,47.4192863 C95.7913559,37.8844723 95.492408,21.2467155 90.1042855,14.1155769 C82.689438,4.29645731 63.4885138,-2.62791347 49.3508712,1.23488448 C40.6908001,3.60331534 34.6318104,10.085955 32.5203443,14.4468753 C23.9544299,13.0817381 13.1640614,16.1198145 9.25420049,23.2157086 C6.99443744,27.3134699 4.57696175,30.2058691 6.99443744,50.3069862 L6.9544208,61.7450035 C2.83506106,64.2426642 0.0197729267,68.9254844 0.000941567939,74.336691 C-0.0249515504,81.0683918 4.24976689,86.7615545 10.061595,88.4485915 C10.2051841,93.084419 11.4456999,101.573646 17.8507158,108.789371 C24.9265988,116.75463 36.1147799,120.824196 51.1139571,120.878237 C66.1107805,120.934628 77.3789948,116.949649 84.6055287,109.036083 C91.1517798,101.8697 92.5594239,93.3828225 92.7948159,88.7634424 C98.637245,87.1351462 102.973165,81.458431 102.999058,74.7126324 C103.01789,69.0735113 100.004872,64.2027204 95.6171658,61.7638006 M68.7660021,51.3314265 C63.6909509,51.3102798 59.5009736,53.5659283 58.6723938,56.5358654 L78.8172398,56.6134033 C78.0098453,53.631718 73.8386994,51.347874 68.7660021,51.3314265 M69.326235,42.4921042 L68.6341826,40.2458543 C64.0793477,41.6485857 57.1917782,42.435713 49.7345601,42.409867 C43.5649362,42.3863707 37.7201532,41.8036615 33.2688908,40.767473 L32.7369049,43.0536667 C37.3529417,44.129799 43.3836844,44.7360045 49.7251444,44.7595008 C57.4106927,44.7853468 64.5548395,43.9606253 69.326235,42.4921042 M33.4548504,51.199847 C28.3821532,51.18105 24.1898219,53.4343488 23.3612421,56.4089852 L43.5060882,56.4818238 C42.7010476,53.5024882 38.5275477,51.2186441 33.4548504,51.199847 M32.2072729,63.6881506 C31.9365721,64.2661605 31.7976909,64.9123098 31.8683085,65.5960533 C32.058976,67.6143887 33.8573707,69.094658 35.8793879,68.8996384 C37.8990511,68.7069684 39.3843745,66.9118482 39.1866453,64.8935128 C39.1536904,64.5410677 39.0571797,64.212119 38.9324219,63.8996177 C40.7425863,64.5434173 42.4185772,65.635997 43.7932664,67.1656086 L44.9937655,66.0871267 L44.9608107,74.6491923 L47.3147305,74.6562412 L47.3971177,52.3558669 L45.0431979,52.348818 L44.9961195,65.046239 C42.0372422,62.0857004 38.1014882,60.5889837 34.0503922,60.9484776 C30.4277095,61.2750767 27.2616873,63.1054415 25.569219,65.8404152 L27.5747587,67.0763226 C28.5539893,65.4856205 30.2182107,64.2943562 32.2072729,63.6881506 M50.9656602,100.130971 C47.3900559,100.116873 44.4382405,101.709925 43.8544683,103.803448 L58.0509589,103.85514 C57.4813103,101.759267 54.5412644,100.145069 50.9656602,100.130971" id="avatar-icon-06"></path>
                </g>
            </g>
        </g>
    </g>
</svg>