<?xml version="1.0" encoding="UTF-8" standalone="no"?>
<svg width="122px" height="134px" viewBox="0 0 122 134" version="1.1" xmlns="http://www.w3.org/2000/svg" xmlns:xlink="http://www.w3.org/1999/xlink" xmlns:sketch="http://www.bohemiancoding.com/sketch/ns">
    <!-- Generator: Sketch 3.2.2 (9983) - http://www.bohemiancoding.com/sketch -->
    <title>avatar-icon-11</title>
    <desc>Created with Sketch.</desc>
    <defs></defs>
    <g id="Page-1" stroke="none" stroke-width="1" fill="none" fill-rule="evenodd" sketch:type="MSPage">
        <g id="item-collection-preview" sketch:type="MSArtboardGroup" transform="translate(-634.000000, -550.000000)" fill="#2F2F2F">
            <g id="avatars" sketch:type="MSLayerGroup" transform="translate(183.000000, 80.000000)">
                <g id="avatar" transform="translate(451.000000, 470.000000)" sketch:type="MSShapeGroup">
                    <path d="M69.4164237,96.4475617 L65.4903814,93.8700832 C64.6769619,95.0991261 62.8738036,95.8903956 60.8896241,95.8903956 C59.0300436,95.8903956 57.2762547,95.1670161 56.4134658,94.0456607 L52.6801993,96.8900172 C54.4504447,99.1959358 57.5183998,100.572464 60.8896241,100.572464 C64.4677297,100.572464 67.7331625,98.9922658 69.4164237,96.4475617 L69.4164237,96.4475617 Z M41.7060883,86.9008246 C39.4915184,86.8235705 37.4720751,85.5757993 36.1602598,83.4758917 L34.1643257,84.7119578 C35.8969563,87.4860832 38.6146239,89.1365122 41.6261569,89.2395177 C41.7272466,89.2441998 41.8283363,89.2441998 41.9270751,89.2441998 C45.0749617,89.2441998 48.0347744,87.5469501 50.28931,84.4403978 L48.385062,83.0685518 C46.5325343,85.62262 44.1722071,86.994466 41.7060883,86.9008246 L41.7060883,86.9008246 Z M39.409236,78.1172647 C38.9225949,78.8078697 38.6616424,79.6600062 38.7533284,80.5659864 C38.9555078,82.5792757 40.7563152,84.0471041 42.7757585,83.8457751 C44.7905,83.6467872 46.264529,81.8512141 46.0623496,79.8426068 C46.0270857,79.4610183 45.9142414,79.1075221 45.7684841,78.7727542 C47.3812177,79.4657003 48.8881596,80.542576 50.2046768,81.9916761 L51.949062,80.4208422 C48.970442,77.1433945 44.9715211,75.3548444 40.9749511,75.5351041 C37.53555,75.6825892 34.4417347,77.2417179 32.4810645,79.8145144 L34.3547505,81.228499 C35.570178,79.6365958 37.3615817,78.5644022 39.409236,78.1172647 L39.409236,78.1172647 Z M105.117548,83.0474825 C104.776664,85.2925342 102.801888,86.9851019 100.528545,86.9851019 C100.298155,86.9851019 100.060712,86.9663736 99.8232684,86.9312581 C99.5717195,86.8938015 99.341329,86.8118653 99.1062367,86.7369523 L96.6730309,85.9573879 C97.6392604,84.0681734 98.2881153,81.9963582 98.5396641,79.8028092 C100.481527,81.158268 102.738414,82.0899996 105.190427,82.4013571 L105.117548,83.0474825 Z M94.4984266,90.079949 C94.4984266,121.983562 72.5478538,122.905929 70.0276638,122.905929 L68.6970411,122.873155 L67.6767403,123.720609 C66.8374606,124.420578 63.8094711,126.415139 61.0001175,126.415139 C58.221326,126.415139 55.2286003,124.465058 54.3211439,123.72295 L53.2350172,122.90827 L51.9561148,122.90827 C49.4523813,122.90827 27.4971066,121.985903 27.4971066,90.079949 L27.4971066,89.2863384 C30.8518745,93.3456915 35.9345711,95.9395573 41.6144023,95.9395573 C51.0416056,95.9395573 58.8231624,88.7947212 59.787041,79.6600062 L62.2131941,79.6600062 C63.1770727,88.7947212 70.9586295,95.9395573 80.3858328,95.9395573 C86.0633131,95.9395573 91.1436588,93.3480326 94.4984266,89.2910205 L94.4984266,90.079949 Z M41.6144023,73.5101096 C49.614595,73.5101096 55.1909856,75.738774 55.1909856,77.7380172 C55.1909856,85.1918697 49.0997427,91.2574891 41.6144023,91.2574891 C34.1267109,91.2574891 28.0354681,85.1918697 28.0354681,77.7380172 C28.0354681,75.738774 33.6142096,73.5101096 41.6144023,73.5101096 L41.6144023,73.5101096 Z M39.3974814,66.1756497 C41.7695632,67.0605606 44.2991569,67.5194033 46.8452071,67.5194033 C52.9975739,67.5194033 58.6915107,64.9442658 62.7303972,60.3956365 C67.0137799,60.152169 71.1349488,58.6047454 74.5249805,55.9991745 C75.9308327,57.0830733 77.4683367,57.9890535 79.0951758,58.6913637 C80.6914529,63.1838081 83.7829173,66.9458499 87.7371706,69.4601206 C85.3462814,69.0293703 82.8096349,68.8280414 80.3858328,68.8280414 C73.2695873,68.8280414 65.1636031,70.5018807 62.8032759,74.977938 L59.1946083,74.977938 C56.8342811,70.5018807 48.7306478,68.8280414 41.6144023,68.8280414 C40.05574,68.8280414 38.4524102,68.9076365 36.8678877,69.080873 C37.8388191,68.046136 38.6898535,67.0535375 39.3974814,66.1756497 L39.3974814,66.1756497 Z M93.9624161,77.7380172 C93.9624161,85.1918697 87.8735242,91.2574891 80.3858328,91.2574891 C72.8981414,91.2574891 66.8092495,85.1918697 66.8092495,77.7380172 C66.8092495,75.738774 72.3856401,73.5101096 80.3858328,73.5101096 C88.3860255,73.5101096 93.9624161,75.738774 93.9624161,77.7380172 L93.9624161,77.7380172 Z M22.8892966,86.7369523 C22.6542042,86.8118653 22.4214628,86.8938015 22.1722649,86.9312581 C19.6379693,87.3222108 17.2588348,85.5079094 16.9014944,83.1856035 L16.4477661,79.1168862 C16.9038453,79.1543428 17.3599245,79.1917993 17.8207055,79.1917993 C19.7390591,79.1917993 21.5915868,78.8570315 23.3641831,78.2998653 C23.4488163,81.0482394 24.1446897,83.6421052 25.3272042,85.9550469 L22.8892966,86.7369523 Z M119.082034,58.8739644 C119.940121,56.5516585 120.375042,54.1240062 120.375042,51.6354869 C120.375042,46.422004 118.40967,41.3794165 114.918548,37.5096871 C115.125429,36.3274649 115.22887,35.1452427 115.22887,33.9794077 C115.22887,21.6515221 104.539221,11.692763 91.9852894,12.9124418 C88.5952577,5.43517888 81.0323368,0.439412101 72.6183815,0.439412101 C67.4604553,0.439412101 62.6128511,2.24669043 58.7620384,5.57095886 C53.9238378,4.66263762 49.001004,5.48199956 44.7646398,7.78089505 C36.6374972,6.5284418 28.6067425,10.1406574 24.0647583,16.6978939 C14.8115234,19.1278873 8.25244679,27.4877201 8.25244679,37.1468268 L8.25244679,37.2521734 C4.62026997,41.1523362 2.56556282,46.3049523 2.56556282,51.6354869 C2.56556282,52.8270733 2.67605623,54.0350469 2.88999027,55.2453615 C1.01395331,57.7830425 0.000705277052,60.8334099 0.000705277052,64.0078521 C0.000705277052,69.7199754 3.46126468,74.432477 9.24923836,77.11062 C9.22808005,77.723971 9.23983466,78.342004 9.3338716,78.962378 L9.90749694,84.0986068 C10.7209165,89.4408466 15.2111804,93.5423384 20.5477767,93.9707476 C22.2592491,125.649621 44.8962915,129.423368 50.8018114,129.870506 C52.5979169,131.129982 56.50045,133.438242 61.0001175,133.438242 C65.4809778,133.438242 69.3741071,131.144028 71.1796163,129.87987 C76.692532,129.488917 99.7198277,125.937568 101.447757,93.9707476 C106.784353,93.5446794 111.279319,89.4361646 112.109195,83.9604858 L112.370147,81.57029 C117.991205,79.4305848 121.99953,74.022796 121.99953,67.6856167 C121.99953,64.4666948 120.976878,61.4139864 119.082034,58.8739644 L119.082034,58.8739644 Z M60.6897956,107.324006 C54.0860515,107.324006 47.9571939,104.695025 44.7035158,100.467117 L40.9702493,103.313815 C45.1595949,108.756719 52.5273892,112.006074 60.6897956,112.006074 C69.3364923,112.006074 77.1674185,108.290853 81.1240228,102.30717 L77.2003314,99.7296915 C74.1464818,104.34387 67.6673366,107.324006 60.6897956,107.324006 L60.6897956,107.324006 Z M72.1576005,81.9916761 C73.4788195,80.542576 74.9834106,79.4657003 76.5937932,78.7727542 C76.4503868,79.1075221 76.3375425,79.4610183 76.2999277,79.8426068 C76.0977483,81.8512141 77.5717774,83.6467872 79.5865188,83.8457751 C81.608313,84.0471041 83.4067695,82.5792757 83.6089489,80.5659864 C83.7006349,79.6600062 83.4396824,78.8078697 82.9530413,78.1172647 C85.0006956,78.5644022 86.7968012,79.6365958 88.0098777,81.228499 L89.8812128,79.8145144 C87.9205426,77.2417179 84.8267273,75.6825892 81.3896771,75.5351041 C77.3954581,75.3548444 73.3941863,77.1433945 70.4155662,80.4208422 L72.1576005,81.9916761 Z M80.656189,86.9008246 C78.1924212,86.994466 75.832094,85.62262 73.9795662,83.0685518 L72.0753182,84.4403978 C74.3298538,87.5469501 77.2873156,89.2441998 80.4375531,89.2441998 C80.5362919,89.2441998 80.6373816,89.2441998 80.7384713,89.2395177 C83.7476534,89.1365122 86.465321,87.4860832 88.2003025,84.7119578 L86.2043685,83.4758917 C84.8902022,85.5757993 82.8707589,86.8235705 80.656189,86.9008246 L80.656189,86.9008246 Z" id="avatar-icon-11"></path>
                </g>
            </g>
        </g>
    </g>
</svg>