<?xml version="1.0" encoding="UTF-8" standalone="no"?>
<svg width="107px" height="121px" viewBox="0 0 107 121" version="1.1" xmlns="http://www.w3.org/2000/svg" xmlns:xlink="http://www.w3.org/1999/xlink" xmlns:sketch="http://www.bohemiancoding.com/sketch/ns">
    <!-- Generator: Sketch 3.2.2 (9983) - http://www.bohemiancoding.com/sketch -->
    <title>avatar-icon-15</title>
    <desc>Created with Sketch.</desc>
    <defs></defs>
    <g id="Page-1" stroke="none" stroke-width="1" fill="none" fill-rule="evenodd" sketch:type="MSPage">
        <g id="item-collection-preview" sketch:type="MSArtboardGroup" transform="translate(-641.000000, -788.000000)" fill="#2F2F2F">
            <g id="avatars" sketch:type="MSLayerGroup" transform="translate(183.000000, 80.000000)">
                <g id="avatar" transform="translate(458.000000, 708.000000)" sketch:type="MSShapeGroup">
                    <path d="M87.3921912,86.5737221 C79.9633341,102.574973 66.869356,113.91398 52.959356,113.91398 C39.2727626,113.91398 26.3786747,102.929097 18.893378,87.326529 C18.3195758,82.6173818 18.0867626,77.5845979 18.0867626,71.8975053 C20.645356,71.8975053 23.9658835,70.9101791 23.9658835,70.9101791 C23.9658835,70.9101791 36.8999495,66.4261704 45.523444,48.0562749 C45.523444,48.0562749 45.1307187,58.6096427 37.6830484,69.9439597 C50.8311143,65.9477511 67.7535758,55.3826573 75.309422,31.639925 C86.9594879,35.1248815 92.9726527,57.6105905 87.3921912,86.5737221 M53.5025868,0.950731407 C16.8121692,0.950731407 0.000235164835,30.2656419 0.000235164835,66.42148 C0.000235164835,87.6126425 8.23570769,106.444541 20.9957516,118.409715 L29.7885648,118.409715 C27.6085868,114.629264 25.8189824,111.090368 24.337444,107.638244 C32.4412242,115.909739 42.4310264,120.949559 52.959356,120.949559 C63.4665209,120.949559 73.4328066,115.935537 81.5248286,107.699219 C80.2502352,111.23108 78.820433,114.805154 77.2072022,118.409715 L86.0047187,118.409715 C98.7647626,106.444541 107.000235,87.6126425 107.000235,66.42148 C107.000235,30.2656419 90.1906527,0.950731407 53.5025868,0.950731407 M72.9036857,56.2269267 C67.3490923,55.9361228 61.6910264,58.7175215 58.8149604,60.4201315 L60.0119495,62.4346522 C62.1448945,61.1752836 67.6265868,58.2883512 72.7696418,58.5674292 C79.2155099,58.9332793 81.3037736,62.8403705 81.388433,63.0068792 L83.4931582,61.9562328 C83.3849824,61.7404751 80.7770044,56.6748586 72.9036857,56.2269267 M53.1216198,85.5254209 C55.9976857,85.5254209 58.3399275,83.4147474 58.3399275,80.8256545 L55.9882791,80.8256545 C55.9882791,82.1248913 54.7019275,83.1802281 53.1216198,83.1802281 C51.5413121,83.1802281 50.2549604,82.1248913 50.2549604,80.8256545 L47.9033121,80.8256545 C47.9033121,83.4147474 50.2432022,85.5254209 53.1216198,85.5254209 M53.3897077,95.2908039 C48.6041033,95.2908039 44.1712462,93.2669025 42.099444,90.1337249 L38.1721912,92.7110918 C41.1352681,97.1951005 46.967356,99.9811896 53.3897077,99.9811896 C59.4522571,99.9811896 64.9386527,97.5492246 68.0686967,93.4756247 L64.3342791,90.6238702 C62.121378,93.503767 57.9307407,95.2908039 53.3897077,95.2908039 M70.9071363,62.4158906 C66.8670044,62.2939406 62.9585648,63.9801343 59.9343451,67.3103081 L61.6745648,68.8862777 C63.0502791,67.3712831 64.6352901,66.2573165 66.3237736,65.5654846 C66.100367,65.9782386 65.9522132,66.4402416 65.9028286,66.9350772 C65.7005868,68.9472527 67.1750703,70.7460156 69.1927846,70.945357 C71.2128505,71.1470436 73.0142132,69.6766077 73.2164549,67.662087 C73.3152242,66.6606897 73.0024549,65.7179222 72.4168945,64.9932576 C74.4886967,65.4341538 76.3088725,66.5105973 77.5340813,68.1217448 L79.4059934,66.700558 C77.4447187,64.1278814 74.3452462,62.565983 70.9071363,62.4158906" id="avatar-icon-15"></path>
                </g>
            </g>
        </g>
    </g>
</svg>