<?xml version="1.0" encoding="UTF-8" standalone="no"?>
<svg width="103px" height="119px" viewBox="0 0 103 119" version="1.1" xmlns="http://www.w3.org/2000/svg" xmlns:xlink="http://www.w3.org/1999/xlink" xmlns:sketch="http://www.bohemiancoding.com/sketch/ns">
    <!-- Generator: Sketch 3.2.2 (9983) - http://www.bohemiancoding.com/sketch -->
    <title>avatar-icon-38</title>
    <desc>Created with Sketch.</desc>
    <defs></defs>
    <g id="Page-1" stroke="none" stroke-width="1" fill="none" fill-rule="evenodd" sketch:type="MSPage">
        <g id="item-collection-preview" sketch:type="MSArtboardGroup" transform="translate(-414.000000, -2173.000000)" fill="#2F2F2F">
            <g id="avatars" sketch:type="MSLayerGroup" transform="translate(183.000000, 80.000000)">
                <g id="avatar" transform="translate(231.000000, 2093.000000)" sketch:type="MSShapeGroup">
                    <path d="M33.0227903,87.0885009 C33.0227903,87.0885009 41.4025417,93.6182347 51.7345399,93.6182347 C62.0711974,93.6182347 70.4462896,87.0885009 70.4462896,87.0885009 L51.7368696,87.9703969 L33.0227903,87.0885009 Z M89.4422565,65.8998506 L85.3117869,65.8975359 L85.6612344,69.6820501 C85.6728826,69.8139873 86.8540152,82.8063288 86.8540152,90.6554345 C86.7584996,93.801095 74.045599,103.448713 59.976842,111.103385 L51.4526522,111.1057 L42.8212986,110.862657 C28.936584,103.32372 16.4286925,93.7848922 16.3820995,90.6577492 C16.3820995,82.8387345 17.7892082,69.8718545 17.8031861,69.7445467 L18.2248528,65.8975359 L14.0571087,65.8998506 C10.5626336,65.7725427 7.7554052,62.4995745 7.7554052,58.4928502 C7.7554052,54.5000141 10.5486557,51.2316752 14.0291529,51.0881646 L17.8264826,51.0904793 L17.8264826,38.4083059 C21.1555526,35.5867017 25.3046594,32.5660343 29.968619,30.2467174 C33.0856908,28.6981914 36.7502304,27.3348404 40.4567037,26.158979 C37.6075417,30.5730883 36.6407369,34.8714632 37.2837203,39.348069 C41.6098805,35.3043098 48.8201476,30.0453395 55.5761329,25.4067056 C66.9704516,25.0409849 76.8272012,21.698576 82.4230207,19.3561122 C84.4568053,21.8050517 85.6449268,24.4345368 85.6449268,27.0802247 L85.6449268,51.0904793 L89.4119711,51.0881646 C92.9064462,51.2154724 95.7136746,54.4884407 95.7136746,58.4928502 C95.7136746,62.488001 92.9227538,65.7563399 89.4422565,65.8998506 L89.4422565,65.8998506 Z M102.702625,58.4928502 C102.702625,51.8381234 98.420728,46.2273206 92.6338772,44.609354 L92.6338772,27.0802247 C92.6338772,11.125083 70.6606174,0.00300909389 50.9377996,0.00300909389 C40.1934533,0.00300909389 29.0367589,3.36162081 21.2254421,9.11130483 C16.2469798,12.0949372 11.4781861,17.0391099 10.1106815,23.0110039 C7.56204424,34.1492807 8.54282694,42.148841 9.12989876,45.2528371 C4.23530389,47.4054966 0.766454885,52.5163268 0.766454885,58.4928502 C0.766454885,65.0272133 4.89459487,70.5546873 10.5230295,72.283759 C10.0897146,76.7511061 9.40013818,84.8108483 9.39314923,90.5767351 C8.03729287,95.5093344 5.27199819,100.682661 0.256261512,100.675717 C1.88468694,101.932593 3.90216393,102.712642 6.12465013,102.712642 C8.80374775,102.712642 11.2219246,101.62011 12.9645028,99.8655765 C12.9645028,99.8794646 12.9668325,99.8956674 12.9668325,99.9118703 C12.9668325,104.40005 9.84044205,108.135955 5.64008291,109.159047 C7.26850833,110.415923 9.28831497,111.195972 11.5108012,111.195972 C15.6505894,111.195972 19.1497239,108.580375 20.5009209,104.932428 C27.2219615,110.101125 35.3897148,114.772165 40.228398,117.366929 L40.9575785,117.758112 L51.3058843,118.047448 L51.3548069,118.049762 L61.7497057,118.047448 L62.5254792,117.630804 C67.3781404,115.02678 75.5132785,110.376573 82.2855714,105.228708 C83.3711883,109.318761 87.0869803,112.353316 91.5459306,112.353316 C93.7684168,112.353316 95.7858938,111.573266 97.4166488,110.316391 C93.2162897,109.293299 90.0898992,105.557393 90.0898992,101.069214 C90.0898992,99.6410518 90.4230392,98.298533 90.9961331,97.0879514 C91.6088311,96.2986429 92.1330024,95.5185932 92.5639877,94.7501169 C92.9530392,94.3172703 93.3700466,93.9122 93.8313173,93.5580528 C93.6216488,93.5071296 93.407321,93.474724 93.1976525,93.4353743 C93.5843744,92.4840377 93.8429656,91.5512186 93.8429656,90.6577492 C93.8429656,84.8941771 93.2558937,76.7719383 92.8971276,72.3022765 C98.5535181,70.5894077 102.702625,65.0480455 102.702625,58.4928502 L102.702625,58.4928502 Z M66.3880391,52.2431937 C63.159144,52.5441031 60.4008383,53.8102372 58.8166762,55.7152251 L60.6151661,57.1896811 C61.4561698,56.1758479 62.8656081,55.3911688 64.5382969,54.9328607 C64.4637481,55.263861 64.4264737,55.6041201 64.4637481,55.960582 C64.6408015,57.7336327 66.2319525,59.0275431 68.0164645,58.8516268 C69.7986468,58.6757105 71.1009212,57.0924642 70.9238678,55.3194135 C70.9075603,55.1666441 70.8679562,55.0231335 70.8330115,54.8796229 C72.3635916,55.2615463 73.766041,55.9142882 74.9029102,56.8540514 L76.3938863,55.0740566 C73.7916671,52.9283412 70.1597426,51.8936759 66.3880391,52.2431937 L66.3880391,52.2431937 Z M76.5802583,43.5885767 C71.9768697,43.5885767 57.7333889,46.2203765 57.1323392,46.3314815 L57.9873208,50.8821574 C61.9850004,50.1414573 73.1137389,48.2179519 76.5802583,48.2179519 C78.1038494,48.2179519 79.3106082,50.0812755 79.6134627,50.7340174 L83.8441073,48.7943092 C83.5971644,48.261931 81.2908108,43.5885767 76.5802583,43.5885767 L76.5802583,43.5885767 Z M66.8632877,60.2149778 C65.6798254,60.0830406 64.5732416,59.64325 63.8254239,59.0090256 L62.3111514,60.7681881 C63.4223945,61.710266 64.9459857,62.3306023 66.6023669,62.5157773 C66.9448254,62.5528123 67.2826247,62.5713298 67.6180943,62.5713298 C69.77768,62.5713298 71.7555529,61.784336 72.827192,60.4487613 L71.0054056,59.0067109 C70.3927076,59.7728725 68.878435,60.4510759 66.8632877,60.2149778 L66.8632877,60.2149778 Z M51.7345399,80.2370256 C56.873748,80.2370256 61.0531403,76.4733436 61.0531403,71.846283 L56.3938401,71.846283 C56.3938401,73.9225578 54.304144,75.6076504 51.7345399,75.6076504 C49.1672655,75.6076504 47.0752397,73.9225578 47.0752397,71.846283 L42.4159395,71.846283 C42.4159395,76.4733436 46.5953318,80.2370256 51.7345399,80.2370256 L51.7345399,80.2370256 Z M51.4829377,95.053341 C48.0723299,95.053341 45.2581126,96.5740907 44.7106448,98.5647221 L58.2575602,98.5647221 C57.7077628,96.5740907 54.8958751,95.053341 51.4829377,95.053341 L51.4829377,95.053341 Z M46.3390703,46.3314815 C45.7356909,46.2203765 31.4945398,43.5885767 26.8888215,43.5885767 C22.1805987,43.5885767 19.8719154,48.261931 19.6249725,48.7943092 L23.8556171,50.7340174 C24.1584716,50.0812755 25.36756,48.2179519 26.8888215,48.2179519 C30.3553409,48.2179519 41.4864091,50.1414573 45.4840887,50.8821574 L46.3390703,46.3314815 Z M36.8667129,62.5157773 C38.5230942,62.3306023 40.049015,61.710266 41.1579284,60.7681881 L39.6459855,59.0090256 C38.8958382,59.64325 37.791584,60.0830406 36.6057921,60.2149778 C34.5929744,60.4510759 33.0763722,59.7728725 32.4660039,59.0067109 L30.6442175,60.4487613 C31.7135269,61.784336 33.6913998,62.5713298 35.8533151,62.5713298 C36.1864551,62.5713298 36.526584,62.5528123 36.8667129,62.5157773 L36.8667129,62.5157773 Z M32.5475416,55.3194135 C32.3704882,57.0924642 33.670433,58.6757105 35.454945,58.8516268 C37.2394569,59.0275431 38.8282783,57.7336327 39.0053317,55.960582 C39.0426061,55.6041201 39.0053317,55.263861 38.9307829,54.9328607 C40.6058013,55.3911688 42.01291,56.1758479 42.8562433,57.1896811 L44.6524036,55.7152251 C43.0705712,53.8102372 40.3122654,52.5441031 37.0810407,52.2431937 C33.3093372,51.8936759 29.6774127,52.9283412 27.0751935,55.0740566 L28.5684992,56.8540514 C29.7030388,55.9142882 31.1078179,55.2615463 32.6360683,54.8796229 C32.6011236,55.0231335 32.5638492,55.1666441 32.5475416,55.3194135 L32.5475416,55.3194135 Z" id="avatar-icon-38"></path>
                </g>
            </g>
        </g>
    </g>
</svg>