<?xml version="1.0" encoding="UTF-8" standalone="no"?>
<svg width="113px" height="142px" viewBox="0 0 113 142" version="1.1" xmlns="http://www.w3.org/2000/svg" xmlns:xlink="http://www.w3.org/1999/xlink" xmlns:sketch="http://www.bohemiancoding.com/sketch/ns">
    <!-- Generator: Sketch 3.2.2 (9983) - http://www.bohemiancoding.com/sketch -->
    <title>avatar-icon-26</title>
    <desc>Created with Sketch.</desc>
    <defs></defs>
    <g id="Page-1" stroke="none" stroke-width="1" fill="none" fill-rule="evenodd" sketch:type="MSPage">
        <g id="item-collection-preview" sketch:type="MSArtboardGroup" transform="translate(-409.000000, -1469.000000)" fill="#2F2F2F">
            <g id="avatars" sketch:type="MSLayerGroup" transform="translate(183.000000, 80.000000)">
                <g id="avatar" transform="translate(226.000000, 1389.000000)" sketch:type="MSShapeGroup">
                    <path d="M85.4283103,65.9375955 L62.8936076,61.6192372 L62.0114079,66.2159729 L69.9067441,67.7295037 C69.8716433,67.9189875 69.7920815,68.0920961 69.7920815,68.2909371 C69.7920815,70.0150054 71.1914327,71.4115709 72.9137111,71.4115709 C74.4277249,71.4115709 75.6305117,70.3120972 75.9159981,68.8804421 L84.5461106,70.5343312 L85.4283103,65.9375955 Z M99.3586411,83.6929259 C98.7712879,83.6929259 98.2096754,83.594675 97.6714634,83.4356023 L97.6644433,79.8400894 L98.2260558,70.5156168 C98.593444,70.4384197 98.9678523,70.3822764 99.3586411,70.3822764 C102.864039,70.3822764 105.716563,73.3695698 105.716563,77.0376011 C105.716563,80.7056325 102.864039,83.6929259 99.3586411,83.6929259 L99.3586411,83.6929259 Z M80.2989159,125.461229 C74.568128,131.578514 66.5019681,134.680433 56.322741,134.680433 C46.1481941,134.680433 38.1147949,131.585532 32.4401683,125.477605 C26.9106249,119.526411 24.3927288,111.61254 23.2507833,104.987626 L31.4596864,107.670809 L23.1057001,59.7594891 C30.0720355,58.8354634 35.4541555,52.8983055 35.4541555,45.679208 C35.4541555,44.0791229 35.1780294,42.5468777 34.6912985,41.1128833 C35.0493265,40.8578989 35.383954,40.5818609 35.7162414,40.2988049 C46.3564587,39.7818183 57.7080519,36.2026806 66.4013459,32.747526 C68.8209598,34.9722058 72.0034308,36.3687713 75.5205293,36.4904152 C76.4635703,38.1560008 77.7342187,39.6087097 79.2435523,40.7690053 C78.6795998,42.3012506 78.3566726,43.9504611 78.3566726,45.679208 C78.3566726,52.4631946 83.128039,58.0681711 89.4836208,59.490469 L81.0851734,107.670809 L89.673165,104.863643 C88.4890986,111.50961 85.905681,119.477285 80.2989159,125.461229 L80.2989159,125.461229 Z M13.6401889,83.6929259 C10.1347907,83.6929259 7.2822671,80.7056325 7.2822671,77.0376011 C7.2822671,73.3695698 10.1347907,70.3822764 13.6401889,70.3822764 C13.869514,70.3822764 14.091819,70.4126873 14.3117839,70.4430983 L15.0957014,83.4823884 C14.627691,83.6063716 14.1456402,83.6929259 13.6401889,83.6929259 L13.6401889,83.6929259 Z M99.3586411,63.3643592 C99.1199557,63.3643592 98.8882906,63.4017881 98.6519453,63.4181633 L98.953812,58.3559057 C103.610516,56.0189393 106.825748,51.2444163 106.825748,45.679208 C106.825748,41.0824723 104.637799,37.009741 101.256423,34.4060938 C101.820376,32.8738485 102.145643,31.2269773 102.145643,29.4982304 C102.145643,21.8042539 96.0357669,15.553629 88.4048567,15.2939661 C85.9618422,10.9756077 81.333219,8.05615421 76.0166204,8.05615421 C73.7959108,8.05615421 71.7085843,8.582498 69.8365425,9.49248792 C66.5768498,7.26780819 62.4419775,5.25834458 57.1183588,3.76118892 C39.0882566,-1.30808656 13.24238,21.8908082 10.3173148,0.252230349 C10.3173148,0.252230349 -8.0801756,18.6719235 13.0060348,34.0458407 C13.0083748,34.0505193 13.0083748,34.0575372 13.0107149,34.0645551 C9.36959366,36.64247 6.98508047,40.8766134 6.98508047,45.679208 C6.98508047,50.7087153 9.60359888,55.1159673 13.5442468,57.6447568 L13.8905745,63.3830737 C13.8063326,63.3830737 13.7244308,63.3643592 13.6401889,63.3643592 C6.26434439,63.3643592 0.262110496,69.4980188 0.262110496,77.0376011 C0.262110496,84.5771834 6.26434439,90.710843 13.6401889,90.710843 C14.2369022,90.710843 14.8172352,90.6546997 15.392888,90.5775026 L15.390548,91.7986202 C15.2478048,93.9671566 14.13628,116.05722 27.2686529,130.221717 C34.3262504,137.836157 44.1006484,141.69835 56.322741,141.69835 C68.5401536,141.69835 78.3402922,137.836157 85.4540509,130.224056 C98.4249602,116.342616 97.7791058,94.8420569 97.6293425,91.9670502 L97.6831637,91.9179248 L97.6808236,90.5915384 C98.2330759,90.6617176 98.7900084,90.710843 99.3586411,90.710843 C106.734486,90.710843 112.736719,84.5771834 112.736719,77.0376011 C112.736719,69.4980188 106.734486,63.3643592 99.3586411,63.3643592 L99.3586411,63.3643592 Z M57.1534596,94.5122148 C52.9764664,94.5122148 49.0100779,93.649011 47.0444341,92.3109281 L44.4118753,96.1824791 C47.1824972,98.0656202 51.9468434,99.1908262 57.1534596,99.1908262 C62.7719249,99.1908262 67.7328356,97.9205832 70.4262357,95.7964937 L67.526911,92.1214444 C66.0199174,93.312151 62.2290328,94.5122148 57.1534596,94.5122148 L57.1534596,94.5122148 Z M73.4308627,75.7135541 C71.4090576,75.9521633 69.8856836,75.2667467 69.2702499,74.4924365 L67.440329,75.949824 C68.5167531,77.2996034 70.5011173,78.0949673 72.6726858,78.0949673 C73.0096533,78.0949673 73.3489609,78.0762529 73.6929485,78.038824 C75.3567256,77.8516795 76.8894598,77.2247456 78.0033247,76.2726482 L76.4822907,74.4947758 C75.731134,75.1357456 74.6196092,75.5802137 73.4308627,75.7135541 L73.4308627,75.7135541 Z M40.541429,71.4115709 C42.2660475,71.4115709 43.6630586,70.0150054 43.6630586,68.2909371 C43.6630586,67.9634343 43.5694566,67.6663424 43.4758545,67.3692506 L49.9226983,66.2159729 L49.9226983,79.0143145 C49.9226983,84.4999864 54.3851778,88.9610424 59.8702602,88.9610424 L59.8702602,84.2824309 C56.9662554,84.2824309 54.6028027,81.9197322 54.6028027,79.0143145 L54.6028027,63.4205026 L51.8509013,61.1162864 L28.2163741,65.3480905 L29.0424125,69.9541834 L37.4549002,68.4476705 C37.5414821,70.0945418 38.8753118,71.4115709 40.541429,71.4115709 L40.541429,71.4115709 Z M44.3767746,74.4947758 C43.6256178,75.1357456 42.511753,75.5802137 41.3230064,75.7135541 C39.3012013,75.9521633 37.7801674,75.2667467 37.1647337,74.4924365 L35.3324728,75.949824 C36.4088968,77.2996034 38.3932611,78.0949673 40.5671696,78.0949673 C40.901797,78.0949673 41.2434447,78.0762529 41.5850923,78.038824 C43.2512095,77.8516795 44.7816036,77.2247456 45.8954684,76.2726482 L44.3767746,74.4947758 Z M57.2143009,115.563627 C53.8446258,115.563627 51.5396743,114.808031 50.5872731,114.157704 L47.9523743,118.024577 C49.9905598,119.411785 53.451497,120.242238 57.2143009,120.242238 C61.2719514,120.242238 64.8873321,119.304177 66.8833966,117.729824 L63.986412,114.054775 C63.0644314,114.782299 60.5535554,115.563627 57.2143009,115.563627 L57.2143009,115.563627 Z" id="avatar-icon-26"></path>
                </g>
            </g>
        </g>
    </g>
</svg>