<?xml version="1.0" encoding="UTF-8" standalone="no"?>
<svg width="103px" height="118px" viewBox="0 0 103 118" version="1.1" xmlns="http://www.w3.org/2000/svg" xmlns:xlink="http://www.w3.org/1999/xlink" xmlns:sketch="http://www.bohemiancoding.com/sketch/ns">
    <!-- Generator: Sketch 3.2.2 (9983) - http://www.bohemiancoding.com/sketch -->
    <title>avatar-icon-39</title>
    <desc>Created with Sketch.</desc>
    <defs></defs>
    <g id="Page-1" stroke="none" stroke-width="1" fill="none" fill-rule="evenodd" sketch:type="MSPage">
        <g id="item-collection-preview" sketch:type="MSArtboardGroup" transform="translate(-643.000000, -2173.000000)" fill="#2F2F2F">
            <g id="avatars" sketch:type="MSLayerGroup" transform="translate(183.000000, 80.000000)">
                <g id="avatar" transform="translate(460.000000, 2093.000000)" sketch:type="MSShapeGroup">
                    <path d="M95.9150631,69.2028459 L95.3796362,74.0455959 C95.0078769,76.5112928 92.7025018,78.2958322 90.1188917,77.9132643 C89.8687141,77.8759406 89.6349032,77.794295 89.4057685,77.7173148 L84.8230755,76.2476942 L84.8230755,81.048455 C84.8230755,109.52877 56.9411296,110.970398 51.3507118,110.970398 C45.8117323,110.970398 18.1869783,109.52877 18.1869783,81.048455 L18.1869783,76.2476942 L13.6042853,77.7173148 C13.3704745,77.7966277 13.1413398,77.8759406 12.8888241,77.9132643 C10.349638,78.2958322 7.99983883,76.4949637 7.64912253,74.1832271 L7.07862401,69.0605493 C6.90326586,67.9151783 7.15344349,66.9237675 7.81746635,66.1119771 C8.51889896,65.2605302 9.63183868,64.6796801 10.9528701,64.4837307 C11.4298443,64.4090833 11.876423,64.4510725 12.3136493,64.5140562 L16.1972478,65.0925735 L16.3375344,61.1805833 C16.5269212,55.8409616 17.0483194,51.0775244 17.922772,46.8576137 L36.4733263,46.8576137 L36.4733263,28.4197062 L54.949061,46.8576137 L85.0872818,46.8576137 C85.9617345,51.0775244 86.4831327,55.8409616 86.6725195,61.1805833 L86.8104679,65.0925735 L90.6964045,64.5140562 C91.1383071,64.4510725 91.5942383,64.411416 92.0571838,64.4837307 C93.3805533,64.6796801 94.493493,65.2605302 95.1925875,66.1119771 C95.8589485,66.9237675 96.1091261,67.9151783 95.9150631,69.2028459 L95.9150631,69.2028459 Z M100.621676,61.6774551 C98.9008279,59.5849952 96.3943754,58.1596964 93.5278541,57.6301664 C93.3150862,54.1240714 92.9363126,50.482678 92.2722898,46.8576137 L100.670776,46.8576137 C100.670776,21.5124891 78.6598211,0.970458053 51.507365,0.970458053 C24.3525709,0.970458053 2.34161584,21.5124891 2.34161584,46.8576137 L10.735426,46.8576137 C10.0737412,50.482678 9.69496762,54.1240714 9.48219973,57.6324991 C6.61567849,58.1596964 4.109226,59.5849952 2.39071612,61.6774551 C0.471128898,64.0171845 -0.32616616,67.0147441 0.122750705,69.9726472 L0.693249222,75.0883268 C1.50223482,80.4302812 5.99140348,84.5242245 11.3199531,84.9301197 C13.8264056,117.005174 47.3922938,117.968592 51.3507118,117.968592 C65.6973466,117.968592 89.5203359,110.891085 91.6784102,84.9301197 C97.0139742,84.52889 101.510157,80.4279485 102.33551,74.9530284 L102.870936,70.1102784 C103.338558,67.0147441 102.541263,64.0171845 100.621676,61.6774551 L100.621676,61.6774551 Z M69.6090024,59.7109626 C65.6225271,60.0911978 61.963387,62.43326 59.5036967,66.086317 L61.4396507,67.3879811 C62.5268712,65.7783965 63.8642694,64.5023925 65.3442922,63.5949601 C65.2531059,63.9402043 65.1969913,64.2994449 65.21102,64.6820128 C65.29753,66.6904944 67.0066874,68.2534243 69.0151228,68.1624478 C71.0329106,68.0761368 72.5947672,66.3709102 72.5082572,64.3600959 C72.4685093,63.4503308 72.0897357,62.6478712 71.5122229,62.0390284 C73.5908015,62.1883232 75.5127268,62.9907827 76.9342969,64.3880887 L78.5733111,62.7295168 C76.2772883,60.471433 73.0109505,59.3703839 69.6090024,59.7109626 L69.6090024,59.7109626 Z M52.04513,85.2823622 C54.9046369,85.2823622 57.2333932,83.1829041 57.2333932,80.6075688 L54.8952845,80.6075688 C54.8952845,81.8975692 53.6163391,82.9496309 52.04513,82.9496309 C50.473921,82.9496309 49.1973137,81.8975692 49.1973137,80.6075688 L46.859205,80.6075688 C46.859205,83.1829041 49.183285,85.2823622 52.04513,85.2823622 L52.04513,85.2823622 Z M41.565727,67.3879811 L43.5016809,66.086317 C41.0396525,62.43326 37.3828505,60.0911978 33.3963753,59.7109626 C29.9944271,59.3703839 26.7234131,60.471433 24.4273904,62.7295168 L26.0710808,64.3880887 C27.4903127,62.9907827 29.4099,62.1883232 31.4908167,62.0390284 C30.9109657,62.6478712 30.5321921,63.4503308 30.4971205,64.3600959 C30.4035961,66.3709102 31.970129,68.0761368 33.9855786,68.1624478 C35.9986902,68.2534243 37.7055095,66.6904944 37.7943577,64.6820128 C37.8060482,64.2994449 37.7522717,63.9402043 37.6610855,63.5949601 C39.1411083,64.5023925 40.4785064,65.7783965 41.565727,67.3879811 L41.565727,67.3879811 Z M52.04513,92.60014 L48.9588266,90.3047325 C44.0815319,91.5294163 40.5018875,94.3916775 40.5018875,94.3916775 C40.5018875,94.3916775 45.6667696,100.447448 52.04513,100.447448 C58.4211524,100.447448 63.5907107,94.3916775 63.5907107,94.3916775 C63.5907107,94.3916775 60.0063901,91.5294163 55.1337716,90.3047325 L52.04513,92.60014 Z" id="avatar-icon-39"></path>
                </g>
            </g>
        </g>
    </g>
</svg>