<?xml version="1.0" encoding="UTF-8" standalone="no"?>
<svg width="103px" height="126px" viewBox="0 0 103 126" version="1.1" xmlns="http://www.w3.org/2000/svg" xmlns:xlink="http://www.w3.org/1999/xlink" xmlns:sketch="http://www.bohemiancoding.com/sketch/ns">
    <!-- Generator: Sketch 3.2.2 (9983) - http://www.bohemiancoding.com/sketch -->
    <title>avatar-icon-25</title>
    <desc>Created with Sketch.</desc>
    <defs></defs>
    <g id="Page-1" stroke="none" stroke-width="1" fill="none" fill-rule="evenodd" sketch:type="MSPage">
        <g id="item-collection-preview" sketch:type="MSArtboardGroup" transform="translate(-184.000000, -1477.000000)" fill="#2F2F2F">
            <g id="avatars" sketch:type="MSLayerGroup" transform="translate(183.000000, 80.000000)">
                <g id="avatar" transform="translate(0.000000, 1397.000000)" sketch:type="MSShapeGroup">
                    <path d="M78.3734932,52.983068 L56.5682936,52.983068 L56.5682936,80.4181341 C56.4838137,81.7355582 54.7684025,82.8314686 52.733845,82.8314686 C50.6453143,82.8314686 48.8806232,81.6819286 48.8806232,80.31787 L48.8735832,80.31787 L48.8735832,52.983068 L26.9416638,52.983068 C22.5487092,52.983068 20.4859918,57.7910831 20.2654054,58.3390383 L24.62316,60.0691776 C24.9634262,59.2250935 25.9936116,57.6465162 26.9416638,57.6465162 L45.8229203,57.6465162 L45.8229203,65.8751707 C42.8262307,62.6923672 38.7242625,61.0811459 34.5213877,61.4798707 C30.9122188,61.815639 27.7583027,63.6437107 26.0851315,66.3648328 L28.0868357,67.5819927 C29.0583545,66.0010838 30.7104057,64.8119045 32.6956833,64.2056562 C32.4258169,64.7792603 32.2920571,65.4204845 32.3601104,66.0966845 C32.5619234,68.0996355 34.3594679,69.5616265 36.375252,69.3610983 C38.3886895,69.1629017 39.857701,67.376801 39.6582346,65.37385 C39.6230347,65.0240914 39.5244748,64.69765 39.4001016,64.3875307 C41.2070327,65.0170962 42.8778573,66.1013479 44.2553489,67.6099734 L45.8229203,66.1992803 L45.8229203,80.7702244 L45.8862802,80.7702244 C45.9191335,81.0896706 45.9754534,81.4021217 46.0740133,81.7005824 C45.8698536,81.7682024 45.6610005,81.8101734 45.4451074,81.8101734 C44.2905489,81.8101734 43.3518834,80.8355127 43.3518834,79.6370065 L40.3012205,79.6370065 C40.3012205,82.5073589 42.607991,84.8437465 45.4451074,84.8437465 C46.2828664,84.8437465 47.0854254,84.6012472 47.8246245,84.2095175 C49.0777429,85.228481 50.8119274,85.8650417 52.733845,85.8650417 C54.653416,85.8650417 56.3899472,85.228481 57.6430656,84.2095175 C58.3775714,84.6012472 59.1848237,84.8437465 60.0225827,84.8437465 C62.8573525,84.8437465 65.1641229,82.5073589 65.1641229,79.6370065 L62.1134601,79.6370065 C62.1134601,80.8355127 61.1747946,81.8101734 60.0225827,81.8101734 C59.8066896,81.8101734 59.5954898,81.7682024 59.3913301,81.7005824 C59.48989,81.4021217 59.5462099,81.0896706 59.5790632,80.7702244 L59.6189565,80.7702244 L59.6189565,80.4437831 C59.6213032,80.401812 59.6353831,80.359841 59.6353831,80.31787 L59.6189565,80.31787 L59.6189565,66.7169231 L60.6139419,67.6099734 C61.9937802,66.0990162 63.6622581,65.0170962 65.4715359,64.3875307 C65.3471627,64.69765 65.2486028,65.0240914 65.2134029,65.37385 C65.0115898,67.376801 66.482948,69.1629017 68.4963855,69.3610983 C70.5121696,69.5616265 72.309714,68.0996355 72.5091805,66.0966845 C72.5772337,65.4204845 72.4434739,64.7792603 72.1759542,64.2056562 C74.1612317,64.8119045 75.8109364,66.0010838 76.7824552,67.5819927 L78.786506,66.3648328 C77.1109881,63.6437107 73.957072,61.815639 70.3479032,61.4798707 C66.3914281,61.1044631 62.5546328,62.5104928 59.6189565,65.3132252 L59.6189565,57.6465162 L78.3734932,57.6465162 C79.323892,57.6465162 80.3540774,59.2250935 80.6943436,60.0691776 L85.0497515,58.3390383 C84.8291652,57.7910831 82.7664477,52.983068 78.3734932,52.983068 M66.3679614,93.1889872 C65.1336163,92.8252382 63.9063112,92.1770189 62.6297261,91.5357948 C61.353141,90.8899072 60.0108493,90.2253658 58.5488778,89.6774106 C57.8167187,89.4022672 57.0563997,89.1597679 56.2608807,88.9685665 C55.5263749,88.7773651 54.4891495,88.6304665 53.857897,88.5511879 L53.808617,93.5923754 C54.6041361,93.5014382 54.9913356,93.4478086 55.6718681,93.4361499 C56.2913873,93.4221596 56.9296798,93.4594672 57.5820524,93.5294189 C58.8867974,93.6669906 60.2384757,93.951461 61.6417806,94.2662437 C63.0474322,94.5693679 64.5070571,94.9377803 66.1004418,95.0030685 C67.6703598,95.1103279 69.4679042,94.5786948 70.4980896,93.4011741 L70.0029436,92.8229065 C68.862465,93.5597313 67.5929199,93.5667265 66.3679614,93.1889872 M90.6418513,77.3985513 L86.8167894,77.3962196 L86.8167894,98.6358947 C86.8167894,109.818844 77.6601074,118.917231 66.4055081,118.917231 L54.9608289,118.917231 L54.9608289,108.300891 L50.2675014,108.300891 L50.2675014,118.917231 L38.9119956,118.917231 C27.6573962,118.917231 18.5007143,109.818844 18.5007143,98.6358947 L18.5007143,77.3962196 L14.9807186,77.3962196 L14.706159,77.3985513 C11.1861633,77.2703065 8.35843352,73.9732486 8.35843352,69.9370341 C8.35843352,65.91481 11.1697367,62.6224155 14.6756523,62.4778486 L18.5007143,62.4801803 L18.5007143,41.5179804 C24.6912132,41.0236549 31.9377109,39.7994997 39.2522618,37.1366707 C40.129914,36.8172245 40.9770597,36.4674659 41.8265519,36.120039 C40.172154,39.8368073 39.5338614,42.6511983 39.5338614,42.6511983 C39.5338614,42.6511983 51.3258468,41.8840611 61.9984735,35.0101383 C69.169878,30.3933246 73.9993119,24.2049287 76.406989,20.6327273 C82.6115679,24.1163232 86.8167894,30.7220977 86.8167894,38.2932059 L86.8167894,62.4801803 L90.6113446,62.4778486 C94.1313403,62.6060934 96.9590701,65.9031514 96.9590701,69.9370341 C96.9590701,73.96159 94.1477669,77.2539845 90.6418513,77.3985513 M93.8567806,55.9513528 L93.8567806,38.2932059 C93.8567806,25.7928328 85.3383912,15.2534398 73.7763789,12.0426556 C67.9167595,7.64502391 56.8991732,0.913336343 44.2412689,0.913336343 C25.4538789,0.913336343 10.2240312,15.7687508 10.2240312,15.7687508 C10.2240312,15.7687508 13.5187471,17.5851639 18.8902604,19.5321535 C7.09827509,28.4953011 0.999296001,41.1752169 0.999296001,41.1752169 C0.999296001,41.1752169 5.12707754,41.8164411 11.460723,41.8024507 L11.460723,55.9513528 C5.62926358,57.5812279 1.31844227,63.2333272 1.31844227,69.9370341 C1.31844227,76.640741 5.62926358,82.295172 11.460723,83.9250472 L11.460723,98.6358947 C11.460723,113.675515 23.7760144,125.912404 38.9119956,125.912404 L66.4055081,125.912404 C81.5414892,125.912404 93.8567806,113.675515 93.8567806,98.6358947 L93.8567806,83.9250472 C99.68824,82.295172 103.999061,76.640741 103.999061,69.9370341 C103.999061,63.2333272 99.68824,57.5812279 93.8567806,55.9513528 M47.7354513,93.5294189 C48.3878238,93.4594672 49.0261163,93.4221596 49.6456355,93.4361499 C50.326168,93.4478086 50.7133676,93.5014382 51.5088866,93.5923754 L51.4596066,88.5511879 C50.8283541,88.6304665 49.7911287,88.7773651 49.0566229,88.9685665 C48.2611039,89.1597679 47.5007849,89.4022672 46.7686258,89.6774106 C45.3066543,90.2253658 43.9643626,90.8899072 42.6877775,91.5357948 C41.4111924,92.1770189 40.1838873,92.8252382 38.9495422,93.1889872 C37.7245837,93.5667265 36.4550386,93.5597313 35.31456,92.8229065 L34.819414,93.4011741 C35.8495994,94.5786948 37.6471438,95.1103279 39.2170618,95.0030685 C40.8104465,94.9377803 42.2700714,94.5693679 43.675723,94.2662437 C45.0790279,93.951461 46.4307062,93.6669906 47.7354513,93.5294189 M52.3466455,98.9180334 C48.1578507,98.9180334 44.177909,98.0576272 42.2067115,96.7262127 L39.5667147,100.582884 C42.3475113,102.462254 47.1253187,103.581482 52.3466455,103.581482 C57.9809852,103.581482 62.9559123,102.315355 65.6569223,100.19815 L62.7494059,96.537343 C61.2381545,97.7241906 57.4365592,98.9180334 52.3466455,98.9180334" id="avatar-icon-25"></path>
                </g>
            </g>
        </g>
    </g>
</svg>