<?xml version="1.0" encoding="UTF-8" standalone="no"?>
<svg width="103px" height="121px" viewBox="0 0 103 121" version="1.1" xmlns="http://www.w3.org/2000/svg" xmlns:xlink="http://www.w3.org/1999/xlink" xmlns:sketch="http://www.bohemiancoding.com/sketch/ns">
    <!-- Generator: Sketch 3.2.2 (9983) - http://www.bohemiancoding.com/sketch -->
    <title>avatar-icon-13</title>
    <desc>Created with Sketch.</desc>
    <defs></defs>
    <g id="Page-1" stroke="none" stroke-width="1" fill="none" fill-rule="evenodd" sketch:type="MSPage">
        <g id="item-collection-preview" sketch:type="MSArtboardGroup" transform="translate(-183.000000, -788.000000)" fill="#2F2F2F">
            <g id="avatars" sketch:type="MSLayerGroup" transform="translate(183.000000, 80.000000)">
                <g id="avatar" transform="translate(0.000000, 708.000000)" sketch:type="MSShapeGroup">
                    <path d="M69.2429062,56.6188379 C64.9352329,56.2145206 60.7570252,57.8782633 57.7345921,61.1685701 L59.4812006,62.7300717 C60.8605977,61.2220144 62.5389425,60.1461584 64.3514608,59.5164457 C64.226703,59.8278166 64.1278384,60.1531294 64.0925296,60.5016788 C63.8924464,62.4953817 65.3683542,64.2776313 67.3856635,64.4751426 C69.4076806,64.6749776 71.2107832,63.2180409 71.4132203,61.2196907 C71.481484,60.5458284 71.3473106,59.9068211 71.0766098,59.3352 C73.068026,59.9416761 74.7228317,61.1244205 75.6973545,62.6998641 L77.707602,61.4892356 C76.0292572,58.7775209 72.8655889,56.9557691 69.2429062,56.6188379 L69.2429062,56.6188379 Z M77.2933121,48.1514099 L57.2849934,48.1514099 L57.2849934,52.7987359 L77.2933121,52.7987359 C78.2466497,52.7987359 79.2800205,54.3718558 79.6213389,55.2153455 L83.992568,53.4888638 C83.7712995,52.942803 81.702204,48.1514099 77.2933121,48.1514099 L77.2933121,48.1514099 Z M89.5996051,72.4824854 L85.7650697,72.4801617 L85.7650697,93.6487319 C85.7650697,104.790696 76.5800744,113.859953 65.2883209,113.859953 L53.8082538,113.859953 L53.8082538,103.277991 L51.5743839,103.277991 L49.1004141,103.277991 L49.1004141,113.859953 L37.709796,113.859953 C26.4203964,113.859953 17.2354011,104.790696 17.2354011,93.6487319 L17.2354011,72.4801617 L13.7045214,72.4801617 L13.4291127,72.4824854 C9.89823296,72.3546839 7.06175954,69.0690244 7.06175954,65.0490874 C7.06175954,61.038445 9.88410944,57.7574328 13.4008657,57.6156894 L17.2354011,57.618013 L17.2354011,33.5146565 C17.2354011,27.7333829 19.7187866,22.5260541 23.6733719,18.8384009 C29.9183213,21.2248028 39.6376563,24.0666427 50.5857375,24.0666427 C62.3035505,24.0666427 72.6301969,20.8088671 78.7762816,18.3434606 C83.0486462,22.0520268 85.7650697,27.470809 85.7650697,33.5146565 L85.7650697,57.618013 L89.5713581,57.6156894 C93.1022378,57.7411672 95.9387112,61.0268267 95.9387112,65.0490874 C95.9387112,69.0597298 93.1187153,72.3407419 89.5996051,72.4824854 L89.5996051,72.4824854 Z M92.8268292,51.1117566 L92.8268292,33.5146565 C92.8268292,21.3967538 86.0946184,0.830012432 50.5857375,0.830012432 C15.0768566,0.830012432 10.1736416,26.7620918 10.1736416,33.5146565 L10.1736416,51.1117566 C4.32650468,52.7336734 0,58.3685562 0,65.0490874 C0,71.7296186 4.32650468,77.3645014 10.1736416,78.9864182 L10.1736416,93.6487319 C10.1736416,108.636358 22.5270129,120.830942 37.709796,120.830942 L65.2883209,120.830942 C80.4734578,120.830942 92.8268292,108.636358 92.8268292,93.6487319 L92.8268292,78.9864182 C98.6739661,77.3645014 103.000471,71.7296186 103.000471,65.0490874 C103.000471,58.3685562 98.6739661,52.7336734 92.8268292,51.1117566 L92.8268292,51.1117566 Z M51.5743839,91.6364397 C44.8704201,91.6364397 39.2727987,93.6162006 37.9381262,96.2489108 L65.2106415,96.2489108 C63.875969,93.6162006 58.2783476,91.6364397 51.5743839,91.6364397 L51.5743839,91.6364397 Z M44.8939593,81.9607069 C44.6915222,82.0280931 44.4796694,82.069919 44.2631088,82.069919 C43.1049803,82.069919 42.1657662,81.0986279 42.1657662,79.9042651 L39.1056704,79.9042651 C39.1056704,82.7646943 41.4195736,85.0930046 44.2631088,85.0930046 C45.1034582,85.0930046 45.9108527,84.84902 46.6499835,84.4586446 C47.9069767,85.476409 49.6488774,86.1084454 51.5743839,86.1084454 C53.4998903,86.1084454 55.241791,85.476409 56.4987842,84.4586446 C57.237915,84.84902 58.0453095,85.0930046 58.8856589,85.0930046 C61.731548,85.0930046 64.0430973,82.7646943 64.0430973,79.9042651 L60.9853554,79.9042651 C60.9853554,81.0986279 60.0437875,82.069919 58.8856589,82.069919 C58.6690983,82.069919 58.4572455,82.0280931 58.2548084,81.9607069 C58.3983975,81.5168872 58.4996161,81.0614493 58.4996161,80.5827747 L55.4395203,80.5827747 C55.4395203,81.9397939 53.6693725,83.0876834 51.5743839,83.0876834 C49.4793952,83.0876834 47.7092475,81.9397939 47.7092475,80.5827747 L44.6491517,80.5827747 C44.6491517,81.0614493 44.7503702,81.5168872 44.8939593,81.9607069 L44.8939593,81.9607069 Z M38.1994113,59.5164457 C40.0142835,60.1461584 41.6879205,61.224338 43.0720254,62.7300717 L44.81628,61.1685701 C41.7962008,57.8782633 37.5991617,56.2145206 33.3079658,56.6188379 C29.6876371,56.9557691 26.5239688,58.7775209 24.8432701,61.4892356 L26.8535176,62.6998641 C27.8280404,61.1244205 29.4828461,59.9416761 31.4742623,59.3352 C31.2059154,59.9068211 31.071742,60.5458284 31.1376517,61.2196907 C31.3400889,63.2180409 33.1431915,64.6749776 35.1652086,64.4751426 C37.1848718,64.2776313 38.6607796,62.4953817 38.4583425,60.5016788 C38.4230337,60.1531294 38.324169,59.8278166 38.1994113,59.5164457 L38.1994113,59.5164457 Z M65.2106415,98.6701677 L37.9357723,98.6701677 C39.2727987,101.300554 44.8680662,103.277991 51.5743839,103.277991 C58.2807015,103.277991 63.875969,101.300554 65.2106415,98.6701677 L65.2106415,98.6701677 Z M45.7131234,52.7987359 L45.7131234,48.1514099 L25.7048047,48.1514099 C21.2982668,48.1514099 19.2268173,52.942803 19.0079028,53.4888638 L23.376778,55.2153455 C23.7180964,54.3718558 24.7514672,52.7987359 25.7048047,52.7987359 L45.7131234,52.7987359 Z" id="avatar-icon-13"></path>
                </g>
            </g>
        </g>
    </g>
</svg>