<?xml version="1.0" encoding="UTF-8" standalone="no"?>
<svg width="103px" height="132px" viewBox="0 0 103 132" version="1.1" xmlns="http://www.w3.org/2000/svg" xmlns:xlink="http://www.w3.org/1999/xlink" xmlns:sketch="http://www.bohemiancoding.com/sketch/ns">
    <!-- Generator: Sketch 3.2.2 (9983) - http://www.bohemiancoding.com/sketch -->
    <title>avatar-icon-47</title>
    <desc>Created with Sketch.</desc>
    <defs></defs>
    <g id="Page-1" stroke="none" stroke-width="1" fill="none" fill-rule="evenodd" sketch:type="MSPage">
        <g id="item-collection-preview" sketch:type="MSArtboardGroup" transform="translate(-644.000000, -2627.000000)" fill="#2F2F2F">
            <g id="avatars" sketch:type="MSLayerGroup" transform="translate(183.000000, 80.000000)">
                <g id="avatar" transform="translate(460.000000, 2547.000000)" sketch:type="MSShapeGroup">
                    <path d="M52.7663019,99.3323048 L49.3352606,97.6363529 C43.9183177,99.0071499 38.4827278,99.5872824 38.4827278,99.5872824 C38.4827278,99.5872824 45.6781249,108.977008 52.7663019,108.977008 C59.854479,108.977008 67.0498761,99.5872824 67.0498761,99.5872824 C67.0498761,99.5872824 61.6166171,99.0071499 56.1996741,97.6363529 L52.7663019,99.3323048 Z M52.316444,90.8034214 C55.1670985,90.8034214 57.4863146,88.6981018 57.4863146,86.1155765 L55.1554442,86.1155765 C55.1554442,87.4091784 53.8827889,88.4641774 52.316444,88.4641774 C50.750099,88.4641774 49.4751129,87.4091784 49.4751129,86.1155765 L47.1442424,86.1155765 C47.1442424,88.6981018 49.4634585,90.8034214 52.316444,90.8034214 L52.316444,90.8034214 Z M96.6822322,68.9502045 L96.6472691,69.3151265 C96.6402765,69.434428 95.9270302,81.1563794 89.4518721,81.1891288 L85.9718825,81.2055035 L85.9718825,84.6979947 C85.9718825,105.739494 57.6121816,124.121273 52.568178,124.320109 C47.5195126,124.121273 19.1411648,105.739494 19.1411648,84.6979947 L19.1411648,81.2055035 L15.6611752,81.1891288 C9.23729619,81.1587186 8.47277068,69.425071 8.46577807,69.3151265 L8.43081501,68.9502045 C8.25599973,67.8016357 8.50773374,66.8051178 9.16970095,65.9910609 C9.86896208,65.1348976 10.9761256,64.5547651 12.2977291,64.3559294 C12.4678826,64.3301977 12.6333744,64.3185015 12.8011971,64.3185015 C13.0902251,64.3185015 13.3722604,64.3489116 13.649634,64.3886788 L14.6542391,64.5407296 C15.1530454,74.7515294 22.5768678,85.3459653 34.3524253,85.3459653 C42.9113817,85.3459653 50.1091096,79.4604275 52.1905769,71.5140158 C54.2720443,79.4604275 61.4697722,85.3459653 70.0287285,85.3459653 C81.7623304,85.3459653 89.1744985,74.8287245 89.7199222,64.6506741 L91.4634133,64.3886788 C91.9016169,64.3255192 92.349144,64.2904305 92.817649,64.3559294 C94.1369217,64.5547651 95.246416,65.1348976 95.9433463,65.9910609 C96.6076443,66.8051178 96.8570475,67.8016357 96.6822322,68.9502045 L96.6822322,68.9502045 Z M18.434911,51.5485688 L35.9980199,51.5485688 L35.9980199,32.2287531 L55.2440172,51.5485688 L86.6781362,51.5485688 C87.0673916,54.4749629 87.3261182,57.6095498 87.4473235,60.9827396 L17.6633929,60.9827396 C17.7822673,57.6095498 18.0456556,54.4749629 18.434911,51.5485688 L18.434911,51.5485688 Z M103.623564,69.808707 C103.891615,67.8250281 110.795653,-0.434110105 51.6591385,0.344858128 C-7.47737585,1.12382636 1.48482105,69.703441 1.48482105,69.703441 C1.48482105,69.703441 1.48482105,69.7712791 1.4894828,69.808707 C1.76918725,75.1468617 3.85065457,83.214914 9.60091198,86.6114962 C10.9901108,88.2723594 11.8362167,90.4010714 11.8362167,92.7403154 C11.8362167,97.2737701 8.71051947,101.04931 4.50796004,102.085595 C6.13723848,103.355804 8.1557723,104.14413 10.3794227,104.14413 C12.8291676,104.14413 15.0388328,103.194397 16.7380373,101.683245 C25.9799387,119.010025 46.4939296,131.33784 52.568178,131.33784 C58.5328755,131.33784 78.4245239,119.449803 87.8808654,102.604907 C89.6127021,104.275127 91.9505652,105.313752 94.5378314,105.313752 C96.7614818,105.313752 98.7800156,104.525426 100.409294,103.255217 C96.2090655,102.218932 93.0810374,98.4433921 93.0810374,93.9099373 C93.0810374,90.8104391 94.563471,88.0828807 96.8220844,86.3190907 C96.6006517,86.2629489 96.3698956,86.225521 96.1391394,86.1857538 C101.406907,82.5856574 103.353183,74.9433474 103.623564,69.808707 L103.623564,69.808707 Z" id="avatar-icon-47"></path>
                </g>
            </g>
        </g>
    </g>
</svg>