<?xml version="1.0" encoding="UTF-8" standalone="no"?>
<svg width="103px" height="131px" viewBox="0 0 103 131" version="1.1" xmlns="http://www.w3.org/2000/svg" xmlns:xlink="http://www.w3.org/1999/xlink" xmlns:sketch="http://www.bohemiancoding.com/sketch/ns">
    <!-- Generator: Sketch 3.2.2 (9983) - http://www.bohemiancoding.com/sketch -->
    <title>avatar-icon-09</title>
    <desc>Created with Sketch.</desc>
    <defs></defs>
    <g id="Page-1" stroke="none" stroke-width="1" fill="none" fill-rule="evenodd" sketch:type="MSPage">
        <g id="item-collection-preview" sketch:type="MSArtboardGroup" transform="translate(-183.000000, -552.000000)" fill="#2F2F2F">
            <g id="avatars" sketch:type="MSLayerGroup" transform="translate(183.000000, 80.000000)">
                <g id="avatar" transform="translate(0.000000, 472.000000)" sketch:type="MSShapeGroup">
                    <path d="M66.3065781,63.5642912 C63.0416241,63.8710789 60.2568796,65.1520932 58.6561812,67.0771275 L60.4710908,68.5689119 C61.3232273,67.5431638 62.7473781,66.7469209 64.4398813,66.2855684 C64.3622003,66.6204588 64.3245368,66.9670586 64.3622003,67.323026 C64.5411019,69.1215982 66.1512162,70.4307152 67.9520019,70.2503896 C69.7551416,70.0724059 71.0686559,68.4728944 70.8897543,66.679006 C70.8709225,66.5244412 70.835613,66.3769021 70.7979495,66.2317049 C72.3421527,66.6204588 73.7639495,67.2785301 74.9079781,68.2293378 L76.4168718,66.4284237 C73.7874892,64.2598328 70.1176527,63.2130076 66.3065781,63.5642912 L66.3065781,63.5642912 Z M67.5471194,74.01615 C69.7316019,74.01615 71.7324749,73.2199072 72.8129464,71.8662942 L70.9721432,70.4072963 C70.3530495,71.184804 68.8206162,71.870978 66.7891416,71.6274214 C65.5886178,71.4962755 64.4728368,71.0513162 63.717213,70.41198 L62.1871336,72.1918171 C63.3099765,73.1426248 64.8494717,73.7679096 66.5231432,73.9576028 C66.8668225,73.9974149 67.2128559,74.01615 67.5471194,74.01615 L67.5471194,74.01615 Z M89.601448,77.3814472 L85.4278623,77.3767634 L85.7809575,81.2104387 C85.7903734,81.3439265 86.9861893,94.4889598 86.9861893,102.430312 C86.8896766,105.612941 74.0440718,115.373942 59.8284574,123.118575 L53.8564399,123.118575 L53.8564399,111.842371 L49.1485034,111.842371 L49.1485034,123.060028 L42.4961891,122.875019 C28.4641843,115.245138 15.8257286,105.594206 15.7786493,102.430312 C15.7786493,94.5217463 17.2004461,81.4024738 17.2145699,81.2713279 L17.6406382,77.3767634 L13.429389,77.3814472 C9.89843655,77.2549851 7.06190479,73.9435514 7.06190479,69.8897384 C7.06190479,65.8476348 9.88431274,62.538543 13.4011413,62.3980296 L17.2357556,62.3980296 L17.2357556,54.8735343 L17.6123906,54.8735343 C31.5855462,54.8735343 17.6123906,54.8594829 17.6123906,54.8594829 C34.7257398,54.4426264 40.9684637,52.6862082 51.0199082,46.5855826 C58.3901828,42.1125711 60.1744908,37.5693029 59.8002098,36.257844 L67.4506067,48.9813369 L70.3389257,40.1079125 L85.7644798,52.2576422 L85.7644798,62.3980296 L89.5708464,62.3980296 C93.1017988,62.5268336 95.9383306,65.8382672 95.9383306,69.8897384 C95.9383306,73.9295001 93.1206306,77.2362499 89.601448,77.3814472 L89.601448,77.3814472 Z M103.000235,69.8897384 C103.000235,63.1568022 98.6736417,57.475375 92.8263846,55.8430771 L92.8263846,54.8735343 L94.0245544,54.8735343 L94.0245544,36.9674369 C94.0245544,22.7053217 83.1209734,10.9256107 69.1713575,9.44085194 C70.9768511,4.37300016 74.5407591,0.967890875 74.5407591,0.967890875 C74.5407591,0.967890875 65.9111114,1.77350132 52.0862558,5.54862936 C52.0862558,2.5463253 53.1384796,0.145887189 53.1384796,0.145887189 C53.1384796,0.145887189 47.7219986,3.01470347 39.9350716,9.26521013 C39.9256557,9.26989391 39.9162399,9.27457769 39.906824,9.27457769 L38.3108335,9.27457769 C23.8763001,9.27457769 11.9769905,20.2674133 10.6116889,34.2766043 C10.3527524,35.5201484 10.1738508,36.7871113 10.1738508,38.1055959 L10.1738508,55.8430771 C4.32659367,57.475375 0,63.1568022 0,69.8897384 C0,76.4985543 4.17123177,82.0933316 9.85841909,83.8403821 C9.420581,88.3836504 8.71674448,96.5943197 8.71674448,102.430312 C8.71674448,104.826066 10.1785588,107.446642 12.4878016,110.104688 C13.6412461,111.430198 15.0065477,112.767418 16.5201493,114.092928 C23.7185842,120.392614 34.1278319,126.36912 39.8738684,129.455732 L40.6106605,129.84917 L51.0646336,130.141906 L51.1164209,130.14659 L61.6221812,130.141906 L62.4036987,129.720366 C68.4039638,126.497924 79.4134734,120.181844 86.7343147,113.622208 C88.2643941,112.254544 89.6108639,110.872828 90.7431226,109.509848 C92.7698893,107.04852 94.0480941,104.638715 94.0480941,102.430312 C94.0480941,96.5966615 93.4548941,88.3836504 93.092383,83.8591173 C98.8078179,82.126118 103.000235,76.5172895 103.000235,69.8897384 L103.000235,69.8897384 Z M76.6051892,57.1521941 C71.951394,57.1521941 57.561586,59.8125821 56.9542622,59.9226509 L57.8205225,64.5291502 C61.8552241,63.7797452 73.1024845,61.8359758 76.6051892,61.8359758 C78.1446845,61.8359758 79.36404,63.718856 79.6724099,64.3792692 L83.9472163,62.4167647 C83.6953417,61.8757879 81.3625591,57.1521941 76.6051892,57.1521941 L76.6051892,57.1521941 Z M62.4719638,91.200945 L55.2005558,91.200945 C58.5573146,89.9011956 60.9183447,86.8965497 60.9183447,83.3977648 L56.2104082,83.3977648 C56.2104082,85.496099 54.0941907,87.2033374 51.5024717,87.2033374 C48.9036907,87.2033374 46.7945351,85.496099 46.7945351,83.3977648 L42.0865986,83.3977648 C42.0865986,86.8965497 44.4429208,89.9011956 47.8020336,91.200945 L40.5282716,91.200945 C33.4381192,91.200945 27.668543,96.2781644 27.668543,102.526329 L34.7304478,102.526329 C34.7304478,100.193806 37.388078,98.2266176 40.5282716,98.2266176 L62.4719638,98.2266176 C65.6168654,98.2266176 68.2697876,100.193806 68.2697876,102.526329 L75.3316924,102.526329 C75.3316924,96.2781644 69.5621162,91.200945 62.4719638,91.200945 L62.4719638,91.200945 Z M32.2022859,66.2317049 C32.1693303,66.3769021 32.1269589,66.5244412 32.115189,66.679006 C31.9339335,68.4728944 33.2498017,70.0724059 35.0529414,70.2503896 C36.8537272,70.4307152 38.4591335,69.1215982 38.6380351,67.323026 C38.6756986,66.9670586 38.6380351,66.6204588 38.5650621,66.2855684 C40.2575653,66.7469209 41.6770081,67.5431638 42.5267907,68.5689119 L44.3440542,67.0771275 C42.7433558,65.1520932 39.9586113,63.8710789 36.6936573,63.5642912 C32.8825827,63.2130076 29.2127462,64.2598328 26.5833636,66.4284237 L28.0922573,68.2293378 C29.2409938,67.2785301 30.6557287,66.6204588 32.2022859,66.2317049 L32.2022859,66.2317049 Z M46.0506812,59.9226509 C45.4386494,59.8125821 31.0464874,57.1521941 26.3950462,57.1521941 C21.6353223,57.1521941 19.3048937,61.8757879 19.0577271,62.4167647 L23.3325334,64.3792692 C23.6361953,63.718856 24.8602588,61.8359758 26.3950462,61.8359758 C29.8977509,61.8359758 41.1450113,63.7797452 45.1844208,64.5291502 L46.0506812,59.9226509 Z M51.3000304,101.748821 C47.098197,101.748821 43.1082208,100.884664 41.1308875,99.5427602 L38.4826732,103.41859 C41.2721256,105.306154 46.062451,106.432603 51.3000304,106.432603 C56.9495542,106.432603 61.9423209,105.160956 64.6517384,103.034519 L61.7375257,99.355409 C60.2192162,100.54509 56.4081415,101.748821 51.3000304,101.748821 L51.3000304,101.748821 Z M32.0304462,70.4072963 L30.187289,71.8662942 C31.2724684,73.2199072 33.2686335,74.01615 35.453116,74.01615 C35.7920875,74.01615 36.1334129,73.9974149 36.4770922,73.9576028 C38.1507637,73.7679096 39.6902589,73.1426248 40.8131018,72.1918171 L39.2853764,70.41198 C38.5273986,71.0513162 37.4116176,71.4962755 36.2158018,71.6274214 C34.1796192,71.870978 32.6471859,71.184804 32.0304462,70.4072963 L32.0304462,70.4072963 Z" id="avatar-icon-09"></path>
                </g>
            </g>
        </g>
    </g>
</svg>