<?xml version="1.0" encoding="UTF-8" standalone="no"?>
<svg width="103px" height="148px" viewBox="0 0 103 148" version="1.1" xmlns="http://www.w3.org/2000/svg" xmlns:xlink="http://www.w3.org/1999/xlink" xmlns:sketch="http://www.bohemiancoding.com/sketch/ns">
    <!-- Generator: Sketch 3.2.2 (9983) - http://www.bohemiancoding.com/sketch -->
    <title>avatar-icon-48</title>
    <desc>Created with Sketch.</desc>
    <defs></defs>
    <g id="Page-1" stroke="none" stroke-width="1" fill="none" fill-rule="evenodd" sketch:type="MSPage">
        <g id="item-collection-preview" sketch:type="MSArtboardGroup" transform="translate(-874.000000, -2619.000000)" fill="#2F2F2F">
            <g id="avatars" sketch:type="MSLayerGroup" transform="translate(183.000000, 80.000000)">
                <g id="avatar" transform="translate(690.000000, 2539.000000)" sketch:type="MSShapeGroup">
                    <path d="M96.9149827,95.5402521 L96.3795497,100.416528 C96.0077862,102.896946 93.7023849,104.703236 91.1187455,104.310973 C90.868565,104.275739 90.6347515,104.193529 90.4056142,104.116016 L86.8984114,102.981506 L85.9421141,106.556503 C80.4498345,127.118604 64.2184999,140.932371 52.5044425,140.932371 C40.790385,140.932371 24.5590504,127.118604 19.0667708,106.556503 L18.1104735,102.981506 L14.6032707,104.116016 C14.3694571,104.193529 14.1403199,104.275739 13.8878013,104.310973 C11.3485864,104.705585 8.99876056,102.885202 8.64804028,100.555112 L8.07753529,95.3993193 C7.90217515,94.2460189 8.15235561,93.2453957 8.81638601,92.4303341 C9.51782658,91.5706438 10.6307789,90.9881214 11.9518253,90.7884665 C12.4288049,90.7180001 12.8753887,90.7555822 13.31262,90.8213508 L17.1962626,91.4038733 L17.3365507,87.4624515 C17.5797168,80.5379512 18.3887116,74.5929342 19.7822402,69.5193519 C26.7943077,74.9922439 40.9867884,80.9231676 56.23143,80.3876228 C76.0050395,79.694703 76.0050395,77.4256843 76.0050395,77.4256843 L59.621726,64.9413834 C59.621726,64.9413834 70.3561048,60.4009971 79.956488,67.2104022 C82.3109901,68.8804564 84.4293406,70.797143 86.1291649,73.2869565 C86.9755699,77.4797085 87.4876215,82.1868654 87.6723342,87.4624515 L87.8102842,91.4038733 L91.6962649,90.8213508 C92.1381724,90.7579311 92.5941088,90.720349 93.0570596,90.7884665 C94.3804441,90.9881214 95.4933965,91.5706438 96.1924989,92.4303341 C96.8588674,93.2453957 97.1090479,94.2460189 96.9149827,95.5402521 L96.9149827,95.5402521 Z M101.621649,87.9651119 C101.574886,87.9087388 101.514095,87.8641101 101.467332,87.8100858 C101.710498,85.8605148 101.839095,83.8733618 101.839095,81.8580221 C101.839095,60.4832079 88.3457171,42.3240113 69.4676134,35.3689756 C72.1962172,31.7681415 73.83525,27.2864772 73.83525,22.4125497 C73.83525,10.57654 64.2816295,0.97901347 52.4997662,0.97901347 C40.7179029,0.97901347 31.1642824,10.57654 31.1642824,22.4125497 C31.1642824,27.288826 32.8033152,31.7704904 35.5342571,35.3713245 C16.6608297,42.3287091 3.16978948,60.4855568 3.16978948,81.8580221 C3.16978948,83.8733618 3.30072505,85.8605148 3.54389111,87.8100858 C3.49712841,87.8641101 3.43633689,87.9087388 3.38957419,87.9651119 C1.46996518,90.3210393 0.67266107,93.3370021 1.12158303,96.3153828 L1.69208802,101.466478 C2.54550738,107.136676 7.48598708,111.40929 13.1840226,111.411639 C19.8032834,131.835157 36.9254475,147.979013 52.5044425,147.979013 C68.0834374,147.979013 85.2056015,131.835157 91.8225242,111.411639 C97.525236,111.411639 102.465716,107.136676 103.335502,101.330243 L103.870935,96.4563156 C104.338562,93.3370021 103.541258,90.3210393 101.621649,87.9651119 L101.621649,87.9651119 Z M71.4971148,95.2842242 L61.1625571,95.2842242 L61.1625571,98.2978381 L71.4971148,98.2978381 C75.4509014,98.2978381 77.6955112,93.7832894 77.7890366,93.6188677 L76.4165513,92.4679162 C76.3931699,92.491405 74.0690635,95.2842242 71.4971148,95.2842242 L71.4971148,95.2842242 Z M72.175174,83.8005465 C66.6361317,83.4717032 61.022269,86.2880111 58.1463627,87.9815541 L59.3411498,89.9992426 C61.4665147,88.7566847 66.9400893,85.8440727 72.0348859,86.1235895 C78.4437145,86.4994104 80.5246548,90.4220411 80.5947989,90.562974 L82.6967825,89.5318153 C82.5822138,89.3204161 79.9868837,84.2468338 72.175174,83.8005465 L72.175174,83.8005465 Z M52.1864561,131.600268 C60.0659717,131.600268 67.2206655,125.984095 71.4035894,120.842395 L32.9646465,120.842395 C37.175628,126.031072 44.3069404,131.600268 52.1864561,131.600268 L52.1864561,131.600268 Z M43.815932,98.2978381 L43.815932,95.2842242 L33.5024176,95.2842242 C30.9094256,95.2842242 28.6110387,92.491405 28.5853192,92.4679162 L27.2128339,93.6188677 C27.3063593,93.7832894 29.5509691,98.2978381 33.5024176,98.2978381 L43.815932,98.2978381 Z M52.4904136,113.135717 C55.3639818,113.135717 57.6810738,111.024074 57.6810738,108.414467 L55.3429386,108.414467 C55.3429386,109.732189 54.0546261,110.786837 52.4904136,110.786837 C50.9238631,110.786837 49.6378887,109.732189 49.6378887,108.414467 L47.2997535,108.414467 C47.2997535,111.024074 49.6378887,113.135717 52.4904136,113.135717 L52.4904136,113.135717 Z M45.6396775,89.9992426 L46.8321264,87.9815541 C43.9772633,86.2880111 38.3446956,83.495192 32.8243584,83.8005465 C24.9939435,84.2468338 22.3962753,89.3204161 22.3027499,89.5318153 L24.3836903,90.5864628 C24.4795538,90.4220411 26.5604941,86.4994104 32.9646465,86.1235895 C38.0641194,85.8652126 43.5330176,88.7566847 45.6396775,89.9992426 L45.6396775,89.9992426 Z" id="avatar-icon-48"></path>
                </g>
            </g>
        </g>
    </g>
</svg>