<?xml version="1.0" encoding="UTF-8" standalone="no"?>
<svg width="103px" height="151px" viewBox="0 0 103 151" version="1.1" xmlns="http://www.w3.org/2000/svg" xmlns:xlink="http://www.w3.org/1999/xlink" xmlns:sketch="http://www.bohemiancoding.com/sketch/ns">
    <!-- Generator: Sketch 3.2.2 (9983) - http://www.bohemiancoding.com/sketch -->
    <title>avatar-icon-04</title>
    <desc>Created with Sketch.</desc>
    <defs></defs>
    <g id="Page-1" stroke="none" stroke-width="1" fill="none" fill-rule="evenodd" sketch:type="MSPage">
        <g id="item-collection-preview" sketch:type="MSArtboardGroup" transform="translate(-874.000000, -80.000000)" fill="#2F2F2F">
            <g id="avatars" sketch:type="MSLayerGroup" transform="translate(183.000000, 80.000000)">
                <g id="avatar" transform="translate(690.000000, 0.000000)" sketch:type="MSShapeGroup">
                    <path d="M52.1941003,111.72555 C55.0654289,111.72555 57.3995563,109.63704 57.3995563,107.069961 L55.0536996,107.069961 C55.0536996,108.356985 53.770516,109.402402 52.1941003,109.402402 C50.6176846,109.402402 49.3345009,108.356985 49.3345009,107.069961 L46.9886442,107.069961 C46.9886442,109.63704 49.3227717,111.72555 52.1941003,111.72555 L52.1941003,111.72555 Z M96.9084751,89.0469753 L96.8732873,89.4093864 C96.8662497,89.527867 96.1484176,101.171487 89.6316276,101.201688 L86.1292635,101.21795 L86.1292635,104.68641 C86.1292635,125.58313 57.5872249,143.83843 52.5107909,144.035898 C47.4296653,143.83843 18.8688598,125.58313 18.8688598,104.68641 L18.8688598,101.21795 L15.3664957,101.201688 C8.90131459,101.17381 8.13187359,89.5185744 8.12483602,89.4093864 L8.09199402,89.0469753 C7.91605477,87.9063094 8.16706144,86.9166482 8.83328475,86.1081926 C9.53704176,85.2579202 10.6536696,84.6817794 11.9814245,84.4843118 C12.152672,84.4587572 12.3192278,84.4471415 12.4904754,84.4471415 C12.7790157,84.4471415 13.0628644,84.4773424 13.3420214,84.5191591 L14.6815055,84.7166267 C14.756573,95.1336241 22.3336901,106.307968 34.5485661,106.307968 C43.1602061,106.307968 50.4042116,100.460603 52.5014075,92.5711914 C54.5939117,100.460603 61.8379172,106.307968 70.4519031,106.307968 C82.666779,106.307968 90.2438962,95.1336241 90.3189636,84.7166267 L91.656102,84.5191591 C92.097123,84.4541109 92.5498734,84.4192637 93.0190447,84.4843118 C94.3467996,84.6817794 95.4634274,85.2579202 96.1671844,86.1081926 C96.8334077,86.9166482 97.0844144,87.9063094 96.9084751,89.0469753 L96.9084751,89.0469753 Z M43.9343388,84.9930813 L27.2412224,83.3482923 C28.540827,82.6443783 30.2744151,82.0519754 32.5944674,81.9218791 C36.8521974,81.6942106 41.3140168,83.6154543 43.9343388,84.9930813 L43.9343388,84.9930813 Z M77.2572334,83.3994015 L60.3154562,85.0650989 C62.921703,83.6805025 67.4914319,81.6733023 71.796079,81.9218791 C74.1724319,82.0566217 75.9482454,82.6722561 77.2572334,83.3994015 L77.2572334,83.3994015 Z M17.3792408,81.1947337 C18.0665768,61.9335103 23.1312814,50.1690867 33.6735615,44.5586833 C41.7010832,54.0580372 54.2443791,62.3423844 54.2443791,62.3423844 C55.1193836,51.0704683 63.8201662,49.4001246 71.4395088,44.6283778 C81.8996839,50.2596895 86.9362382,62.0032047 87.6188826,81.1947337 L87.661108,82.3748931 L80.6915677,83.0602219 C79.115152,81.57573 76.3892665,79.8566002 71.9297928,79.603377 C66.3888793,79.2990446 60.7470939,82.0705606 57.8734194,83.7548432 L58.7484239,85.2207499 L52.5014075,85.834061 L45.6726186,85.1626712 L46.5147812,83.7571664 C43.6434526,82.0705606 38.0016672,79.3153066 32.4607536,79.603377 C28.0528888,79.8519539 25.3457702,81.5339134 23.7576252,83.0067894 L17.3370153,82.3748931 L17.3792408,81.1947337 Z M101.611918,81.6942106 C99.8877132,79.6057002 97.3729548,78.1862565 94.4969344,77.661225 C93.6665012,64.0475753 90.3494598,48.3454152 77.1563616,39.8543078 C77.6114578,39.3269531 78.0618623,38.7856596 78.4817706,38.1886104 C87.36553,25.5135127 52.0369279,19.2828287 57.7608183,0.00534324133 C38.7429579,17.7356119 30.391708,12.3946937 27.264681,29.4326641 C26.7251339,32.3668005 27.7033562,35.5866842 29.5612747,38.8251531 C14.9348581,47.0258669 11.3644641,63.4760808 10.5011889,77.6635481 C7.62516854,78.1862565 5.11041014,79.6080233 3.38855131,81.6942106 C1.50248251,83.9755423 0.693161942,86.8841241 1.10368687,89.8995708 C1.42741509,95.9583418 4.11342103,105.559914 11.9861162,107.727412 C14.411732,131.830076 44.8586063,151.005343 52.5107909,151.005343 C60.1606297,151.005343 90.591083,131.830076 93.014353,107.727412 C100.884702,105.559914 103.573054,95.9583418 103.896782,89.8995708 C104.304961,86.8841241 103.497987,83.9755423 101.611918,81.6942106 L101.611918,81.6942106 Z M52.6468506,120.195749 L49.1960954,118.51379 C43.7419785,119.875155 38.2714407,120.451295 38.2714407,120.451295 C38.2714407,120.451295 45.5131004,129.776413 52.6468506,129.776413 C59.7806009,129.776413 67.0222606,120.451295 67.0222606,120.451295 C67.0222606,120.451295 61.5540686,119.875155 56.1022976,118.51379 L52.6468506,120.195749 Z" id="avatar-icon-04"></path>
                </g>
            </g>
        </g>
    </g>
</svg>