<?xml version="1.0" encoding="UTF-8" standalone="no"?>
<svg width="155px" height="154px" viewBox="0 0 155 154" version="1.1" xmlns="http://www.w3.org/2000/svg" xmlns:xlink="http://www.w3.org/1999/xlink" xmlns:sketch="http://www.bohemiancoding.com/sketch/ns">
    <!-- Generator: Sketch 3.2.2 (9983) - http://www.bohemiancoding.com/sketch -->
    <title>avatar-icon-14</title>
    <desc>Created with Sketch.</desc>
    <defs></defs>
    <g id="Page-1" stroke="none" stroke-width="1" fill="none" fill-rule="evenodd" sketch:type="MSPage">
        <g id="item-collection-preview" sketch:type="MSArtboardGroup" transform="translate(-388.000000, -771.000000)" fill="#2F2F2F">
            <g id="avatars" sketch:type="MSLayerGroup" transform="translate(183.000000, 80.000000)">
                <g id="avatar" transform="translate(204.000000, 691.000000)" sketch:type="MSShapeGroup">
                    <path d="M77.2577627,130.188138 C73.0485871,130.188138 69.0516389,129.321768 67.0708505,127.981125 L64.4180087,131.864529 C67.2099773,133.756925 72.0110313,134.88391 77.2577627,134.88391 C82.9195164,134.88391 87.9186492,133.609008 90.6328011,131.477127 L87.7111381,127.790946 C86.1925336,128.983672 82.3724415,130.188138 77.2577627,130.188138 L77.2577627,130.188138 Z M115.692133,115.152275 L111.4806,115.149927 L111.867325,119.021591 C111.879116,119.12255 112.8082,129.31942 105.573606,137.278754 C99.7585766,143.674396 90.2507919,146.916827 77.3072824,146.916827 C64.4321572,146.916827 55.0021892,143.707266 49.2814834,137.379713 C42.1647934,129.504903 43.1693361,119.160117 43.1787684,119.068549 L43.6268039,115.149927 L39.665227,115.149927 L39.3869733,115.152275 C35.8498511,115.023141 33.0083628,111.70323 33.0083628,107.639039 C33.0083628,103.588936 35.8357026,100.273721 39.3586764,100.128152 L40.6108177,100.128152 C41.1107309,109.179253 48.6424433,116.396655 57.8531098,116.396655 C63.0408891,116.396655 67.6886678,114.100422 70.8602875,110.489373 L70.8602875,116.910842 C70.8602875,122.414287 75.3571489,126.894054 80.884492,126.894054 L80.884492,122.198281 C77.9581129,122.198281 75.5764505,119.826916 75.5764505,116.910842 L75.5764505,101.133047 L79.1961057,101.133047 C80.1747095,109.707527 87.4989107,116.396655 96.3676553,116.396655 C105.583038,116.396655 113.11475,109.179253 113.614664,100.1305 L115.663836,100.128152 C119.200959,100.257285 122.042447,103.577196 122.042447,107.639039 C122.042447,111.691491 119.215107,115.006706 115.692133,115.152275 L115.692133,115.152275 Z M50.4935373,100.219719 C51.4697831,98.6302003 53.1298725,97.4327783 55.1248095,96.8199801 C54.8559882,97.39756 54.7192194,98.0455766 54.7876038,98.7264636 C54.9880407,100.743298 56.7966893,102.215422 58.8199232,102.013504 C60.8455152,101.813934 62.3240323,100.013105 62.1212373,97.9986189 C62.0858661,97.646436 61.9868267,97.3177319 61.8594903,97.0054631 C63.6775711,97.6417402 65.3588833,98.7311594 66.7430771,100.250242 L68.4904155,98.6724622 C67.6297158,97.728612 66.6652604,96.9326786 65.639495,96.263531 C68.6884944,97.0571166 70.4311166,98.2263638 70.4311166,99.1796056 C70.4311166,106.082391 64.7905856,111.700882 57.8531098,111.700882 C50.9203501,111.700882 45.277461,106.082391 45.277461,99.1796056 C45.277461,98.0854907 47.5789486,96.7096294 51.5169447,95.9465664 C50.2789519,96.7565871 49.2272476,97.7802655 48.4797357,98.9964705 L50.4935373,100.219719 Z M87.5555047,100.250242 C88.9396985,98.7311594 90.6210107,97.6417402 92.4390915,97.0054631 C92.3117551,97.3177319 92.2127157,97.646436 92.1773445,97.9986189 C91.9745495,100.013105 93.4530666,101.813934 95.4786586,102.013504 C97.5018926,102.215422 99.3105411,100.743298 99.510978,98.7264636 C99.5793624,98.0455766 99.4425936,97.39756 99.1737724,96.8199801 C101.168709,97.4327783 102.828799,98.6302003 103.805044,100.219719 L105.816488,98.9964705 C105.07605,97.789657 104.036136,96.7753702 102.809934,95.9676974 C106.68662,96.7354561 108.945662,98.0948822 108.945662,99.1796056 C108.945662,106.082391 103.305131,111.700882 96.3676553,111.700882 C89.4348957,111.700882 83.7920066,106.082391 83.7920066,99.1796056 C83.7920066,98.2122765 85.5817904,97.0172025 88.7180389,96.2259649 C87.6686926,96.8998082 86.6853726,97.707481 85.8081663,98.6724622 L87.5555047,100.250242 Z M43.2023493,75.7758766 C43.2023493,69.6831121 45.9094268,64.2219289 50.1704802,60.4793985 C56.4052477,62.9188521 66.3186225,65.9147549 77.5242259,65.9147549 C88.7321874,65.9147549 98.6479202,62.9188521 104.88033,60.4793985 C109.143741,64.2219289 111.850819,69.6831121 111.850819,75.7758766 L111.850819,94.9815852 C108.757016,91.8753318 102.213339,90.6708663 96.3700134,90.6708663 C89.6919265,90.6708663 82.0965459,92.24395 79.7927003,96.4372746 L74.432781,96.4372746 C72.1289353,92.24395 64.5335547,90.6708663 57.8554679,90.6708663 C52.4931905,90.6708663 46.5366765,91.687501 43.2023493,94.2537405 L43.2023493,75.7758766 Z M78.5004716,0.960484923 C35.6989338,0.960484923 0.999764192,32.1451086 0.999764192,70.6152229 C0.999764192,95.4722934 15.4948913,117.284156 37.2977131,129.610558 C38.3753564,133.550311 40.3278479,137.969032 43.9451449,142.002701 C51.0594769,149.936208 62.283945,153.960485 77.3072824,153.960485 C92.3329778,153.960485 103.606966,149.938556 110.817979,142.005049 C114.069773,138.429218 116.04113,134.531727 117.229603,130.948853 C140.404828,118.906545 156.001179,96.3997084 156.001179,70.6152229 C156.001179,32.1451086 121.304367,0.960484923 78.5004716,0.960484923 L78.5004716,0.960484923 Z" id="avatar-icon-14"></path>
                </g>
            </g>
        </g>
    </g>
</svg>