<?xml version="1.0" encoding="UTF-8" standalone="no"?>
<svg width="103px" height="118px" viewBox="0 0 103 118" version="1.1" xmlns="http://www.w3.org/2000/svg" xmlns:xlink="http://www.w3.org/1999/xlink" xmlns:sketch="http://www.bohemiancoding.com/sketch/ns">
    <!-- Generator: Sketch 3.2.2 (9983) - http://www.bohemiancoding.com/sketch -->
    <title>avatar-icon-10</title>
    <desc>Created with Sketch.</desc>
    <defs></defs>
    <g id="Page-1" stroke="none" stroke-width="1" fill="none" fill-rule="evenodd" sketch:type="MSPage">
        <g id="item-collection-preview" sketch:type="MSArtboardGroup" transform="translate(-414.000000, -558.000000)" fill="#2F2F2F">
            <g id="avatars" sketch:type="MSLayerGroup" transform="translate(183.000000, 80.000000)">
                <g id="avatar" transform="translate(231.000000, 478.000000)" sketch:type="MSShapeGroup">
                    <path d="M89.6315668,65.7313482 L85.4731562,65.7267305 L85.8206688,69.5062651 C85.830061,69.6355589 87.0228745,82.5972617 87.0228745,90.4241538 C86.9313002,93.5641459 74.1155999,103.187298 59.9309818,110.82025 L51.3417858,110.82025 L42.6422311,110.582441 C28.6454576,103.060313 16.0387344,93.5456754 15.9917733,90.4241538 C15.9917733,82.6272763 17.4146964,69.6955882 17.4287848,69.5639856 L17.8490871,65.7267305 L13.6484115,65.7313482 C10.1263245,65.6043632 7.29691468,62.3396949 7.29691468,58.3454402 C7.29691468,54.6790377 9.68958574,51.6567953 12.8007625,51.0818997 C15.0196773,59.9708479 22.2681322,67.9478132 32.8555255,67.9478132 C41.8626758,67.9478132 49.4351627,61.8802402 51.6259008,53.6862461 C53.8166389,61.8802402 61.3891258,67.9478132 70.3962761,67.9478132 C80.9813213,67.9478132 88.2321243,59.9731567 90.4510391,51.0842085 C93.5645639,51.6591041 95.9548869,54.6790377 95.9548869,58.3454402 C95.9548869,62.325842 93.1395654,65.5858926 89.6315668,65.7313482 L89.6315668,65.7313482 Z M17.4452212,27.010166 C17.4452212,23.8378504 18.9127574,20.7578876 21.4134391,17.9988504 C26.0907705,20.2037713 38.6599248,25.3939936 53.4738224,25.3939936 C65.8199111,25.3939936 76.592801,21.7922379 82.5592163,19.3125677 C84.6090709,21.7506792 85.8065804,24.3711873 85.8065804,27.010166 L85.8065804,42.8278763 L17.4452212,42.8278763 L17.4452212,27.010166 Z M102.999061,58.3454402 C102.999061,51.7075893 98.6833303,46.1063974 92.8507543,44.4971515 L92.8507543,27.010166 C92.8507543,11.0954854 70.6991756,0.00161617241 50.822865,0.00161617241 C31.3011111,0.00161617241 10.4010473,10.8507507 10.4010473,27.010166 L10.4010473,44.4971515 C4.56847134,46.1063974 0.252740822,51.7075893 0.252740822,58.3454402 C0.252740822,64.8609239 4.41349952,70.3766894 10.0864075,72.0990675 C9.64966875,76.575865 8.94759943,84.67058 8.94759943,90.4241538 C8.94759943,92.7883831 10.4057434,95.3719502 12.7091883,97.9924583 C13.8597367,99.2992491 15.2263064,100.615275 16.7314115,101.924375 C23.9117728,108.132786 34.294885,114.027197 40.0288426,117.06791 L40.7661328,117.455792 L51.189162,117.744394 L51.2408193,117.749012 L61.7202019,117.744394 L62.5044533,117.331116 C68.489653,114.154182 79.466824,107.924992 86.7692842,101.460303 C88.2978699,100.111953 89.6456552,98.7497505 90.7680269,97.4060186 C92.796749,94.9794512 94.0670483,92.6036777 94.0670483,90.4241538 C94.0670483,84.6751976 93.4800338,76.575865 93.1113887,72.117538 C98.8124734,70.4067041 102.999061,64.8793944 102.999061,58.3454402 L102.999061,58.3454402 Z M51.3699625,94.8132163 C47.9347537,94.8132163 45.0959516,96.3278007 44.544158,98.3110752 L58.198115,98.3110752 C57.6463214,96.3278007 54.8075193,94.8132163 51.3699625,94.8132163 L51.3699625,94.8132163 Z M32.7639513,86.8662657 C32.7639513,86.8662657 41.2099157,93.3794405 51.6259008,93.3794405 C62.0418859,93.3794405 70.4878503,86.8662657 70.4878503,86.8662657 L51.6259008,87.7459252 L32.7639513,86.8662657 Z M51.6259008,80.0298564 C56.8033686,80.0298564 61.0181326,76.2780276 61.0181326,71.6603921 L56.3220167,71.6603921 C56.3220167,73.7314016 54.2158087,75.4122209 51.6259008,75.4122209 C49.0336448,75.4122209 46.9297849,73.7314016 46.9297849,71.6603921 L42.233669,71.6603921 C42.233669,76.2780276 46.448433,80.0298564 51.6259008,80.0298564 L51.6259008,80.0298564 Z" id="avatar-icon-10"></path>
                </g>
            </g>
        </g>
    </g>
</svg>