<?xml version="1.0" encoding="UTF-8" standalone="no"?>
<svg width="112px" height="144px" viewBox="0 0 112 144" version="1.1" xmlns="http://www.w3.org/2000/svg" xmlns:xlink="http://www.w3.org/1999/xlink" xmlns:sketch="http://www.bohemiancoding.com/sketch/ns">
    <!-- Generator: Sketch 3.2.2 (9983) - http://www.bohemiancoding.com/sketch -->
    <title>avatar-icon-40</title>
    <desc>Created with Sketch.</desc>
    <defs></defs>
    <g id="Page-1" stroke="none" stroke-width="1" fill="none" fill-rule="evenodd" sketch:type="MSPage">
        <g id="item-collection-preview" sketch:type="MSArtboardGroup" transform="translate(-869.000000, -2160.000000)" fill="#2F2F2F">
            <g id="avatars" sketch:type="MSLayerGroup" transform="translate(183.000000, 80.000000)">
                <g id="avatar" transform="translate(686.000000, 2080.000000)" sketch:type="MSShapeGroup">
                    <path d="M89.5472848,73.3444195 C89.5472848,81.7383999 87.8195277,92.0671218 85.6157084,96.857355 C82.926538,102.689551 66.5360675,113.635992 56.4574841,113.635992 C46.3324556,113.635992 29.1036513,101.638264 26.7047627,95.7128273 C25.237098,92.0787769 24.1944059,85.9435487 23.6974434,80.2092549 C23.5906198,73.1509454 23.9784362,66.460936 25.1349188,60.7709314 C29.1059736,41.2440294 35.5153953,34.2533192 39.175268,31.7847757 C45.761181,36.1157992 54.6879264,39.7964699 65.7743681,46.2020956 C72.6203736,50.1601569 78.6326899,52.1624977 83.5558689,53.1252064 C86.4493977,59.0809465 88.3582907,65.1835404 89.5472848,70.9201652 L89.5472848,73.3444195 Z M88.9969106,12.4000655 C70.6603911,-2.84942629 43.1323892,-2.75152372 26.8766095,8.90354493 C26.8766095,8.90354493 14.2598022,16.3581268 5.9763213,38.0435476 C-10.2794584,80.5845482 11.7819569,143.521919 11.7819569,143.521919 L32.6822451,142.939165 C32.6822451,142.939165 30.0116527,132.195523 27.5779303,117.782865 C26.9323436,113.943686 26.3006905,109.85975 25.7387049,105.631291 C30.543449,110.267677 37.5798793,114.918049 44.4816189,117.782865 C48.7057994,119.538119 52.8812125,120.629033 56.4574841,120.629033 C60.1800576,120.629033 64.4715835,119.531126 68.7770429,117.782865 C77.610898,114.190773 86.4772647,107.806126 90.4645753,102.221018 C89.9397458,106.901693 89.238425,112.386568 88.5138817,117.782865 C86.7930913,130.60111 84.9329656,142.939165 84.9329656,142.939165 L104.091563,141.773659 C104.091563,141.773659 109.897199,122.542795 111.638889,90.4913565 C113.38058,58.4399177 109.316635,29.2999151 88.9969106,12.4000655 L88.9969106,12.4000655 Z M75.7647059,58.819873 C71.8331294,58.6310608 67.873686,60.4212794 64.9244231,63.6846986 L66.6452135,65.2464778 C67.9456758,63.8059113 69.4388853,62.728983 71.0296295,62.0366719 C70.8856497,62.3746689 70.7765038,62.7243209 70.7393477,63.1066072 C70.5396338,65.108948 71.9956872,66.8945045 73.9881814,67.0926407 C75.9829978,67.2931079 77.7618445,65.8315623 77.9615584,63.8292215 C78.0521263,62.9247881 77.7920338,62.0786301 77.3113272,61.3909811 C79.3363329,61.8362047 81.1035684,62.903809 82.3064961,64.4865673 L84.1573327,63.0809661 C82.2205727,60.519182 79.1575193,58.9667268 75.7647059,58.819873 L75.7647059,58.819873 Z M42.5471812,63.1066072 C42.5053806,62.728983 42.4008791,62.3816619 42.2615439,62.050658 C43.842999,62.740638 45.340853,63.8129044 46.6366709,65.2464778 L48.3574613,63.6846986 C45.4174874,60.4212794 41.4905555,58.6287298 37.5171785,58.819873 C34.124365,58.9667268 31.0659562,60.519182 29.1291961,63.0809661 L30.9800328,64.4865673 C32.178316,62.903809 33.9525182,61.8362047 35.9752016,61.3909811 C35.494495,62.0786301 35.2344025,62.9247881 35.3249705,63.8292215 C35.5246843,65.8315623 37.3035311,67.2931079 39.2983475,67.0926407 C41.2908416,66.8945045 42.746895,65.108948 42.5471812,63.1066072 L42.5471812,63.1066072 Z M60.3704825,92.1533693 L56.4528396,93.7571067 L52.5375189,92.1533693 C46.3580004,93.7151485 40.1552593,92.9971963 40.1552593,92.9971963 C40.1552593,92.9971963 48.3667503,100.330565 56.4528396,100.330565 C64.5389289,100.330565 72.7504199,92.9971963 72.7504199,92.9971963 C72.7504199,92.9971963 66.550001,93.7151485 60.3704825,92.1533693 L60.3704825,92.1533693 Z M56.4505173,85.0624255 C59.2929565,85.0624255 61.6035995,82.9668442 61.6035995,80.391074 L59.2813452,80.391074 C59.2813452,81.6824556 58.0110722,82.7314118 56.4505173,82.7314118 C54.8899625,82.7314118 53.6196894,81.6824556 53.6196894,80.391074 L51.2974352,80.391074 C51.2974352,82.9668442 53.6080781,85.0624255 56.4505173,85.0624255 L56.4505173,85.0624255 Z" id="avatar-icon-40"></path>
                </g>
            </g>
        </g>
    </g>
</svg>