<?xml version="1.0" encoding="UTF-8" standalone="no"?>
<svg width="103px" height="139px" viewBox="0 0 103 139" version="1.1" xmlns="http://www.w3.org/2000/svg" xmlns:xlink="http://www.w3.org/1999/xlink" xmlns:sketch="http://www.bohemiancoding.com/sketch/ns">
    <!-- Generator: Sketch 3.2.2 (9983) - http://www.bohemiancoding.com/sketch -->
    <title>avatar-icon-42</title>
    <desc>Created with Sketch.</desc>
    <defs></defs>
    <g id="Page-1" stroke="none" stroke-width="1" fill="none" fill-rule="evenodd" sketch:type="MSPage">
        <g id="item-collection-preview" sketch:type="MSArtboardGroup" transform="translate(-413.000000, -2393.000000)" fill="#2F2F2F">
            <g id="avatars" sketch:type="MSLayerGroup" transform="translate(183.000000, 80.000000)">
                <g id="avatar" transform="translate(230.000000, 2313.000000)" sketch:type="MSShapeGroup">
                    <path d="M69.7332818,73.1822703 C65.7199402,73.5667187 62.0361398,75.9347323 59.5598728,79.6282674 L61.5088738,80.9443546 C62.6034216,79.3192935 63.9498329,78.0291507 65.4398302,77.1093048 C65.3480294,77.4583745 65.2915366,77.8239543 65.3056598,78.2084027 C65.3927528,80.2391394 67.1134289,81.8193875 69.1353999,81.7274029 C71.1667863,81.6401355 72.7391688,79.9160141 72.6520757,77.8829188 C72.61206,76.9654314 72.2307337,76.1540802 71.6493288,75.5361324 C73.7419157,75.6894401 75.6767936,76.4984327 77.1079442,77.9112217 L78.7580043,76.2342719 C76.4465078,73.9511672 73.1581569,72.8379178 69.7332818,73.1822703 L69.7332818,73.1822703 Z M72.7250456,60.9506783 C65.6916938,58.811447 57.973367,58.9435274 57.6508874,58.9435274 L57.7426882,63.6606859 C57.8038887,63.6606859 65.0632116,63.5451155 71.3550955,65.4673576 C76.2652601,66.9626968 78.218969,69.8944109 78.4002166,70.4109397 C78.4002166,70.4085811 78.3719703,70.3236723 78.3578471,70.1727232 L83.0467482,69.7528961 C82.8278387,67.3164837 79.1204997,62.9059405 72.7250456,60.9506783 L72.7250456,60.9506783 Z M89.5975575,84.4303347 L89.5904959,84.4279762 L85.5253692,84.4326933 L85.7725251,88.201703 C85.7866483,88.4116165 87.0200741,109.3558 75.4013913,121.785513 C69.6414811,127.953198 61.5277048,131.080674 51.2836797,131.080674 C41.0537778,131.080674 32.9776634,127.960273 27.2813076,121.80674 C15.7826719,109.38882 17.2114686,88.4446366 17.2255918,88.2347231 L17.5104096,84.4279762 L13.7042082,84.4279762 L13.4288058,84.4303347 C9.89800676,84.3006129 7.06159816,80.9655818 7.06159816,76.8828812 C7.06159816,72.814332 9.88388356,69.4840181 13.4005594,69.3377861 L17.2350072,69.3401447 L17.2350072,54.6839333 C31.0545548,54.6839333 17.2350072,54.6721404 17.2350072,54.6721404 C34.1640119,54.259389 40.3382026,52.5069646 50.2809328,46.4289059 C57.5732098,41.9711912 59.3386093,37.4450776 58.9714062,36.1384247 L66.5390856,48.8181467 L69.3919713,39.9734745 L85.7654635,52.9574533 L85.7654635,69.3401447 L89.5716649,69.3377861 C93.102464,69.467508 95.9388726,72.8025391 95.9388726,76.8828812 C95.9388726,80.9537889 93.1165872,84.2841028 89.5975575,84.4303347 L89.5975575,84.4303347 Z M92.8270617,62.7361228 L92.8270617,36.8459984 C92.8270617,22.6308413 82.0416474,10.8992682 68.2385769,9.41808039 C70.0275151,4.36836222 73.5488987,0.979083846 73.5488987,0.979083846 C73.5488987,0.979083846 65.0114265,1.78100079 51.3401725,5.53821753 C51.3401725,2.5522562 52.3829352,0.155939689 52.3829352,0.155939689 C52.3829352,0.155939689 47.0231822,3.01453774 39.3166247,9.2459041 C39.3072092,9.25062126 39.2977938,9.25297984 39.2883783,9.25533842 L37.711288,9.25533842 C22.5264981,9.25533842 10.1734091,21.6331623 10.1734091,36.8459984 L10.1734091,62.7361228 C4.32640581,64.3847697 0,70.1019658 0,76.8828812 C0,83.6307764 4.28403622,89.3267453 10.086316,91.0060537 C10.1004392,98.1077358 11.3597576,114.98337 22.0769097,126.58758 C29.1667543,134.262397 38.994145,138.156411 51.2836797,138.156411 C63.5779221,138.156411 73.4335593,134.262397 80.5869582,126.589939 C91.4100343,114.98337 92.8082308,98.0959429 92.8859083,91.015488 C98.7070191,89.3456139 103.000471,83.6425693 103.000471,76.8828812 C103.000471,70.1019658 98.674065,64.3847697 92.8270617,62.7361228 L92.8270617,62.7361228 Z M32.5963371,105.032524 C32.5963371,105.032524 41.0584856,111.686077 51.5002354,111.686077 C61.9443391,111.686077 70.4088414,105.032524 70.4088414,105.032524 L51.5049431,105.931143 L32.5963371,105.032524 Z M37.7042264,78.2084027 C37.7159958,77.8239543 37.6618569,77.4583745 37.5700561,77.1093048 C39.0600533,78.0291507 40.4064647,79.3192935 41.5010124,80.9443546 L43.4500135,79.6282674 C40.9713925,75.9347323 37.289946,73.5667187 33.2766044,73.1822703 C29.8517293,72.8379178 26.5586707,73.9511672 24.2471742,76.2342719 L25.9019421,77.9112217 C27.3307387,76.4984327 29.2632628,75.6894401 31.3582036,75.5361324 C30.7744448,76.1540802 30.3931185,76.9654314 30.3554566,77.8829188 C30.2636559,79.9160141 31.8407461,81.6401355 33.8697786,81.7274029 C35.8964573,81.8193875 37.6147795,80.2391394 37.7042264,78.2084027 L37.7042264,78.2084027 Z M51.5002354,96.8199515 C55.0992966,96.8199515 58.0322137,94.1689085 58.0322137,90.9140691 L55.0851734,90.9140691 C55.0851734,92.5462059 53.4774829,93.8717275 51.5002354,93.8717275 C49.5229879,93.8717275 47.9129435,92.5462059 47.9129435,90.9140691 L44.970611,90.9140691 C44.970611,94.1689085 47.9011742,96.8199515 51.5002354,96.8199515 L51.5002354,96.8199515 Z M24.6002541,70.4250912 C24.7838557,69.9085623 26.728149,66.9744897 31.6383136,65.4673576 C37.9325515,63.5380398 45.1730434,63.6371001 45.2436594,63.6371001 L45.3307525,58.9199416 C45.0035651,58.9246588 37.2946538,58.7972955 30.2589481,60.9577541 C23.8517247,62.9248092 20.1538012,67.3495038 19.9584303,69.7882748 L24.6473314,70.1797989 C24.6332083,70.3354652 24.6049619,70.4227326 24.6002541,70.4250912 L24.6002541,70.4250912 Z M51.2460179,113.148396 C47.799958,113.148396 44.9588416,114.697982 44.4009754,116.72636 L58.0934142,116.72636 C57.5355479,114.697982 54.6944316,113.148396 51.2460179,113.148396 L51.2460179,113.148396 Z" id="avatar-icon-42"></path>
                </g>
            </g>
        </g>
    </g>
</svg>