<?xml version="1.0" encoding="UTF-8" standalone="no"?>
<svg width="103px" height="140px" viewBox="0 0 103 140" version="1.1" xmlns="http://www.w3.org/2000/svg" xmlns:xlink="http://www.w3.org/1999/xlink" xmlns:sketch="http://www.bohemiancoding.com/sketch/ns">
    <!-- Generator: Sketch 3.2.2 (9983) - http://www.bohemiancoding.com/sketch -->
    <title>avatar-icon-33</title>
    <desc>Created with Sketch.</desc>
    <defs></defs>
    <g id="Page-1" stroke="none" stroke-width="1" fill="none" fill-rule="evenodd" sketch:type="MSPage">
        <g id="item-collection-preview" sketch:type="MSArtboardGroup" transform="translate(-183.000000, -1931.000000)" fill="#2F2F2F">
            <g id="avatars" sketch:type="MSLayerGroup" transform="translate(183.000000, 80.000000)">
                <g id="avatar" transform="translate(0.000000, 1851.000000)" sketch:type="MSShapeGroup">
                    <path d="M68.6360657,39.8815566 C64.0788769,41.2750391 57.1936613,42.0593107 49.7364432,42.031301 C43.5691732,42.0079596 37.7220363,41.4290925 33.2731278,40.3974019 L32.738788,42.6708558 C37.3548249,43.7398927 43.3855675,44.3421012 49.7270276,44.3654426 C57.410222,44.3934523 64.5590765,43.5695003 69.3257642,42.112996 L68.6360657,39.8815566 Z M69.4246289,60.5760561 C65.1193095,60.162913 60.9293321,61.8131511 57.8951294,65.1066249 L59.6370301,66.6798364 C61.0234889,65.174315 62.7041877,64.0982758 64.5214138,63.4703917 C64.3919482,63.7808325 64.2930836,64.1076123 64.2601287,64.4577336 C64.0482759,66.4627612 65.5194758,68.255382 67.5367851,68.4607864 C69.5588023,68.6708592 71.3666127,67.2120207 71.5737577,65.2093272 C71.6467292,64.5324261 71.5149097,63.888203 71.2465628,63.31167 C73.2332712,63.9278834 74.8880768,65.1229639 75.8555379,66.7101802 L77.8704933,65.5010949 C76.1992102,62.7701492 73.0449576,60.9285115 69.4246289,60.5760561 L69.4246289,60.5760561 Z M68.7655313,50.8917025 C63.692834,50.8730294 59.5005028,53.1114712 58.6742769,56.0664945 L78.8167691,56.1388529 C78.0117285,53.1791613 73.8382286,50.9103757 68.7655313,50.8917025 L68.7655313,50.8917025 Z M92.3988866,80.6613446 C91.9963663,80.9017612 91.5679529,81.0954949 91.1254159,81.2425459 C91.0901071,81.2542166 91.0595062,81.2705556 91.0265513,81.2822263 C90.5604752,81.4292772 90.0732138,81.5203087 89.5741828,81.541316 L85.3653741,81.5226429 L85.7396473,85.3739765 C85.749063,85.4743446 86.6388447,95.6138557 79.3887716,103.498586 C78.0187902,104.990103 76.4298943,106.290219 74.6573927,107.429281 L74.6903476,97.5722005 L74.6950554,96.3421079 L74.617376,96.3421079 C72.9319694,89.0852617 64.6956039,83.3969586 54.3524801,82.4609678 C56.205015,81.4362796 57.4549464,79.6156492 57.4643621,77.5242583 L54.5219623,77.5149217 C54.5149005,79.1301477 52.9001115,80.437267 50.9251728,80.4302646 C48.9478801,80.4232622 47.3425068,79.1044721 47.3495685,77.486912 L44.4048148,77.4752413 C44.397753,79.6389906 45.7230099,81.5156404 47.6767634,82.5356603 C37.7644069,83.6467117 29.9329156,89.1482835 28.247509,96.1740497 L27.9979935,97.3948058 L27.9979935,97.4018082 L27.9626847,107.408273 C26.1642899,106.248205 24.5636244,104.91541 23.193643,103.39355 C16.1201139,95.5414973 17.1629004,85.2596036 17.1723161,85.168572 L17.6336844,81.2728897 L13.6767451,81.261219 L13.4013365,81.2635531 C12.9329064,81.24488 12.4785999,81.1655192 12.036063,81.0371414 C12.0172316,81.0278048 11.9984002,81.0161341 11.977215,81.0114658 C11.5582172,80.8830881 11.1486352,80.7126957 10.7625923,80.4956205 C8.56873903,79.2795328 7.05281465,76.728316 7.06223033,73.7732927 C7.06693817,72.5595391 7.35176247,71.4321487 7.80842292,70.4191312 L17.2405797,70.4191312 L17.3370905,46.7229256 L17.3559218,42.1316691 C17.3559218,41.487446 17.3959385,40.8548936 17.4594943,40.2270095 C17.4806796,40.0286075 17.5065727,39.8325396 17.5348197,39.6388059 C17.5889599,39.2093238 17.6548696,38.7798417 17.7372568,38.3643645 C17.7796274,38.1426211 17.8267058,37.9255459 17.8761381,37.7061366 C17.9702949,37.3046643 18.0762213,36.9031919 18.1915634,36.508722 C18.2527653,36.3079858 18.3069054,36.1072496 18.3704613,35.9111817 C18.5281739,35.4326827 18.7070718,34.9658544 18.8977393,34.5013602 C18.9401099,34.4009921 18.9707108,34.2982899 19.0154353,34.2025901 C19.2531812,33.6564009 19.5168202,33.1242166 19.7992906,32.6060372 C19.8981553,32.4263083 20.0087895,32.2512477 20.110008,32.0738529 C20.3100912,31.7354024 20.5148823,31.3969518 20.7314429,31.070172 C20.8656163,30.8671017 21.0068515,30.6710338 21.1457328,30.4749659 C21.3599395,30.1785299 21.578854,29.8914305 21.8048303,29.6089994 C21.9578351,29.4175998 22.108486,29.2262002 22.2709065,29.0394688 C22.5227759,28.745367 22.7864149,28.4676041 23.0571157,28.1875071 C23.2030587,28.0357879 23.3466478,27.872398 23.4972987,27.7276812 C23.9021729,27.3332113 24.3211707,26.9597487 24.7542919,26.602625 C24.9496673,26.4392351 25.1544583,26.2945183 25.3545415,26.1404649 C25.6275962,25.9327263 25.898297,25.729656 26.1807673,25.5359223 C26.4114515,25.3725324 26.6562591,25.2208132 26.896359,25.0667598 C27.159998,24.9033699 27.4283449,24.7423141 27.6990456,24.5859266 C27.953269,24.443544 28.2098462,24.2988272 28.4711313,24.1681153 C28.7536017,24.0210644 29.0431339,23.8903524 29.332666,23.7596405 C29.5915972,23.6405993 29.8458205,23.5168898 30.1141674,23.4071851 C30.6108445,23.2064489 31.1169373,23.02672 31.6253839,22.8656643 C31.6489231,22.8586618 31.6677545,22.8493253 31.6889398,22.8423229 C33.6521089,22.2284436 35.7376819,21.8946614 37.9032882,21.9039979 L65.4818131,22.004366 C76.7735666,22.0440464 85.9232531,31.1868791 85.8808825,42.3814222 L85.7749561,70.7365745 L95.2188826,70.7389086 C95.6661273,71.7519261 95.9438899,72.8839848 95.939182,74.0954043 C95.9274124,76.9547277 94.4821056,79.4125788 92.3988866,80.6613446 L92.3988866,80.6613446 Z M66.0020294,111.17091 C61.6943561,112.370658 56.7605401,112.998542 51.1370256,112.977535 C45.6359149,112.958862 40.8056713,112.319307 36.587447,111.140566 L36.6368793,97.432152 L42.2698095,97.4531593 C44.8120429,97.6935759 47.9003858,97.8943121 51.2335363,97.9036486 C54.5713946,97.9176535 57.6620914,97.7402587 60.2043248,97.5185153 L66.0514617,97.5395226 L66.0020294,111.17091 Z M103.000942,74.1210798 C103.019773,68.5214741 100.004402,63.6781303 95.6190489,61.2552913 L95.6731891,47.0076909 C95.6731891,47.0076909 97.7540542,23.9347011 90.1061686,13.9212336 C82.6701358,4.18319485 63.4903969,-2.70952531 49.3551082,1.12780349 C40.6926832,3.48061823 34.6336935,9.91818078 32.5198735,14.2550159 C23.958667,12.8942113 13.1682984,15.9145906 9.25372971,22.9636982 C6.99632057,27.032107 4.57413705,29.9077695 6.99632057,49.8740168 L6.95630393,61.2366181 C2.8369442,63.7201448 0.0216560626,68.3697549 0.00047078397,73.745283 C-0.0230684145,79.9611021 3.68670927,85.2409304 8.87239469,87.3066458 C8.36630192,89.9068795 8.07206194,92.5794716 8.06500018,95.3267563 C7.97555123,119.387088 27.3742047,138.958865 51.3912489,139.047563 C75.413001,139.133926 94.9552435,119.702197 95.0446925,95.6441996 C95.0541082,92.8642369 94.7739917,90.1566327 94.2773146,87.5260551 C99.347658,85.4276618 102.977402,80.2365308 103.000942,74.1210798 L103.000942,74.1210798 Z M50.9675433,99.3718237 C47.3919391,99.3578189 44.4401236,100.938033 43.8563515,103.020087 L58.0504882,103.069104 C57.4831935,100.98705 54.5407937,99.3858286 50.9675433,99.3718237 L50.9675433,99.3718237 Z M33.4567336,50.7633248 C28.3816824,50.7446516 24.1917051,52.9830934 23.3654792,55.9381167 L43.5056174,56.0104751 C42.7005768,53.0531177 38.5270769,50.7819979 33.4567336,50.7633248 L33.4567336,50.7633248 Z M44.9980026,64.5207554 C42.0391253,61.5750687 38.1010174,60.0882205 34.0546292,60.4500124 C30.4319466,60.772124 27.2612165,62.5904203 25.5711021,65.3096953 L27.5766418,66.5327855 C28.5558725,64.9549057 30.2177399,63.7714959 32.2091561,63.1716215 C31.9384553,63.7434862 31.8019279,64.3853752 31.8678377,65.0622762 C32.0608591,67.069638 33.8616078,68.5378131 35.8789171,68.3464135 C37.9009343,68.1550139 39.3839038,66.3717297 39.1885284,64.366702 C39.1579275,64.0165808 39.0614167,63.689801 38.9343051,63.3793601 C40.7421155,64.0165808 42.4181064,65.1066249 43.7951496,66.6214828 L44.9956487,65.552446 L44.9626938,74.058058 L47.3166136,74.0673946 L47.4013548,51.9117224 L45.0474349,51.9023859 L44.9980026,64.5207554 Z" id="avatar-icon-33"></path>
                </g>
            </g>
        </g>
    </g>
</svg>