<?xml version="1.0" encoding="UTF-8" standalone="no"?>
<svg width="103px" height="133px" viewBox="0 0 103 133" version="1.1" xmlns="http://www.w3.org/2000/svg" xmlns:xlink="http://www.w3.org/1999/xlink" xmlns:sketch="http://www.bohemiancoding.com/sketch/ns">
    <!-- Generator: Sketch 3.2.2 (9983) - http://www.bohemiancoding.com/sketch -->
    <title>avatar-icon-37</title>
    <desc>Created with Sketch.</desc>
    <defs></defs>
    <g id="Page-1" stroke="none" stroke-width="1" fill="none" fill-rule="evenodd" sketch:type="MSPage">
        <g id="item-collection-preview" sketch:type="MSArtboardGroup" transform="translate(-184.000000, -2166.000000)" fill="#2F2F2F">
            <g id="avatars" sketch:type="MSLayerGroup" transform="translate(183.000000, 80.000000)">
                <g id="avatar" transform="translate(1.000000, 2086.000000)" sketch:type="MSShapeGroup">
                    <path d="M69.0052142,63.691823 C64.7104689,63.2910898 60.5354788,64.9694547 57.5228171,68.3073262 L59.2651359,69.8914009 C60.641145,68.3639003 62.3153677,67.2724918 64.1257825,66.6336759 C63.998983,66.9471907 63.9003612,67.2772063 63.8674872,67.6307944 C63.6655473,69.6533182 65.1378301,71.461332 67.1525329,71.6616986 C69.1672357,71.8644225 70.9682579,70.3864242 71.1678497,68.3591858 C71.2359457,67.6755822 71.1021018,67.0273374 70.8320659,66.4474529 C72.818591,67.0626962 74.4716805,68.2625384 75.4438098,69.8607566 L77.44912,68.6326273 C75.7725492,65.8817119 72.6166511,64.0336248 69.0052142,63.691823 L69.0052142,63.691823 Z M89.3800115,78.896111 L85.2191101,78.8937537 L85.5689828,82.7502212 C85.5807234,82.8845847 86.7712296,96.1158511 86.7712296,104.109299 C86.6773041,107.312807 73.8635126,117.137842 59.6807564,124.930923 L51.0889178,124.933281 L42.3890649,124.688126 C28.3941597,117.008193 15.7846563,107.293949 15.7400416,104.109299 C15.7400416,96.1488526 17.1583173,82.943516 17.1724061,82.8115098 L17.5974191,78.8937537 L13.3965995,78.896111 C9.87439179,78.7688193 7.04488497,75.4333049 7.04488497,71.3552556 C7.04488497,67.2866353 9.86030296,63.9581927 13.3684218,63.8144002 L17.1935393,63.8167575 L17.1935393,55.0689881 C28.9013576,55.0689881 19.3326935,55.0595591 17.1935393,55.0572018 L17.1935393,55.0454155 C33.7643523,54.6093236 39.9164751,52.8413831 49.752827,46.8185993 C57.0273599,42.3610321 58.7884638,37.8374617 58.419806,36.5339003 L65.9690711,49.2041403 L68.8197112,40.364438 L85.5525458,53.6617075 L85.5525458,63.8167575 L89.3518338,63.8144002 C92.8740415,63.9416919 95.7035483,67.2772063 95.7035483,71.3552556 C95.7035483,75.4238759 92.8881303,78.7523185 89.3800115,78.896111 L89.3800115,78.896111 Z M102.747964,71.3552556 C102.747964,64.5781505 98.4320852,58.8618097 92.5969611,57.2164464 L92.5969611,39.3649623 C92.5969611,38.0236848 92.3950212,36.7319096 92.1085483,35.463707 C91.2538259,22.0697901 80.8539208,11.24528 67.6667752,9.82621308 C69.4513605,4.78168963 72.9665237,1.39195846 72.9665237,1.39195846 C72.9665237,1.39195846 64.4498256,2.1934248 50.8094893,5.95088759 C50.8094893,2.96424684 51.8473665,0.571634082 51.8473665,0.571634082 C51.8473665,0.571634082 46.5030034,3.42862587 38.8151981,9.65413354 C38.8058056,9.65884805 38.796413,9.6612053 38.7893686,9.66356256 L37.2137677,9.66356256 C22.0682747,9.66356256 9.74524418,22.0344313 9.74524418,37.2387192 L9.74524418,55.0689881 L10.149124,55.0689881 L10.149124,57.2164464 C4.31634809,58.8618097 0.000469627689,64.5781505 0.000469627689,71.3552556 C0.000469627689,78.0074262 4.15902282,83.6389059 9.8321253,85.3997746 C9.39537155,89.9681328 8.69562629,98.2326651 8.69562629,104.109299 C8.69562629,106.52077 10.1538203,109.158537 12.4549959,111.83402 C13.6079319,113.170583 14.9722004,114.516575 16.4797052,115.848424 C23.6603126,122.189437 34.0414327,128.205149 39.7755868,131.31201 L40.5129022,131.708028 L50.9409851,132.002685 L50.990296,132.005042 L61.4676897,132.002685 L62.251968,131.580737 C68.2350247,128.334798 79.2172683,121.977284 86.5176307,115.376973 C88.0439207,113.997979 89.3917521,112.609557 90.5165105,111.235278 C92.5429539,108.757804 93.815645,106.33219 93.815645,104.109299 C93.815645,98.2397369 93.2262622,89.9681328 92.8623008,85.4186326 C98.5612328,83.6742647 102.747964,78.0286415 102.747964,71.3552556 L102.747964,71.3552556 Z M51.3941758,100.094896 L46.9514979,98.444818 C39.932912,100.222187 34.7717037,105.497722 34.7717037,105.497722 C34.7717037,105.497722 42.2153026,106.860215 51.3941758,106.860215 C60.573049,106.860215 68.0142997,105.497722 68.0142997,105.497722 C68.0142997,105.497722 62.8530914,100.222187 55.8368537,98.444818 L51.3941758,100.094896 Z M76.3102729,54.9982705 C73.8752533,54.9982705 59.9601849,58.2819252 55.7546689,59.2884726 L56.8442051,63.8733316 C65.3256812,61.8437359 74.9272193,59.7316364 76.3102729,59.7127784 C77.2612689,59.7127784 78.2921017,61.306282 78.6325818,62.1619652 L82.9930749,60.4105255 C82.7723499,59.8565708 80.705988,54.9982705 76.3102729,54.9982705 L76.3102729,54.9982705 Z M41.917089,84.9542536 C41.917089,89.6664043 46.1319975,93.4992992 51.3096428,93.4992992 C56.4896362,93.4992992 60.7021966,89.6664043 60.7021966,84.9542536 L56.0059197,84.9542536 C56.0059197,87.0663532 53.8996395,88.7847913 51.3096428,88.7847913 C48.7196461,88.7847913 46.6133659,87.0663532 46.6133659,84.9542536 L41.917089,84.9542536 Z M41.8020303,84.4757311 L41.2619584,82.1844802 C40.2968735,82.4107766 39.4304104,82.9105144 38.761191,83.6271196 C37.7937579,84.6548824 37.3053451,86.0173751 37.3922262,87.4647291 C37.4744111,88.8837959 38.1013641,90.2156444 39.1533301,91.2151201 C39.965786,91.9859421 40.9684411,92.4974662 42.0532811,92.6907611 L42.4642053,90.3688659 C41.8325561,90.258075 41.2455214,89.9587037 40.7665012,89.5013965 C40.1489408,88.9144402 39.7826312,88.1436182 39.7356684,87.3232938 C39.6887056,86.5336138 39.9470009,85.7981505 40.4682876,85.2465531 C40.8252047,84.864678 41.2854398,84.5983083 41.8020303,84.4757311 L41.8020303,84.4757311 Z M51.1147473,108.430146 C47.3342444,108.430146 44.2182647,110.132083 43.612445,112.359688 L58.6170497,112.359688 C58.0088818,110.132083 54.8929021,108.430146 51.1147473,108.430146 L51.1147473,108.430146 Z M38.8598128,67.6307944 C38.8245907,67.2772063 38.7259689,66.9471907 38.5991694,66.6336759 C40.4095842,67.2724918 42.0838069,68.3639003 43.4621641,69.8914009 L45.2021347,68.3073262 C42.1894731,64.9694547 38.0050904,63.2910898 33.7197377,63.691823 C30.1083008,64.0336248 26.9524027,65.8817119 25.2758319,68.6326273 L27.2811421,69.8607566 C28.2532714,68.2625384 29.9063609,67.0626962 31.892886,66.4474529 C31.6251982,67.0273374 31.4890062,67.6755822 31.5571022,68.3591858 C31.756694,70.3864242 33.5577162,71.8644225 35.572419,71.6616986 C37.5894699,71.461332 39.0617527,69.6533182 38.8598128,67.6307944 L38.8598128,67.6307944 Z M26.4545974,59.7127784 C27.8423472,59.7316364 37.4438853,61.8437359 45.9253614,63.8733316 L47.0148976,59.2884726 C42.8093816,58.2819252 28.8943132,54.9982705 26.4592936,54.9982705 C22.0635785,54.9982705 19.9972166,59.8565708 19.7788398,60.4105255 L24.1369847,62.1619652 C24.4798129,61.306282 25.5082976,59.7127784 26.4545974,59.7127784 L26.4545974,59.7127784 Z" id="avatar-icon-37"></path>
                </g>
            </g>
        </g>
    </g>
</svg>