<?xml version="1.0" encoding="UTF-8" standalone="no"?>
<svg width="116px" height="117px" viewBox="0 0 116 117" version="1.1" xmlns="http://www.w3.org/2000/svg" xmlns:xlink="http://www.w3.org/1999/xlink" xmlns:sketch="http://www.bohemiancoding.com/sketch/ns">
    <!-- Generator: Sketch 3.2.2 (9983) - http://www.bohemiancoding.com/sketch -->
    <title>avatar-icon-12</title>
    <desc>Created with Sketch.</desc>
    <defs></defs>
    <g id="Page-1" stroke="none" stroke-width="1" fill="none" fill-rule="evenodd" sketch:type="MSPage">
        <g id="item-collection-preview" sketch:type="MSArtboardGroup" transform="translate(-867.000000, -559.000000)" fill="#2F2F2F">
            <g id="avatars" sketch:type="MSLayerGroup" transform="translate(183.000000, 80.000000)">
                <g id="avatar" transform="translate(684.000000, 479.000000)" sketch:type="MSShapeGroup">
                    <path d="M82.9085497,56.4203533 C78.8796613,56.2908102 74.9566106,57.9913584 71.9296524,61.3359269 L73.6700946,62.9187086 C75.0483366,61.3971655 76.6335501,60.2807391 78.3198975,59.5835614 C78.0988143,59.9980995 77.9506415,60.4620995 77.9012506,60.9590741 C77.698983,62.9799472 79.1736549,64.7864853 81.193979,64.9866883 C83.2119511,65.1892467 85.0158959,63.7124548 85.2134596,61.6868711 C85.3145934,60.6835005 85.0041362,59.7343025 84.416149,59.0112162 C86.485864,59.4516629 88.3086244,60.5304041 89.5363417,62.1508711 L91.4108449,60.7235411 C89.4446157,58.1373888 86.344747,56.5687391 82.9085497,56.4203533 M67.9830822,87.4753787 L64.6832979,89.9390538 L61.3835136,87.4753787 C56.1715949,88.7872975 52.3449741,87.3740995 52.3449741,87.3740995 C52.3449741,87.3740995 57.8649981,92.3791756 64.6832979,92.3791756 C71.4968938,92.3791756 77.0216217,87.3740995 77.0216217,87.3740995 C77.0216217,87.3740995 73.190297,88.7896528 67.9830822,87.4753787 M108.876417,64.1835208 L108.337821,69.0731858 C107.961509,71.5604142 105.637784,73.3763736 103.043584,72.9783228 C102.791926,72.9429929 102.559083,72.858201 102.32624,72.7828305 L98.7983163,71.6452061 L97.8387212,75.2300183 C92.3116413,95.8485766 75.9844123,109.700272 64.2011484,109.700272 C52.4178845,109.700272 36.0906555,95.8485766 30.5635756,75.2300183 L29.6039805,71.6452061 L26.0760572,72.7828305 C25.8408623,72.858201 25.6103713,72.9429929 25.3563608,72.9783228 C22.818608,73.3763736 20.4384357,71.5462822 20.0856434,69.2121503 L19.5117679,64.042201 C19.3377236,62.885734 19.5846783,61.8823635 20.2549837,61.065064 C20.9582164,60.2006579 22.080096,59.616536 23.4112991,59.416333 C23.8793369,59.3503838 24.335615,59.3857137 24.7801333,59.4516629 L28.6843685,60.0357848 L28.8254854,56.0811858 C29.0700881,49.1400284 29.8838624,43.1786883 31.2856239,38.0911756 C38.3367666,43.5790944 52.6178002,49.5263025 67.9501549,48.9892873 C87.8405865,48.294465 87.8405865,46.0192162 87.8405865,46.0192162 L71.3604808,33.5006376 C71.3604808,33.5006376 82.158278,28.9477848 91.8153801,35.7758863 C94.1861446,37.4505259 96.3146583,39.3724751 98.0268771,41.8691249 C98.8759306,46.0710335 99.3910074,50.7934701 99.5768114,56.0811858 L99.7155764,60.0357848 L103.622163,59.4516629 C104.071386,59.3857137 104.530016,59.3480284 104.99335,59.416333 C106.322201,59.616536 107.44408,60.2006579 108.144961,61.065064 C108.817619,61.8823635 109.069277,62.885734 108.876417,64.1835208 M113.608538,56.5875817 C113.561499,56.5310538 113.502701,56.4863025 113.45331,56.4321299 C113.697912,54.4772061 113.82727,52.4869523 113.82727,50.4637239 C113.82727,23.0147086 91.6084086,0.766261929 64.2011484,0.766261929 C36.7938882,0.766261929 14.5750272,23.0147086 14.5750272,50.4637239 C14.5750272,52.484597 14.7067363,54.4772061 14.951339,56.4321299 C14.9043,56.4863025 14.8455013,56.5310538 14.7961104,56.5875817 C12.8651603,58.9499777 12.0607938,61.971866 12.51472,64.9607797 L12.6628927,66.2750538 C5.20251091,69.638465 0,77.1284142 0,85.8525563 C0,97.721064 9.6100631,107.344942 21.4615335,107.344942 C27.2896628,107.344942 32.5392127,104.982546 36.4011127,101.204597 C44.3859791,110.64947 54.5816775,116.766262 64.2011484,116.766262 C79.8721837,116.766262 97.0955053,100.578079 103.749169,80.0984853 C109.487924,80.0984853 114.457592,75.8094294 115.330165,69.9894091 L115.868761,65.1020995 C116.341503,61.971866 115.537136,58.9499777 113.608538,56.5875817 M84.9030024,50.2022822 C79.3476991,49.893734 73.6889102,52.705998 70.8077728,54.4112569 L72.0072667,56.4415513 C74.1428363,55.1743838 79.6558044,52.2561299 84.7689413,52.5529015 C91.2179851,52.9226883 93.3088677,56.846668 93.386482,57.0068305 L95.4961801,55.9587086 C95.3903424,55.7420183 92.7749753,50.6545056 84.9030024,50.2022822 M57.730937,93.8865868 C57.730937,96.4303431 60.8425654,98.4912569 64.6832979,98.4912569 C68.5240304,98.4912569 71.6356588,96.4303431 71.6356588,93.8865868 C71.6356588,93.6887391 57.730937,93.6887391 57.730937,93.8865868 M58.2224944,56.4391959 L59.4219883,54.4136122 C56.5455548,52.705998 50.8867658,49.9102213 45.3314626,50.2022822 C37.4594897,50.6545056 34.8488265,55.7420183 34.7406368,55.9587086 L36.8432791,57.0138964 C36.9303012,56.846668 39.0164799,52.9226883 45.4655237,52.5529015 C50.6115878,52.2749726 56.0916287,55.1743838 58.2224944,56.4391959 M56.5596665,62.9187086 L58.3001087,61.3359269 C55.2778544,57.9913584 51.3689153,56.2978761 47.3259152,56.4203533 C43.8897179,56.5687391 40.7898493,58.1373888 38.828324,60.7235411 L40.7028272,62.1508711 C41.9258406,60.5304041 43.748601,59.4516629 45.818316,59.0112162 C45.2303288,59.7343025 44.9198715,60.6835005 45.0210053,61.6868711 C45.2232729,63.7124548 47.0225138,65.1892467 49.0451899,64.9866883 C51.06081,64.7864853 52.535482,62.9799472 52.3332144,60.9590741 C52.2838235,60.4597442 52.1356507,59.9980995 51.9122155,59.5812061 C53.6009148,60.2783838 55.1861284,61.3971655 56.5596665,62.9187086 M65.1184085,79.4342822 C67.99249,79.4342822 70.3350311,77.3168406 70.3350311,74.7165563 L67.9830822,74.7165563 C67.9830822,76.0190538 66.6965662,77.0789523 65.1184085,77.0789523 C63.5378988,77.0789523 62.2513828,76.0190538 62.2513828,74.7165563 L59.8994339,74.7165563 C59.8994339,77.3168406 62.2372711,79.4342822 65.1184085,79.4342822" id="avatar-icon-12"></path>
                </g>
            </g>
        </g>
    </g>
</svg>