<?xml version="1.0" encoding="UTF-8" standalone="no"?>
<svg width="139px" height="136px" viewBox="0 0 139 136" version="1.1" xmlns="http://www.w3.org/2000/svg" xmlns:xlink="http://www.w3.org/1999/xlink" xmlns:sketch="http://www.bohemiancoding.com/sketch/ns">
    <!-- Generator: Sketch 3.2.2 (9983) - http://www.bohemiancoding.com/sketch -->
    <title>avatar-icon-28</title>
    <desc>Created with Sketch.</desc>
    <defs></defs>
    <g id="Page-1" stroke="none" stroke-width="1" fill="none" fill-rule="evenodd" sketch:type="MSPage">
        <g id="item-collection-preview" sketch:type="MSArtboardGroup" transform="translate(-856.000000, -1472.000000)" fill="#2F2F2F">
            <g id="avatars" sketch:type="MSLayerGroup" transform="translate(183.000000, 80.000000)">
                <g id="avatar" transform="translate(672.000000, 1392.000000)" sketch:type="MSShapeGroup">
                    <path d="M52.4065721,78.4781384 C50.8334748,78.4781384 49.5529923,77.4258461 49.5529923,76.1355631 L47.2120738,76.1355631 C47.2120738,78.7114626 49.5412877,80.8113807 52.4065721,80.8113807 C55.2718564,80.8113807 57.6010704,78.7114626 57.6010704,76.1355631 L55.2601518,76.1355631 C55.2601518,77.4258461 53.9796694,78.4781384 52.4065721,78.4781384 M72.1007201,51.6621845 C66.5714704,51.3565298 60.9415612,54.1400879 58.073936,55.8316885 L59.2678045,57.8406102 C61.3910176,56.587659 66.8804717,53.6991051 71.9672878,53.9907604 C78.3860865,54.3547462 80.4648222,58.2419278 80.5467544,58.4029216 L82.6442174,57.3622955 C82.5365352,57.1476372 79.9381155,52.1078338 72.1007201,51.6621845 M97.0291621,63.1510697 L96.4930918,67.9948807 C96.1208857,70.4564513 93.81274,72.2530479 91.226025,71.8633964 C90.9755467,71.8260646 90.7414548,71.7444011 90.5120448,71.6697373 L87.0006669,70.5427813 L86.0432312,74.0939761 C80.5444135,94.5191793 64.2937567,108.240977 52.5657546,108.240977 C40.8377524,108.240977 24.5870956,94.5191793 19.0882779,74.0939761 L18.1308422,70.5427813 L14.6194643,71.6697373 C14.3853725,71.7444011 14.1559624,71.8260646 13.9031432,71.8633964 C11.3609056,72.2553811 9.00828247,70.4471184 8.65714469,68.1302087 L8.08596055,63.0110751 C7.91039166,61.8654532 8.16086995,60.8714919 8.82569082,60.0595236 C9.5279664,59.2055569 10.6422436,58.6269128 11.9648626,58.4285872 C12.44241,58.3609232 12.8895255,58.3982551 13.3272773,58.4635859 L17.215543,59.04223 L17.3559981,55.1247161 C17.5994537,48.248651 18.4094115,42.3432148 19.804599,37.3034114 C26.8250138,42.739866 41.0343896,48.6313028 56.2971788,48.0969903 C76.0943272,47.4110171 76.0943272,45.157105 76.0943272,45.157105 L59.6915107,32.7535889 C59.6915107,32.7535889 70.4386679,28.2457647 80.0504796,35.0098342 C82.4077846,36.6687695 84.5286569,38.5703619 86.2305047,41.045932 C87.0779172,45.2084363 87.5905784,49.8865871 87.775511,55.1247161 L87.9136252,59.04223 L91.8042318,58.4635859 C92.2466655,58.4005883 92.7031446,58.3632564 93.1666465,58.4285872 C94.4916064,58.6269128 95.6058836,59.2055569 96.3058183,60.0595236 C96.9729801,60.8714919 97.2234584,61.8654532 97.0291621,63.1510697 M137.424053,60.9461557 C134.818611,55.0033875 129.631135,50.2809051 124.122954,48.3233148 C121.377056,47.2896885 118.551568,46.8207067 115.777579,46.8650384 C113.556047,46.9630345 111.308765,47.2710225 109.190234,48.180987 C108.064252,46.6457136 106.257063,45.6377529 104.201737,45.6377529 C103.34496,45.6377529 102.530321,45.8104128 101.785909,46.1254005 C100.009151,20.5437319 78.6810423,0.328520517 52.5657546,0.328520517 C25.2870303,0.328520517 3.17237245,22.3683274 3.17237245,49.5576 C3.17237245,51.5618551 3.30346389,53.5357781 3.54691942,55.4723692 C3.50010105,55.5260338 3.43923716,55.5703654 3.39241879,55.6263632 C1.47052464,57.9666053 0.672271398,60.9601551 1.12172777,63.9210396 L1.6929119,69.03784 C2.54734718,74.6679537 7.49370815,78.9144547 13.1985267,78.9167879 C19.8256672,99.2043298 36.968214,115.240704 52.5657546,115.240704 C68.1632951,115.240704 85.3058419,99.2043298 91.9306414,78.9167879 C97.6401419,78.9167879 102.586503,74.6679537 103.457325,68.902512 L103.993395,64.0587009 C104.321124,61.8771194 103.993395,59.7608686 103.11555,57.8732756 C103.469029,57.9362731 103.829531,57.9829379 104.201737,57.9829379 C106.729929,57.9829379 108.892937,56.4686637 109.857396,54.3104146 C112.699271,56.0953449 115.101054,58.2465943 116.760765,60.3185135 C118.731818,62.8617476 119.565185,65.1109932 119.93505,67.3882377 C120.269802,69.6911479 120.119983,72.3487108 119.700959,75.5032544 C119.239798,78.6391321 118.497726,82.1903269 117.350676,85.8395179 C117.058062,86.7494824 116.742038,87.6664466 116.407286,88.5834108 L115.2181,91.9292803 C114.447937,94.1808591 113.757366,96.4744363 113.153409,98.8123451 C112.001677,103.499829 111.222151,108.373972 111.273652,113.437108 C111.357925,118.453579 112.191292,123.845702 115.19469,128.596183 C116.69756,130.927092 118.844182,132.980345 121.36067,134.146967 C123.872476,135.32992 126.587941,135.558578 128.966314,135.122262 L129.08336,132.793686 C125.017185,131.48707 122.88929,128.554185 122.367265,125.317978 C121.760967,122.058438 122.325128,118.399914 123.371519,114.818387 C124.422591,111.215861 125.99803,107.636668 127.823946,104.141471 C128.718177,102.384539 129.69434,100.648607 130.733708,98.9383402 L132.341919,96.3717736 C132.964603,95.3311476 133.570901,94.2741888 134.160813,93.1915644 C136.5228,88.8703996 138.58749,84.0919194 139.523857,78.6227994 C140.457884,73.2026775 140.146542,66.8562584 137.424053,60.9461557 M70.1132803,57.8219442 C66.1056276,57.6959491 62.2009754,59.3758836 59.1882132,62.6890877 L60.9228339,64.2570265 C62.2922713,62.7544185 63.8700504,61.6437951 65.548489,60.9531554 C65.3284427,61.3661393 65.1809648,61.8234548 65.1318055,62.3157689 C64.9328274,64.3223573 66.3982425,66.1072877 68.4090915,66.3079465 C70.4175997,66.5086053 72.2130842,65.0456624 72.4120623,63.0414073 C72.5103809,62.0451128 72.1990387,61.1048162 71.61615,60.3861775 C73.6784993,60.8248271 75.4903702,61.8934521 76.7123297,63.4963895 L78.5780418,62.0847779 C76.6210339,59.5228779 73.5357032,57.9689385 70.1132803,57.8219442 M34.7022048,57.8219442 C31.2797819,57.9689385 28.1944512,59.5228779 26.2397842,62.0847779 L28.1054963,63.4963895 C29.3274558,61.8934521 31.1369858,60.8248271 33.1993351,60.3861775 C32.6164464,61.1048162 32.3051042,62.0451128 32.4034228,63.0414073 C32.6047418,65.0456624 34.3978854,66.5086053 36.4087345,66.3079465 C38.4149017,66.1072877 39.8826577,64.3223573 39.6813387,62.3157689 C39.6321794,61.8234548 39.4870424,61.3661393 39.2669961,60.9554887 C40.9454347,61.6437951 42.5208729,62.7520852 43.8903103,64.2570265 L45.624931,62.6890877 C42.6121687,59.3758836 38.721562,57.7006156 34.7022048,57.8219442 M22.1736086,57.3622955 L24.2663898,58.4099213 C24.3530038,58.2419278 26.4293986,54.3547462 32.8481973,53.9907604 C37.9677863,53.717771 43.4244675,56.587659 45.5453397,57.8406102 L46.7392082,55.836355 C43.8739239,54.1400879 38.2440147,51.3751957 32.714765,51.6621845 C24.8773695,52.1078338 22.2812908,57.1476372 22.1736086,57.3622955 M52.408913,89.4023789 C50.4472232,89.4023789 48.8577395,90.9866504 48.8577395,92.9419075 C48.8577395,94.892498 50.4472232,96.4791028 52.408913,96.4791028 C54.3706028,96.4791028 55.9624274,94.892498 55.9624274,92.9419075 C55.9624274,90.9866504 54.3706028,89.4023789 52.408913,89.4023789" id="avatar-icon-28"></path>
                </g>
            </g>
        </g>
    </g>
</svg>