<?xml version="1.0" encoding="UTF-8" standalone="no"?>
<svg width="104px" height="119px" viewBox="0 0 104 119" version="1.1" xmlns="http://www.w3.org/2000/svg" xmlns:xlink="http://www.w3.org/1999/xlink" xmlns:sketch="http://www.bohemiancoding.com/sketch/ns">
    <!-- Generator: Sketch 3.2.2 (9983) - http://www.bohemiancoding.com/sketch -->
    <title>avatar-icon-29</title>
    <desc>Created with Sketch.</desc>
    <defs></defs>
    <g id="Page-1" stroke="none" stroke-width="1" fill="none" fill-rule="evenodd" sketch:type="MSPage">
        <g id="item-collection-preview" sketch:type="MSArtboardGroup" transform="translate(-183.000000, -1711.000000)" fill="#2F2F2F">
            <g id="avatars" sketch:type="MSLayerGroup" transform="translate(183.000000, 80.000000)">
                <g id="avatar" transform="translate(0.000000, 1631.000000)" sketch:type="MSShapeGroup">
                    <path d="M69.6227507,47.0064393 C64.5296478,46.987893 60.3161337,49.2111267 59.4861992,52.1460733 L79.7214704,52.2179401 C78.9104517,49.2783569 74.7158535,47.0249855 69.6227507,47.0064393 M70.3108161,59.017465 C66.2793675,59.3953452 62.5789469,61.7229016 60.0915076,65.3533332 L62.049302,66.6469353 C63.148788,65.0473198 64.501274,63.7792189 65.9979936,62.8774067 C65.9057787,63.2205126 65.849031,63.5775282 65.8632179,63.9577267 C65.9507039,65.9537686 67.6791432,67.5070184 69.7102367,67.4166054 C71.7507881,67.3308289 73.3302647,65.6361638 73.2427788,63.6378036 C73.2025825,62.7336731 72.8195358,61.9361837 72.2355077,61.3311117 C74.3375358,61.4794819 76.2811433,62.2769713 77.7187508,63.665623 L79.3762555,62.0173236 C77.0543302,59.7732254 73.7511432,58.6789956 70.3108161,59.017465 M90.2434332,80.0535676 L86.0180967,80.0350213 L86.3916854,83.8578704 C86.4011434,83.9552383 87.2972836,94.0304975 80.0146667,101.85934 C74.1578348,108.158116 64.6124048,111.322573 51.6361056,111.278525 C38.7236475,111.227523 29.2775259,108.025974 23.5649277,101.755017 C16.4596472,93.9586307 17.5071146,83.7489111 17.5165725,83.6584981 L17.9776473,79.786965 L14.0076753,79.7730553 L13.7286659,79.7776919 C10.1819369,79.6362766 7.34691817,76.3443143 7.36110509,72.3336842 C7.375292,68.3346455 10.2244976,65.0705027 13.7570397,64.9429971 L17.6087874,64.9569068 L17.679722,46.4894621 C29.2988063,42.2377306 37.2836755,36.4536137 43.3296663,30.9662372 C42.1379653,35.5216639 41.3245821,41.0414964 41.4404419,47.6231026 C52.6126383,44.0320818 60.60933,39.0222716 66.7877319,33.9892786 C66.4306946,36.0015485 66.2178908,38.2711478 66.2628161,40.842124 C74.5148722,38.1876896 79.6789097,34.1492402 83.4597228,30.5303999 C85.4104238,33.6253081 86.5477415,37.2603763 86.5335546,41.1597288 L86.4437041,65.2072814 L90.2694425,65.2142362 C93.8114425,65.3556515 96.6535547,68.6476138 96.6393678,72.6582439 C96.6204519,76.6572825 93.7759753,79.9214254 90.2434332,80.0535676 M93.5631715,58.7415893 L93.5868164,52.6143666 C93.5868164,52.6143666 98.5829753,23.0423449 90.777807,12.8905824 C83.3296761,3.20479482 76.9621152,0.186389976 49.8438252,0.186389976 C22.7255352,0.186389976 12.0853481,10.3381525 9.56480605,21.8739301 C8.52916117,26.6032281 10.5649836,51.6267779 10.5649836,51.6267779 L10.5389743,58.4425307 C4.65849758,60.0398279 0.293656405,65.6454369 0.267647059,72.3105014 C0.244002199,78.952383 4.54027328,84.5719017 10.3734603,86.2341108 C10.5200584,90.8080837 11.763778,99.1840413 18.199909,106.305808 C25.3028249,114.16247 36.5435914,118.177736 51.6077318,118.233375 C66.6742366,118.286696 77.9953956,114.357205 85.2543677,106.551546 C91.8323678,99.4784632 93.2439659,91.1025057 93.4804145,86.5470791 C99.3490688,84.9381905 103.704452,79.337218 103.732826,72.6814267 C103.756471,66.0163623 99.4318258,60.3806156 93.5631715,58.7415893 M50.8960215,91.9834534 C43.6559653,91.9579523 36.9810213,90.4812058 33.4768531,88.12583 L30.8073484,91.9533157 C35.1107129,94.8465332 42.6155915,96.5898823 50.8771056,96.6200199 C59.6469842,96.6524759 67.6554983,94.705118 71.7767974,91.5360247 L68.8613862,87.8870468 C65.5865731,90.4047025 58.5356758,92.0112728 50.8960215,91.9834534 M51.6904888,81.8456005 C55.3034234,81.8595102 58.2566664,79.2653512 58.2708533,76.063802 L55.3152458,76.0545289 C55.3057879,77.6587809 53.686115,78.9570196 51.6999467,78.9477464 C49.7137785,78.9431099 48.101199,77.6309615 48.110657,76.0290278 L45.152685,76.0197546 C45.1408625,79.2213039 48.0704607,81.8316908 51.6904888,81.8456005 M34.7158437,47.0064393 C29.6227409,47.0249855 25.4305072,49.2783569 24.6194885,52.2179401 L44.8523952,52.1460733 C44.0248251,49.2111267 39.8136756,46.987893 34.7158437,47.0064393 M34.2855073,67.4166054 C36.3213297,67.5070184 38.0474045,65.9537686 38.137255,63.9577267 C38.1490774,63.5775282 38.0946942,63.2205126 38.0024793,62.8774067 C39.4991989,63.7792189 40.8516849,65.0473198 41.9511709,66.6469353 L43.9089653,65.3533332 C41.4191616,61.7229016 37.7211054,59.3953452 33.6896568,59.017465 C30.2493297,58.6789956 26.9414137,59.7732254 24.6194885,62.0173236 L26.2817221,63.665623 C27.7169651,62.2769713 29.6582082,61.4794819 31.7626007,61.3311117 C31.1762082,61.9361837 30.7931614,62.7336731 30.7553297,63.6378036 C30.6631147,65.6361638 32.2473203,67.3308289 34.2855073,67.4166054" id="avatar-icon-29"></path>
                </g>
            </g>
        </g>
    </g>
</svg>