<?xml version="1.0" encoding="UTF-8" standalone="no"?>
<svg width="103px" height="133px" viewBox="0 0 103 133" version="1.1" xmlns="http://www.w3.org/2000/svg" xmlns:xlink="http://www.w3.org/1999/xlink" xmlns:sketch="http://www.bohemiancoding.com/sketch/ns">
    <!-- Generator: Sketch 3.2.2 (9983) - http://www.bohemiancoding.com/sketch -->
    <title>avatar-icon-02</title>
    <desc>Created with Sketch.</desc>
    <defs></defs>
    <g id="Page-1" stroke="none" stroke-width="1" fill="none" fill-rule="evenodd" sketch:type="MSPage">
        <g id="item-collection-preview" sketch:type="MSArtboardGroup" transform="translate(-414.000000, -90.000000)" fill="#2F2F2F">
            <g id="avatars" sketch:type="MSLayerGroup" transform="translate(183.000000, 80.000000)">
                <g id="avatar" transform="translate(231.000000, 10.000000)" sketch:type="MSShapeGroup">
                    <path d="M89.3795418,90.3147474 L85.1834184,90.3124149 L85.5708613,94.158752 C85.5802538,94.2590506 86.5077685,104.389216 79.3013316,112.296482 C78.0568182,113.663343 76.6080168,114.855264 75.0253715,115.928227 L75.0253715,108.461808 C75.0253715,102.240958 69.2700842,97.181707 62.195143,97.181707 L53.4506755,97.181707 C51.0861,96.6615535 49.3109074,94.5669442 49.3109074,92.0618101 L49.3109074,76.3872284 L52.9152999,76.3872284 C53.8897773,84.9079497 61.1830954,91.5509867 70.0144441,91.5509867 C79.1909691,91.5509867 86.6909233,84.3807986 87.1887287,75.3935719 L89.3513642,75.3912394 C92.8735718,75.5171958 95.7030787,78.8153891 95.7030787,82.8529934 C95.7030787,86.8766025 92.8876607,90.1701307 89.3795418,90.3147474 L89.3795418,90.3147474 Z M67.9809562,119.42935 C64.1135721,120.75889 59.6145389,121.521627 54.5566487,121.761877 L54.5566487,118.372715 L47.5122333,118.372715 L47.5122333,121.754879 C42.6257572,121.502966 38.2723085,120.763555 34.5223314,119.489996 L34.5223314,108.461808 C34.5223314,106.140943 37.1733797,104.179288 40.3081446,104.179288 L62.195143,104.179288 C65.332256,104.179288 67.9809562,106.140943 67.9809562,108.461808 L67.9809562,119.42935 Z M27.4779161,108.461808 L27.4779161,116.000535 C25.9093596,114.93457 24.474647,113.751979 23.2465706,112.396781 C16.1598888,104.573485 17.1625439,94.2963711 17.1719365,94.2054025 L17.6157346,90.3124149 L13.670862,90.3124149 L13.3961298,90.3147474 C9.87392217,90.1864584 7.04441534,86.8882652 7.04441534,82.8529934 C7.04441534,78.8270517 9.85983334,75.5335235 13.3679522,75.3912394 L14.4927105,75.3912394 C14.9905158,84.3807986 22.49047,91.5509867 31.6622988,91.5509867 C36.8282034,91.5509867 41.4563843,89.2721078 44.6146305,85.6846812 L44.6146305,92.0618101 C44.6146305,93.9418269 45.1734874,95.6842246 46.0916096,97.181707 L40.3081446,97.181707 C33.2332034,97.181707 27.4779161,102.240958 27.4779161,108.461808 L27.4779161,108.461808 Z M32.0873119,76.132983 C34.2194216,75.9230555 35.7738892,74.0337086 35.5625568,71.9134415 C35.5437717,71.7315044 35.4968089,71.56123 35.4545424,71.388623 C37.2837423,71.8434657 38.9603131,72.6248623 40.3175371,73.7468078 L41.5643986,72.2609881 C43.2339251,72.9560811 44.1872693,73.7561379 44.1872693,74.4465659 C44.1872693,81.3065279 38.5705221,86.8859326 31.6622988,86.8859326 C24.7587718,86.8859326 19.1396765,81.3065279 19.1396765,74.4465659 C19.1396765,73.8331113 19.8793401,73.1263556 21.217779,72.4872432 L23.2418743,74.1480024 C24.2492257,72.9350884 25.9304929,71.999745 27.933455,71.4539337 C27.8442257,71.8481308 27.7996111,72.256323 27.8418776,72.6785104 C28.05321,74.80111 29.9552022,76.3452429 32.0873119,76.132983 L32.0873119,76.132983 Z M70.5380789,76.132983 C72.6701886,75.9230555 74.2246563,74.0337086 74.0133238,71.9134415 C73.9945387,71.7315044 73.947576,71.56123 73.9053095,71.388623 C75.7345093,71.8434657 77.4110802,72.6248623 78.7683042,73.7468078 L79.9893362,72.2913109 C81.6118998,72.9770739 82.5394145,73.765468 82.5394145,74.4465659 C82.5394145,81.3065279 76.9226674,86.8859326 70.0144441,86.8859326 C63.110917,86.8859326 57.4918217,81.3065279 57.4918217,74.4465659 C57.4918217,73.8237812 58.259663,73.1053629 59.6356721,72.4615854 L61.6926414,74.1480024 C62.6999928,72.9350884 64.3812599,71.999745 66.384222,71.4539337 C66.2949928,71.8481308 66.2503781,72.256323 66.2926446,72.6785104 C66.5039771,74.80111 68.4059692,76.3452429 70.5380789,76.132983 L70.5380789,76.132983 Z M17.1930697,51.1959363 C17.1930697,45.1616889 19.8769919,39.7455611 24.101293,36.027513 C30.3097711,38.4463435 40.1226416,41.3993227 51.2504697,41.3993227 C62.4628308,41.3993227 72.3743232,38.3950279 78.5757568,35.9645347 C82.8423244,39.6872479 85.5544243,45.1290335 85.5544243,51.1959363 L85.5544243,70.3903014 C82.5253257,67.2180646 75.9082716,65.9934879 70.0167922,65.9934879 C63.3668641,65.9934879 55.8035102,67.556281 53.5093789,71.7221743 L48.1720602,71.7221743 C45.877929,67.556281 38.314575,65.9934879 31.6646469,65.9934879 C26.3860317,65.9934879 20.5368189,66.9801468 17.1930697,69.4666207 L17.1930697,51.1959363 Z M92.5988396,68.8624962 L92.5988396,51.1959363 C92.5988396,42.847822 88.7925072,35.3720729 82.8258874,30.3641373 C83.9130755,28.5424337 83.8473276,26.8186962 83.8473276,26.8186962 C81.903069,3.63337738 55.9678799,-0.877729927 43.0014594,0.412157529 C40.3527592,0.675733085 36.9150845,1.35916351 33.1862407,2.64671844 C26.5715347,3.74067362 19.1208914,6.80794668 10.7849999,12.8048737 C10.7849999,12.8048737 13.0579979,12.6089414 16.5637686,12.7722183 C7.88270076,21.3302601 1.67891899,35.3254223 5.07432718,57.7340096 C6.75089803,54.4008285 8.48852048,51.4431842 10.2731057,48.7654432 C10.2003134,49.5678325 10.1486544,50.3772193 10.1486544,51.1959363 L10.1486544,68.8624962 C4.31587846,70.4906 0,76.1469781 0,82.8529934 C0,89.5356834 4.28535266,95.1734012 10.0876028,96.8271629 C10.2496243,101.429239 11.5176191,109.851994 17.9327333,116.991859 C24.4253361,124.21103 34.3908357,128.132008 47.5122333,128.745463 L47.5122333,132.953342 L54.5566487,132.953342 L54.5566487,128.752461 C67.8071939,128.176326 77.9065374,124.257681 84.5259397,116.994192 C91.0302832,109.854326 92.401596,101.424574 92.6199729,96.8388255 C98.4410081,95.199059 102.747494,89.5496785 102.747494,82.8529934 C102.747494,76.1469781 98.4316155,70.4906 92.5988396,68.8624962 L92.5988396,68.8624962 Z M25.270666,78.4235245 C26.5973642,79.5501351 28.4195196,80.2895462 30.3990003,80.5111362 C30.8075764,80.5577868 31.2114562,80.5787795 31.6106398,80.5787795 C34.1959402,80.5787795 36.5581675,79.6387711 37.8379029,78.0433226 L35.6611786,76.3195851 C34.9285594,77.2339357 33.1204928,78.0409901 30.7113027,77.7610868 C29.2977234,77.6071401 27.9733733,77.0776564 27.0787326,76.3219177 L25.270666,78.4235245 Z M63.721433,78.4235245 C65.0481312,79.5501351 66.8702867,80.2895462 68.8497674,80.5111362 C69.2583435,80.5577868 69.6622233,80.5787795 70.0614068,80.5787795 C72.6467073,80.5787795 75.0089345,79.6387711 76.28867,78.0433226 L74.1119456,76.3195851 C73.3793265,77.2339357 71.5712598,78.0409901 69.1620698,77.7610868 C67.7484905,77.6071401 66.4241404,77.0776564 65.5294996,76.3219177 L63.721433,78.4235245 Z M50.9851301,108.751041 C46.793703,108.751041 42.8112602,107.890339 40.841172,106.558466 L38.1995162,110.416465 C40.9797122,112.296482 45.760522,113.416095 50.9851301,113.416095 C56.6230105,113.416095 61.601064,112.149533 64.3037714,110.031598 L61.3944278,106.369531 C59.8822267,107.556787 56.0782424,108.751041 50.9851301,108.751041 L50.9851301,108.751041 Z M67.3469588,61.0695233 C72.0620208,59.3411208 72.5527817,59.1638487 75.1873931,58.368457 C76.0984708,58.0955513 77.5449241,59.3084654 78.1178698,60.0175536 L81.7833139,57.1042273 C81.4123081,56.6400545 78.0309887,52.6351055 73.8231246,53.9040002 C71.0593657,54.7367124 70.4488497,54.960635 65.722047,56.6913701 L54.8900843,60.4304109 L56.5056036,64.8085642 L67.3469588,61.0695233 Z M44.7790002,64.8108967 L45.0419917,60.1551727 L33.5854242,59.7003299 C28.5533635,59.4087641 27.9052773,59.3691111 25.017067,59.3691111 C20.6213518,59.3691111 18.55499,64.1787819 18.3366131,64.7269257 L22.6947581,66.4576608 C23.0352382,65.613286 24.0660709,64.0341652 25.017067,64.0341652 C27.7690853,64.0341652 28.2927201,64.064488 33.310692,64.3583864 L44.7790002,64.8108967 Z" id="avatar-icon-02"></path>
                </g>
            </g>
        </g>
    </g>
</svg>