<?xml version="1.0" encoding="UTF-8" standalone="no"?>
<svg width="103px" height="126px" viewBox="0 0 103 126" version="1.1" xmlns="http://www.w3.org/2000/svg" xmlns:xlink="http://www.w3.org/1999/xlink" xmlns:sketch="http://www.bohemiancoding.com/sketch/ns">
    <!-- Generator: Sketch 3.2.2 (9983) - http://www.bohemiancoding.com/sketch -->
    <title>avatar-icon-36</title>
    <desc>Created with Sketch.</desc>
    <defs></defs>
    <g id="Page-1" stroke="none" stroke-width="1" fill="none" fill-rule="evenodd" sketch:type="MSPage">
        <g id="item-collection-preview" sketch:type="MSArtboardGroup" transform="translate(-874.000000, -1938.000000)" fill="#2F2F2F">
            <g id="avatars" sketch:type="MSLayerGroup" transform="translate(183.000000, 80.000000)">
                <g id="avatar" transform="translate(690.000000, 1858.000000)" sketch:type="MSShapeGroup">
                    <path d="M72.6322284,58.0140481 C67.1095029,57.7063052 61.4838985,60.5112291 58.621995,62.2120372 L59.8144548,64.2346833 C61.9351627,62.9708232 67.4181396,60.0625352 72.4989535,60.3585322 C78.9101785,60.7250047 80.9864614,64.6387427 81.0659587,64.8008363 L83.163285,63.7531009 C83.0557298,63.5393253 80.4603762,58.462742 72.6322284,58.0140481 M70.6471336,64.2158899 C66.6418716,64.0866848 62.7441648,65.7827946 59.7349575,69.1186337 L61.4675314,70.6949352 C62.8353529,69.1797125 64.4112704,68.0638508 66.0877285,67.3684928 C65.8656037,67.7819489 65.7182998,68.2447378 65.6691985,68.7404153 C65.4704552,70.7583631 66.9341412,72.5578369 68.9449557,72.7575174 C70.9510939,72.9595471 72.7444599,71.4866097 72.9432032,69.4686619 C73.0414058,68.4679102 72.730431,67.5211896 72.14823,66.7976414 C74.2081459,67.2392877 76.017879,68.3152133 77.2383966,69.9291017 L79.1019073,68.5078463 C77.1472085,65.9260947 74.0655183,64.3638884 70.6471336,64.2158899 M96.9139831,66.2714245 L96.3785453,71.1459782 C96.0067784,73.6290641 93.7060324,75.4355854 91.1130169,75.0432719 C90.8651724,75.005685 90.6313567,74.9234636 90.4022174,74.8482898 L85.8194308,73.3659556 L85.8194308,78.2029224 C85.8194308,86.6623285 84.0798424,97.0692069 81.8585937,101.899126 C79.1533467,107.776781 62.6483004,118.808542 52.5030396,118.808542 C42.3063394,118.808542 24.9595567,106.71495 22.5465793,100.743328 C20.4399003,95.5304924 19.1819721,85.1893911 19.1819721,78.2029224 L19.1819721,73.3659556 L14.5991855,74.8482898 C14.3653699,74.9234636 14.1315542,75.005685 13.8860478,75.0432719 C11.3468099,75.4355854 8.99462451,73.6126198 8.64390104,71.28458 L8.07339087,66.1304736 C7.89569098,64.9746758 8.14821188,63.9762733 8.81224831,63.1587578 C9.51369524,62.3013061 10.6243196,61.7163597 11.9477161,61.5166792 C12.4176855,61.4462037 12.8666116,61.4861398 13.3108613,61.5519169 L17.1945392,62.1345142 L17.3348285,58.1902368 C17.5967021,50.7151381 18.5155975,44.3746946 20.1242492,39.0514471 C27.4987946,44.2290453 40.9198126,49.4559763 55.2620642,48.9532513 C75.0358532,48.2602424 75.0358532,45.9909322 75.0358532,45.9909322 L58.6547292,33.5026781 C58.6547292,33.5026781 69.3868673,28.9640575 78.9920139,35.7743375 C81.7253188,37.7147623 84.1219292,40.0122627 85.9316623,43.1319771 C86.8926446,47.5437418 87.4725074,52.5381037 87.6712507,58.1902368 L87.8092019,62.1345142 L91.6928797,61.5519169 C92.1371295,61.4861398 92.5907318,61.4462037 93.0536868,61.5166792 C94.3794215,61.7163597 95.4900458,62.3013061 96.1914927,63.1587578 C96.8555292,63.9762733 97.1057119,64.9746758 96.9139831,66.2714245 M101.618354,58.695311 C101.234896,58.2254745 100.799999,57.8002725 100.344059,57.4009115 C100.678415,55.1222045 100.87482,52.7965138 100.87482,50.4238395 C100.87482,23.0464668 78.7862562,0.856089081 51.537381,0.856089081 C24.290844,0.856089081 2.20228004,23.0464668 2.20228004,50.4238395 C2.20228004,53.4401898 2.49221144,56.3860646 3.02297295,59.2497181 C1.39795423,61.5190284 0.701183607,64.2863653 1.11737545,67.0466548 L1.68788563,72.2007611 C2.49688775,77.5639447 6.96510472,81.6773633 12.2727198,82.1072637 C12.6351341,89.2910637 13.9328109,98.1615768 16.0488425,103.395555 C19.6308982,112.263719 39.8091883,125.856089 52.5030396,125.856089 C65.0846594,125.856089 84.2364988,113.529929 88.2253937,104.854398 C90.799704,99.2609942 92.3288583,89.8760101 92.7286831,82.1072637 C98.0386363,81.6820616 102.509191,77.5568972 103.334561,72.0598102 L103.869999,67.1852565 C104.335292,64.0678914 103.540318,61.0515411 101.618354,58.695311 M52.9613183,90.1038808 C55.8232218,90.1038808 58.1496874,87.9919658 58.1496874,85.3961192 L55.811531,85.3961192 C55.811531,86.6975662 54.5325594,87.7546984 52.9613183,87.7546984 C51.3900771,87.7546984 50.1111056,86.6975662 50.1111056,85.3961192 L47.7729491,85.3961192 C47.7729491,87.9919658 50.0994148,90.1038808 52.9613183,90.1038808 M52.6947684,99.8882259 C48.1797883,99.8882259 44.0131936,98.0957997 41.8106502,95.2110036 L38.0976578,98.0676095 C41.2120821,102.150489 46.6670011,104.586591 52.6947684,104.586591 C59.0802737,104.586591 64.8789017,101.795762 67.8226406,97.3064743 L63.9179194,94.7200244 C61.8603417,97.8585322 57.4529168,99.8882259 52.6947684,99.8882259 M46.1081817,64.2323341 L47.3006415,62.2143864 C44.438738,60.5112291 38.8154718,57.7227495 33.2927463,58.0140481 C25.4645985,58.462742 22.871583,63.5393253 22.7640278,63.7531009 L24.8543397,64.8078839 C24.9408515,64.6387427 27.0147962,60.7250047 33.423683,60.3585322 C38.5395693,60.0813287 43.989812,62.9708232 46.1081817,64.2323341 M40.2510998,68.7404153 C40.2019986,68.2447378 40.0570329,67.7819489 39.834908,67.3684928 C41.5137043,68.0615016 43.0872836,69.1773633 44.4551051,70.6949352 L46.1853409,69.1186337 C43.1784717,65.7827946 39.2924557,64.0937324 35.2755029,64.2158899 C31.8594564,64.3638884 28.7777662,65.9284439 26.8254055,68.5078463 L28.6889162,69.9291017 C29.9070957,68.3152133 31.7168288,67.2392877 33.7767447,66.7976414 C33.1945437,67.5211896 32.8835689,68.4679102 32.9817715,69.4686619 C33.1828529,71.4866097 34.9738807,72.9595471 36.9823571,72.7575174 C38.9861572,72.5578369 40.4521813,70.7583631 40.2510998,68.7404153" id="avatar-icon-36"></path>
                </g>
            </g>
        </g>
    </g>
</svg>