<?xml version="1.0" encoding="UTF-8" standalone="no"?>
<svg width="103px" height="130px" viewBox="0 0 103 130" version="1.1" xmlns="http://www.w3.org/2000/svg" xmlns:xlink="http://www.w3.org/1999/xlink" xmlns:sketch="http://www.bohemiancoding.com/sketch/ns">
    <!-- Generator: Sketch 3.2.2 (9983) - http://www.bohemiancoding.com/sketch -->
    <title>avatar-icon-01</title>
    <desc>Created with Sketch.</desc>
    <defs></defs>
    <g id="Page-1" stroke="none" stroke-width="1" fill="none" fill-rule="evenodd" sketch:type="MSPage">
        <g id="item-collection-preview" sketch:type="MSArtboardGroup" transform="translate(-184.000000, -91.000000)" fill="#2F2F2F">
            <g id="avatars" sketch:type="MSLayerGroup" transform="translate(183.000000, 80.000000)">
                <g id="avatar" transform="translate(1.000000, 11.000000)" sketch:type="MSShapeGroup">
                    <path d="M77.2942537,49.061616 L55.5204951,49.061616 L55.5204951,77.0493261 L59.0513749,77.0493261 L59.0513749,63.4065798 L59.4797883,63.7940911 C60.8638932,62.2722285 62.5375302,61.1824998 64.3524024,60.5483904 C64.2276446,60.860748 64.12878,61.1895454 64.0934712,61.5418284 C63.8910341,63.5592358 65.3669418,65.3582276 67.3866051,65.5578547 C69.4086222,65.7598302 71.2117248,64.2872873 71.411808,62.26988 C71.4800717,61.5887995 71.3458982,60.9429473 71.0775514,60.3652032 C73.0689676,60.9758271 74.7237732,62.1735893 75.698296,63.7659085 L77.7085436,62.5399636 C76.0278448,59.7992019 72.8641765,57.957936 69.2438478,57.6197444 C65.5293623,57.2674614 61.9137414,58.4746178 59.0513749,60.9452959 L59.0513749,53.7587227 L77.2942537,53.7587227 C78.2475912,53.7587227 79.280962,55.3486933 79.6222804,56.1988696 L83.9911557,54.456243 C83.7698872,53.904333 81.7007916,49.061616 77.2942537,49.061616 L77.2942537,49.061616 Z M58.8866005,83.3434491 C58.6700399,83.3434491 58.4581871,83.3011751 58.253396,83.2330671 C58.3969852,82.7844934 58.4982037,82.3218284 58.4982037,81.8380264 L55.4381079,81.8380264 C55.4381079,83.2119301 53.6679602,84.3697669 51.5753254,84.3697669 C49.4803368,84.3697669 47.710189,83.2119301 47.710189,81.8380264 L44.6500932,81.8380264 C44.6500932,82.3218284 44.7513118,82.7844934 44.8949009,83.2330671 C44.6901099,83.3011751 44.480611,83.3434491 44.2640504,83.3434491 C43.1059218,83.3434491 42.1643539,82.3617538 42.1643539,81.1522488 L39.1042581,81.1522488 C39.1042581,84.0456665 41.4181613,86.3965684 44.2640504,86.3965684 C45.1043998,86.3965684 45.9117943,86.1523189 46.6485712,85.7577619 C47.9079183,86.7864283 49.6474651,87.4252348 51.5753254,87.4252348 C53.5008319,87.4252348 55.2427326,86.7864283 56.4997258,85.7577619 C57.2365027,86.1523189 58.0462511,86.3965684 58.8866005,86.3965684 C61.7301357,86.3965684 64.0440389,84.0456665 64.0440389,81.1522488 L60.9839431,81.1522488 C60.9839431,82.3617538 60.0423751,83.3434491 58.8866005,83.3434491 L58.8866005,83.3434491 Z M43.070613,63.7940911 L43.9462712,63.0026286 L43.9462712,77.0493261 L47.477151,77.0493261 L47.477151,49.061616 L25.7033924,49.061616 C21.2968544,49.061616 19.2277589,53.904333 19.0064904,54.456243 L23.3777196,56.1988696 C23.719038,55.3486933 24.7524088,53.7587227 25.7033924,53.7587227 L43.9462712,53.7587227 L43.9462712,61.3609898 C41.015641,58.615531 37.2069987,57.2486729 33.3065535,57.6197444 C29.6862248,57.957936 26.5225565,59.7992019 24.8442116,62.5399636 L26.8521053,63.7659085 C27.8266281,62.1735893 29.4837877,60.9758271 31.4752039,60.3652032 C31.2045031,60.9429473 31.0703296,61.5887995 31.1385933,62.26988 C31.3410304,64.2872873 33.144133,65.7598302 35.1661502,65.5578547 C37.1858134,65.3582276 38.6593672,63.5592358 38.459284,61.5418284 C38.4239752,61.1895454 38.3251106,60.860748 38.2003529,60.5483904 C40.0128711,61.1824998 41.6888621,62.2745771 43.070613,63.7940911 L43.070613,63.7940911 Z M89.6005467,73.653318 L86.4816029,73.6509695 L85.7636573,73.6509695 L85.7636573,74.2357592 L68.0198095,88.6535282 L35.4603902,88.6535282 L17.2363427,73.8458994 L17.2363427,73.6509695 L13.7054629,73.6509695 L13.4300543,73.653318 C9.89917453,73.5241476 7.06270111,70.2032932 7.06270111,66.1379473 C7.06270111,62.0866928 9.88269709,58.7705355 13.3994533,58.6249252 L17.2363427,58.6272737 L17.2363427,44.5946675 C25.2467319,42.8285554 38.0638255,41.9361052 50.9232896,41.9361052 C64.3971268,41.9361052 77.8591945,42.9060577 85.7636573,44.8436142 L85.7636573,58.6272737 L89.5699457,58.6249252 C93.1008255,58.7540956 95.9372989,62.07495 95.9372989,66.1379473 C95.9372989,70.1915504 93.1173029,73.5077077 89.6005467,73.653318 L89.6005467,73.653318 Z M39.4832392,98.529195 C40.8155578,96.2980693 45.8176375,94.632945 51.822487,94.632945 C57.8249826,94.632945 62.8270623,96.2980693 64.1617349,98.529195 L39.4832392,98.529195 Z M51.822487,104.778695 C45.8152836,104.778695 40.8132039,103.113571 39.4808853,100.877748 L64.1617349,100.877748 C62.8294162,103.113571 57.8273366,104.778695 51.822487,104.778695 L51.822487,104.778695 Z M14.1903704,28.0678977 C14.1903704,18.0513177 22.0712941,9.74918163 32.3202611,8.26959303 C29.4602485,11.5669619 27.5300342,16.2170975 26.4378154,22.2763651 C20.1387259,25.4492607 17.4411337,29.8621924 14.1903704,33.7279112 L14.1903704,28.0678977 Z M40.3800826,8.01125216 L49.1460802,8.01125216 L49.1460802,17.9832096 C41.6559072,18.0959402 36.0300388,18.9273281 31.6870566,20.2260781 C33.3041996,13.906121 36.1500887,9.89009483 40.3800826,8.01125216 L40.3800826,8.01125216 Z M53.8539198,8.01125216 L62.6199174,8.01125216 C66.9393603,9.93236879 69.8229121,14.0634741 71.4212237,20.6182865 C67.12532,19.1668805 61.5041594,18.1922309 53.8539198,17.9949524 L53.8539198,8.01125216 Z M88.8096296,28.0678977 L88.8096296,35.0360554 C85.2222557,31.1562453 82.7624095,26.452093 76.6940041,22.9644913 C75.6276784,16.5576378 73.6480318,11.6937838 70.6797389,8.26959303 C80.9287059,9.74918163 88.8096296,18.0513177 88.8096296,28.0678977 L88.8096296,28.0678977 Z M92.8254168,52.0513244 L92.8254168,47.8427168 L93.2750155,48.1762114 L93.4845144,43.4344822 C93.5009918,43.183187 93.5174693,42.9342403 93.5174693,42.678248 L93.5174693,28.0678977 C93.5174693,14.4181057 81.8137798,3.31414548 67.4266217,3.31414548 L57.285935,3.31414548 L57.285935,0.218752181 L45.7117111,0.218752181 L45.7117111,3.31414548 L35.5733783,3.31414548 C21.1862202,3.31414548 9.48253072,14.4181057 9.48253072,28.0678977 L9.48253072,42.678248 C9.48253072,42.9765143 9.50136207,43.2700835 9.52019343,43.5660012 L9.76029326,48.2372738 L10.1745832,47.9366589 L10.1745832,52.0513244 C4.32509233,53.6929632 0.000941567939,59.3858565 0.000941567939,66.1379473 C0.000941567939,72.8900382 4.32509233,78.58528 10.1745832,80.2269188 L10.1745832,95.0439418 C10.1745832,110.008924 22.2360685,122.197916 37.166982,122.491485 C38.6711368,126.765852 44.5088581,129.955187 51.5,129.955187 C58.4911419,129.955187 64.3288632,126.765852 65.833018,122.491485 C80.7639315,122.197916 92.8254168,110.008924 92.8254168,95.0439418 L92.8254168,80.2269188 C98.6749077,78.58528 102.999058,72.8900382 102.999058,66.1379473 C102.999058,59.3858565 98.6749077,53.6929632 92.8254168,52.0513244 L92.8254168,52.0513244 Z" id="avatar-icon-01"></path>
                </g>
            </g>
        </g>
    </g>
</svg>