<?xml version="1.0" encoding="UTF-8" standalone="no"?>
<svg width="103px" height="117px" viewBox="0 0 103 117" version="1.1" xmlns="http://www.w3.org/2000/svg" xmlns:xlink="http://www.w3.org/1999/xlink" xmlns:sketch="http://www.bohemiancoding.com/sketch/ns">
    <!-- Generator: Sketch 3.2.2 (9983) - http://www.bohemiancoding.com/sketch -->
    <title>avatar-icon-19</title>
    <desc>Created with Sketch.</desc>
    <defs></defs>
    <g id="Page-1" stroke="none" stroke-width="1" fill="none" fill-rule="evenodd" sketch:type="MSPage">
        <g id="item-collection-preview" sketch:type="MSArtboardGroup" transform="translate(-644.000000, -1020.000000)" fill="#2F2F2F">
            <g id="avatars" sketch:type="MSLayerGroup" transform="translate(183.000000, 80.000000)">
                <g id="avatar" transform="translate(460.000000, 940.000000)" sketch:type="MSShapeGroup">
                    <path d="M52.5,93.8858802 C59.2239511,93.8858802 64.8852423,91.0759716 66.657899,87.2344284 L38.342101,87.2344284 C40.1147577,91.0759716 45.7760489,93.8858802 52.5,93.8858802 M72.146362,51.6336162 C66.6298728,51.325068 61.0129564,54.1349766 58.1519491,55.8425909 L59.3430624,57.8705299 C61.4613756,56.6033624 66.938161,53.687464 72.0132376,53.9842355 C78.417223,54.351667 80.4911613,58.2756467 80.5729044,58.4358091 L82.6655269,57.3876873 C82.5580931,57.170997 79.9656702,52.0834843 72.146362,51.6336162 M96.8094128,63.9472812 L96.2769151,68.8345909 C95.9032325,71.3218193 93.6074201,73.1424893 91.0173327,72.7420832 C90.7674325,72.704398 90.5362164,72.6219614 90.3050003,72.5465909 L86.801726,71.4089665 L85.8464999,74.9937787 C80.3603724,95.6123371 64.1472191,109.464032 52.4462831,109.464032 C42.9594164,109.464032 30.5064442,100.353616 23.2079562,85.9154437 C21.5590818,82.6109157 20.1764562,79.0402355 19.1628422,75.231667 L18.2076161,71.6444995 L18.1585702,71.6609868 L18.0908402,71.4089665 L14.587566,72.5465909 C14.3540144,72.6219614 14.1227983,72.704398 13.8752336,72.7420832 C11.7522494,73.0788954 9.77406715,71.8352812 8.97532062,70.0522964 C8.87489343,69.7814335 8.80015691,69.5011492 8.7557821,69.2114437 L8.18591616,64.0438497 C8.01075244,62.8850274 8.26065267,61.8840122 8.92393927,61.0643574 C9.62459412,60.2023066 10.7362998,59.6181848 12.0558665,59.4179817 C12.5323118,59.3473218 12.9783953,59.3850071 13.4151369,59.4509563 L17.2944292,60.0350782 L17.4345602,56.0828345 C17.5653491,52.3708345 17.8572886,48.9438294 18.3080432,45.7712 L40.9321884,45.7712 L40.9321884,30.3579208 L56.2158062,45.7712 L86.724654,45.7712 C87.15906,48.8802355 87.448664,52.2200934 87.5771174,55.8449462 L87.7172484,59.7995452 L87.8223466,59.7830579 L87.8293531,60.0350782 L91.710981,59.4509563 C92.1523936,59.3873624 92.6078192,59.3496772 93.0702514,59.4179817 C94.3921536,59.6181848 95.5038593,60.2023066 96.2021786,61.0643574 C96.3423096,61.2362964 96.4544144,61.4223675 96.5571771,61.6131492 C96.8514521,62.274997 96.9472083,63.0334132 96.8094128,63.9472812 M102.793005,58.3863472 C102.442678,57.6703269 102.02462,56.9849259 101.510807,56.3513421 C101.501465,56.3395655 101.489787,56.3324995 101.482781,56.3207228 C101.716332,54.4034843 101.84245,52.4485604 101.84245,50.4630173 C101.84245,23.0163574 79.7788289,0.76555533 52.5630589,0.76555533 C25.347289,0.76555533 3.28366771,23.0163574 3.28366771,50.4630173 C3.28366771,52.3731898 3.40978559,54.2527431 3.62932411,56.1040325 C3.55225207,56.193535 3.45883143,56.2618396 3.38643042,56.3513421 C1.46897165,58.7137381 0.672560633,61.7356264 1.12097974,64.7245401 L1.6931812,69.892134 C1.90804869,71.3288853 2.3868295,72.676134 3.07113574,73.8867736 C5.05165345,77.5846416 8.92393927,80.078936 13.2563218,80.0954234 C14.0877655,82.6368244 15.0780244,85.1122761 16.2084142,87.4982254 C24.1188075,104.343545 38.930651,116.765555 52.5630589,116.765555 C68.1246032,116.765555 85.2275881,100.577373 91.8370989,80.0977787 C97.5334228,80.0977787 102.468368,75.8110782 103.337181,69.9887025 L103.872014,65.1013929 C104.227012,62.717799 103.841652,60.4025096 102.793005,58.3863472 M70.1635088,57.849332 C66.1651051,57.7221442 62.2694641,59.4203371 59.2636548,62.7649056 L60.9942723,64.3476873 C62.3605493,62.8261442 63.9346872,61.7073624 65.6092523,61.0125401 C65.3897138,61.4270782 65.2425762,61.8910782 65.1935304,62.3880528 C64.9950115,64.4089259 66.4570446,66.215464 68.463253,66.415667 C70.4671259,66.6182254 72.2584668,65.1414335 72.4569857,63.1182051 C72.5550774,62.1124792 72.2444537,61.1656365 71.6629102,60.4378396 C73.7204999,60.8806416 75.5281895,61.9617381 76.7473289,63.5798497 L78.6087353,62.1525198 C76.6562438,59.5663675 73.5780335,58.0000731 70.1635088,57.849332 M45.6522666,57.8681746 L46.8433798,55.8449462 C43.984708,54.1349766 38.3677916,51.3415553 32.8513024,51.6336162 C25.0319943,52.0834843 22.4419069,57.170997 22.3344731,57.3876873 L24.4247601,58.4428751 C24.5088387,58.2756467 26.5804415,54.351667 32.9844269,53.9842355 C38.0922007,53.7039513 43.5362889,56.6033624 45.6522666,57.8681746 M39.8017986,62.3880528 C39.7527527,61.8910782 39.6079507,61.4270782 39.3860767,61.0101848 C41.0629773,61.7073624 42.6347797,62.8261442 44.0010567,64.3476873 L45.7316741,62.7649056 C42.7258648,59.4203371 38.8442369,57.7268548 34.8341557,57.849332 C31.419631,58.0000731 28.3414207,59.5687228 26.3912647,62.1525198 L28.2526711,63.5798497 C29.469475,61.9617381 31.2771645,60.8806416 33.3347543,60.4378396 C32.7532108,61.1656365 32.4425871,62.1124792 32.5406788,63.1182051 C32.7415332,65.1414335 34.5305386,66.6182254 36.536747,66.415667 C38.5382843,66.215464 40.002653,64.4089259 39.8017986,62.3880528 M52.4976645,81.0587533 C55.3563363,81.0587533 57.6801749,78.9389563 57.6801749,76.3386721 L55.3446587,76.3386721 C55.3446587,77.6435249 54.0671314,78.7034234 52.4976645,78.7034234 C50.9281976,78.7034234 49.6506703,77.6435249 49.6506703,76.3386721 L47.3151541,76.3386721 C47.3151541,78.9389563 49.6389927,81.0587533 52.4976645,81.0587533" id="avatar-icon-19"></path>
                </g>
            </g>
        </g>
    </g>
</svg>