<?xml version="1.0" encoding="UTF-8" standalone="no"?>
<svg width="122px" height="133px" viewBox="0 0 122 133" version="1.1" xmlns="http://www.w3.org/2000/svg" xmlns:xlink="http://www.w3.org/1999/xlink" xmlns:sketch="http://www.bohemiancoding.com/sketch/ns">
    <!-- Generator: Sketch 3.2.2 (9983) - http://www.bohemiancoding.com/sketch -->
    <title>avatar-icon-08</title>
    <desc>Created with Sketch.</desc>
    <defs></defs>
    <g id="Page-1" stroke="none" stroke-width="1" fill="none" fill-rule="evenodd" sketch:type="MSPage">
        <g id="item-collection-preview" sketch:type="MSArtboardGroup" transform="translate(-864.000000, -319.000000)" fill="#2F2F2F">
            <g id="avatars" sketch:type="MSLayerGroup" transform="translate(183.000000, 80.000000)">
                <g id="avatar" transform="translate(681.000000, 239.000000)" sketch:type="MSShapeGroup">
                    <path d="M78.4518654,67.3590421 C74.4329038,67.2297439 70.5195192,68.9294281 67.5023654,72.2676737 L69.2385192,73.8474632 C70.6110192,72.3287965 72.1946731,71.2121298 73.8768654,70.5186211 C73.6539808,70.9323754 73.5061731,71.3931474 73.4569038,71.8915333 C73.2574808,73.9062351 74.7261731,75.7117088 76.7415192,75.9091825 C78.7568654,76.1113579 80.5540192,74.6373579 80.7534423,72.6156035 C80.8543269,71.6164807 80.5422885,70.6690772 79.9580962,69.945007 C82.0227115,70.3846211 83.8386346,71.4636737 85.0633269,73.0810772 L86.9332115,71.6564456 C84.9718269,69.0728316 81.8819423,67.5094982 78.4518654,67.3590421 L78.4518654,67.3590421 Z M105.08775,70.6690772 C105.080712,70.7889719 104.360442,82.5715684 97.8451731,82.6021298 L94.3400192,82.6162351 L94.3400192,86.1284456 C94.3400192,86.9700596 94.2813654,87.8046211 94.1922115,88.6391825 C94.16875,88.8648667 94.1405962,89.0905509 94.1100962,89.3162351 C94.0209423,90.0050421 93.9036346,90.6891474 93.7558269,91.3662 C93.7253269,91.519007 93.6995192,91.671814 93.6643269,91.8222702 C93.4766346,92.6309719 93.2514038,93.4302702 92.9909808,94.2248667 C92.9276346,94.4223404 92.8549038,94.619814 92.7845192,94.8172877 C92.5663269,95.4543754 92.3246731,96.0844105 92.0619038,96.707393 C91.9797885,96.9048667 91.9000192,97.1046912 91.8132115,97.299814 C91.4730192,98.0732526 91.1093654,98.8396386 90.7128654,99.5942702 C90.6776731,99.6577439 90.6401346,99.7235684 90.6072885,99.7870421 C90.5674038,99.8599193 90.5251731,99.9304456 90.4852885,100.008025 C90.14275,100.63806 89.7837885,101.263393 89.4084038,101.884025 C89.2864038,102.081498 89.1644038,102.278972 89.0424038,102.474095 C89.0400577,102.476446 89.0377115,102.478796 89.0353654,102.483498 C88.5849038,103.195814 88.1227115,103.903428 87.6323654,104.592235 C87.6159423,104.615744 87.6018654,104.636902 87.5877885,104.660411 C87.0763269,105.38213 86.5390577,106.087393 85.9900577,106.783253 C85.8539808,106.957218 85.7179038,107.126481 85.5771346,107.295744 C85.1079038,107.878761 84.6269423,108.454726 84.13425,109.018937 C84.0404038,109.129428 83.9489038,109.237568 83.8527115,109.34806 C83.2638269,110.015709 82.6632115,110.6622 82.0532115,111.296937 C82.0344423,111.318095 82.0180192,111.336902 81.9969038,111.355709 C81.8936731,111.4662 81.78575,111.571989 81.6801731,111.682481 C81.1687115,112.199674 80.6549038,112.714516 80.13875,113.215253 C80.0144038,113.335147 79.8900577,113.452691 79.7657115,113.572586 C79.1252115,114.179112 78.4823654,114.771533 77.8371731,115.342796 L77.7480192,115.418025 C77.1309808,115.965779 76.5115962,116.487674 75.8945577,116.997814 C75.8546731,117.030726 75.8147885,117.063639 75.7725577,117.096551 C75.7045192,117.155323 75.6364808,117.209393 75.5684423,117.265814 C74.2639808,118.330761 72.97125,119.315779 71.7230962,120.204411 C71.6527115,120.258481 71.5799808,120.303147 71.5095962,120.354867 C70.8995962,120.787428 70.2966346,121.198832 69.7124423,121.589077 L69.7054038,121.591428 C68.1733654,122.604656 66.7398654,123.458025 65.4659038,124.132726 C65.4354038,124.151533 65.4049038,124.165639 65.37675,124.179744 C65.0084038,124.374867 64.6541346,124.551182 64.3186346,124.715744 C64.2341731,124.755709 64.15675,124.790972 64.0793269,124.826235 C63.8001346,124.960235 63.5350192,125.08013 63.2792885,125.190621 C63.18075,125.230586 63.0845577,125.270551 62.9930577,125.308165 C62.7678269,125.399849 62.5590192,125.479779 62.35725,125.550305 C62.2634038,125.585568 62.1672115,125.618481 62.0780577,125.649042 C61.8809808,125.710165 61.7050192,125.759533 61.5360962,125.799498 C61.4657115,125.818305 61.3882885,125.846516 61.3179038,125.860621 C61.0950192,125.905288 60.8909038,125.9382 60.7172885,125.947604 C60.5460192,125.9382 60.3395577,125.905288 60.1166731,125.860621 C60.0462885,125.844165 59.9641731,125.818305 59.8914423,125.799498 C59.7248654,125.759533 59.5489038,125.707814 59.3565192,125.649042 C59.2650192,125.61613 59.1664808,125.580867 59.0702885,125.547954 C58.8708654,125.475077 58.6620577,125.397498 58.4415192,125.308165 C58.3453269,125.2682 58.2444423,125.225884 58.1412115,125.181218 C57.8878269,125.075428 57.6250577,124.955533 57.3505577,124.826235 C57.2684423,124.788621 57.1886731,124.748656 57.1018654,124.711042 C56.7593269,124.541779 56.4027115,124.363112 56.0273269,124.165639 C56.0038654,124.151533 55.9804038,124.14213 55.9545962,124.128025 C54.6735962,123.44627 53.2307115,122.5882 51.6892885,121.57027 C51.1215192,121.19413 50.5396731,120.79213 49.9484423,120.378375 L49.9460962,120.376025 C49.8592885,120.312551 49.7771731,120.258481 49.6927115,120.197358 C48.44925,119.311077 47.1635577,118.330761 45.8637885,117.270516 C45.7511731,117.176481 45.6362115,117.084796 45.52125,116.988411 C44.9018654,116.480621 44.2824808,115.954025 43.6630962,115.40627 L43.5880192,115.340446 C42.9428269,114.776235 42.3046731,114.183814 41.6665192,113.581989 C41.5773654,113.497358 41.4905577,113.412726 41.4014038,113.325744 L41.2840962,113.212902 C40.7585577,112.705112 40.2353654,112.185568 39.7192115,111.656621 C39.5995577,111.534375 39.4799038,111.414481 39.3625962,111.292235 C38.7572885,110.6622 38.1613654,110.01806 37.5748269,109.357463 C37.4645577,109.235218 37.3589808,109.105919 37.2487115,108.978972 C36.7818269,108.440621 36.3219808,107.892867 35.8715192,107.333358 C35.7166731,107.145288 35.5641731,106.957218 35.4140192,106.764446 C34.8720577,106.077989 34.3418269,105.38213 33.8350577,104.669814 C33.8303654,104.660411 33.8256731,104.653358 33.8209808,104.646305 C33.80925,104.629849 33.7975192,104.613393 33.7881346,104.596937 C33.2977885,103.90813 32.8379423,103.205218 32.3874808,102.492902 C32.2631346,102.295428 32.1411346,102.097954 32.0191346,101.89813 C32.0191346,101.895779 32.0167885,101.891077 32.0144423,101.888726 C31.6414038,101.277498 31.2847885,100.656867 30.9445962,100.031533 C30.8695192,99.8904807 30.7874038,99.7517789 30.7123269,99.6107263 C30.7099808,99.6060246 30.7052885,99.6013228 30.7029423,99.5966211 C30.3064423,98.8419895 29.9404423,98.0756035 29.6025962,97.299814 C29.5157885,97.1070421 29.4360192,96.9095684 29.3539038,96.7120947 C29.0934808,96.093814 28.8541731,95.4637789 28.6359808,94.8360947 C28.56325,94.6292175 28.4881731,94.4270421 28.4201346,94.2201649 C28.1620577,93.4302702 27.9368269,92.6309719 27.7491346,91.8222702 C27.7444423,91.8034632 27.7420962,91.7823053 27.7374038,91.7634982 C27.70925,91.6342 27.6857885,91.5025509 27.6599808,91.3709018 C27.5121731,90.6891474 27.3948654,90.0050421 27.3033654,89.3162351 C27.2752115,89.0905509 27.2447115,88.8648667 27.22125,88.6391825 C27.1344423,87.8046211 27.0734423,86.9700596 27.0734423,86.1284456 L27.0734423,82.6162351 L23.5682885,82.6021298 C17.1046346,82.5715684 16.33275,70.7795684 16.3280577,70.6690772 L16.2928654,70.3023404 C16.1169038,69.1457088 16.3679423,68.1442351 17.03425,67.3261298 C17.7380962,66.4680596 18.8548654,65.8850421 20.1827885,65.6828667 C20.3540577,65.6593579 20.5229808,65.6452526 20.6919038,65.6452526 C20.9804808,65.6452526 21.2643654,65.6781649 21.5435577,65.7204807 L25.4405192,66.3034982 L25.5812885,62.3540246 C25.6282115,60.9576035 25.7197115,59.6317088 25.8135577,58.3128667 C25.8651731,57.6687263 25.90975,57.0198842 25.9684038,56.3898491 L45.6221346,56.3898491 L45.6221346,37.8132175 L64.1590962,56.3898491 L95.4427115,56.3898491 C95.5013654,57.0198842 95.5459423,57.6687263 95.5975577,58.3128667 C95.6914038,59.6317088 95.7829038,60.9576035 95.8298269,62.3540246 L95.9705962,66.3034982 L99.8675577,65.7204807 C100.308635,65.6546561 100.761442,65.619393 101.230673,65.6828667 C102.558596,65.8850421 103.675365,66.4680596 104.379212,67.3261298 C105.045519,68.1442351 105.296558,69.1457088 105.120596,70.3023404 L105.08775,70.6690772 Z M60.7079038,0.615287719 C27.1790192,0.615287719 0.00117307692,27.8525509 0.00117307692,61.4442351 C0.00117307692,85.5148667 13.9819038,106.26606 34.2221731,116.125639 C34.2221731,116.125639 34.2221731,116.127989 34.2245192,116.127989 C34.8415577,116.77213 35.4679808,117.397463 36.0990962,118.013393 C39.2617115,121.081288 42.5791731,123.763639 45.7605577,125.982867 C45.7699423,125.987568 45.7816731,125.996972 45.7934038,126.004025 C46.3963654,126.424832 46.9922885,126.824481 47.5835192,127.210025 L47.7407115,127.315814 C48.3014423,127.677849 48.8598269,128.030481 49.4064808,128.361954 C49.4580962,128.394867 49.5073654,128.425428 49.5566346,128.453639 C51.3256346,129.523288 53.0031346,130.423674 54.5281346,131.131288 C54.6196346,131.173604 54.7040962,131.208867 54.79325,131.251182 C55.1827115,131.425147 55.5627885,131.589709 55.9287885,131.742516 C56.07425,131.801288 56.2126731,131.853007 56.3510962,131.907077 C56.65375,132.026972 56.9470192,132.137463 57.23325,132.238551 C57.3834038,132.287919 57.5288654,132.339639 57.6743269,132.386656 C57.9370962,132.471288 58.1881346,132.546516 58.4344808,132.614691 C58.5682115,132.649954 58.7066346,132.69227 58.8380192,132.725182 C59.0843654,132.783954 59.3142885,132.830972 59.5395192,132.868586 C59.64275,132.889744 59.7530192,132.913253 59.8539038,132.927358 C60.1659423,132.972025 60.4568654,133.000235 60.7172885,133.000235 C60.9800577,133.000235 61.2709808,132.972025 61.5830192,132.927358 C61.6815577,132.913253 61.7918269,132.889744 61.8950577,132.868586 C62.1202885,132.830972 62.3525577,132.783954 62.5989038,132.725182 C62.7279423,132.69227 62.8640192,132.649954 63.0000962,132.614691 C63.2464423,132.546516 63.4998269,132.471288 63.7625962,132.384305 C63.9080577,132.339639 64.0511731,132.287919 64.2013269,132.238551 C64.4875577,132.137463 64.7831731,132.026972 65.0881731,131.907077 C65.22425,131.853007 65.3603269,131.801288 65.5010962,131.742516 C65.8741346,131.589709 66.2542115,131.425147 66.6460192,131.246481 C66.7328269,131.204165 66.8149423,131.173604 66.9040962,131.131288 C68.4290962,130.423674 70.1065962,129.523288 71.8755962,128.453639 C71.9272115,128.423077 71.9741346,128.392516 72.02575,128.361954 C72.5724038,128.02813 73.1284423,127.677849 73.6962115,127.311112 C73.7454808,127.2782 73.7970962,127.245288 73.8463654,127.210025 C74.4375962,126.824481 75.0335192,126.424832 75.6341346,126.004025 C75.6482115,125.994621 75.6622885,125.985218 75.6716731,125.980516 C78.8530577,123.761288 82.1658269,121.076586 85.3260962,118.013393 L85.3331346,118.003989 C85.96425,117.392761 86.5883269,116.765077 87.2030192,116.120937 C107.438596,106.259007 121.414635,85.5101649 121.414635,61.4442351 C121.414635,27.8525509 94.2344423,0.615287719 60.7079038,0.615287719 L60.7079038,0.615287719 Z M61.1583654,102.231954 L57.7048269,100.527568 C52.2523654,101.905182 46.7811346,102.4882 46.7811346,102.4882 C46.7811346,102.4882 54.0237115,111.924621 61.1583654,111.924621 C68.2930192,111.924621 75.5355962,102.4882 75.5355962,102.4882 C75.5355962,102.4882 70.0667115,101.905182 64.61425,100.527568 L61.1583654,102.231954 Z M80.44375,61.1550772 C74.8997885,60.8471123 69.2572885,63.6540596 66.38325,65.3560947 L67.5797885,67.3825509 C69.70775,66.1154281 75.2094808,63.2026912 80.3100192,63.5012526 C86.7408269,63.8703404 88.8265577,67.7869018 88.9063269,67.9467614 L91.0108269,66.9006211 C90.9029038,66.6843404 88.2963269,61.6064456 80.44375,61.1550772 L80.44375,61.1550772 Z M60.7055577,93.6606561 C63.5749038,93.6606561 65.9093269,91.5472175 65.9093269,88.9494982 L63.5631731,88.9494982 C63.5631731,90.2518842 62.2798269,91.3097789 60.7055577,91.3097789 C59.1289423,91.3097789 57.8455962,90.2518842 57.8455962,88.9494982 L55.4994423,88.9494982 C55.4994423,91.5472175 57.8338654,93.6606561 60.7055577,93.6606561 L60.7055577,93.6606561 Z M47.53425,70.5162702 C49.2164423,71.2097789 50.7954038,72.3264456 52.17025,73.8474632 L53.9064038,72.2676737 C50.88925,68.9294281 46.9899423,67.2391474 42.95925,67.3590421 C39.5291731,67.5094982 36.4392885,69.0751825 34.48025,71.6564456 L36.3501346,73.0810772 C37.5724808,71.4636737 39.3884038,70.3846211 41.4530192,69.945007 C40.8688269,70.6690772 40.5567885,71.6164807 40.6576731,72.6156035 C40.8594423,74.6373579 42.65425,76.1113579 44.6719423,75.9091825 C46.6825962,75.7117088 48.1536346,73.9062351 47.9518654,71.8915333 C47.9025962,71.3931474 47.7571346,70.9300246 47.53425,70.5162702 L47.53425,70.5162702 Z M53.8289808,67.3778491 L55.0255192,65.3560947 C52.1538269,63.6540596 46.5113269,60.8612175 40.9673654,61.1550772 C33.1147885,61.6064456 30.5105577,66.6843404 30.4049808,66.9006211 L32.5024423,67.9514632 C32.5869038,67.7869018 34.6702885,63.8703404 41.1010962,63.5012526 C46.2344808,63.2214982 51.7033654,66.1154281 53.8289808,67.3778491 L53.8289808,67.3778491 Z" id="avatar-icon-08"></path>
                </g>
            </g>
        </g>
    </g>
</svg>