<?xml version="1.0" encoding="UTF-8" standalone="no"?>
<svg width="103px" height="136px" viewBox="0 0 103 136" version="1.1" xmlns="http://www.w3.org/2000/svg" xmlns:xlink="http://www.w3.org/1999/xlink" xmlns:sketch="http://www.bohemiancoding.com/sketch/ns">
    <!-- Generator: Sketch 3.2.2 (9983) - http://www.bohemiancoding.com/sketch -->
    <title>avatar-icon-34</title>
    <desc>Created with Sketch.</desc>
    <defs></defs>
    <g id="Page-1" stroke="none" stroke-width="1" fill="none" fill-rule="evenodd" sketch:type="MSPage">
        <g id="item-collection-preview" sketch:type="MSArtboardGroup" transform="translate(-413.000000, -1933.000000)" fill="#2F2F2F">
            <g id="avatars" sketch:type="MSLayerGroup" transform="translate(183.000000, 80.000000)">
                <g id="avatar" transform="translate(230.000000, 1853.000000)" sketch:type="MSShapeGroup">
                    <path d="M75.7519654,61.4508503 C73.3109505,61.4508503 59.3616215,64.5066585 55.1457511,65.4426301 L56.2356159,69.705471 C64.7403284,67.8196273 74.3655066,65.8550136 75.7519654,65.8364796 C76.7053029,65.8364796 77.7363198,67.3192068 78.0799921,68.1138559 L82.4488674,66.4874895 C82.2275989,65.9708517 80.1585034,61.4508503 75.7519654,61.4508503 M89.6000759,83.4925177 L85.4289299,83.490201 L85.5795808,85.1165674 L84.4920698,84.3288686 L69.7800708,104.02134 L73.5745895,106.769019 L86.0221177,90.1068713 C86.3728518,94.3928798 86.9848709,102.64055 86.9848709,108.27028 C86.8907141,111.418759 74.0453735,121.07502 59.8276976,128.73655 L55.030409,128.738867 L55.030409,116.33261 L47.9686494,116.33261 L47.9686494,128.648513 L42.4934319,128.495607 C28.4640696,120.949915 15.8258739,111.402542 15.7787955,108.272597 C15.7787955,103.032083 16.4143539,95.5002917 16.8404134,91.0451597 L28.5864734,106.769019 L32.3809922,104.02134 L17.6689932,84.3288686 L17.5371737,84.4238558 L17.6407461,83.490201 L13.4295835,83.4925177 C9.89870374,83.3650958 7.06223033,80.0891953 7.06223033,76.0788814 C7.06223033,72.0824681 9.88458023,68.8112011 13.4013365,68.6675619 L17.2358719,68.6698787 L17.2358719,44.6381133 C17.2358719,43.9291843 17.320613,43.2272056 17.4594943,42.5298605 C18.8553688,41.2927099 20.2677207,40.1713974 21.7012579,39.1844571 C20.7526282,42.5646119 19.9828964,46.2644798 19.4720958,50.397582 C19.4720958,50.397582 23.7703534,44.9601431 30.9309776,39.7705977 C37.7950079,42.1058932 47.276597,44.4411886 57.7491864,44.4411886 C70.2861635,44.4411886 78.7461515,41.0332327 83.5434401,38.292504 C84.9440224,40.3382043 85.7631865,42.4812085 85.7631865,44.6381133 L85.7631865,68.6698787 L89.5718288,68.6675619 C93.1027086,68.7949838 95.939182,72.0708843 95.939182,76.0788814 C95.939182,80.0776115 93.1168321,83.3488785 89.6000759,83.4925177 M103.000942,76.0788814 C103.000942,69.4181926 98.6744369,63.8023631 92.8249461,62.1829469 L92.8249461,44.6381133 C92.8249461,40.4586758 91.2784207,36.6244358 88.6773393,33.2211134 C89.4682564,31.5136603 89.3999927,30.0633677 89.3999927,30.0633677 C87.2320325,4.46315491 58.3376664,-0.513248443 43.8845985,0.90924302 C40.9398448,1.19883819 37.1170789,1.95178562 32.97418,3.36964356 C25.5946413,4.5720427 17.2876581,7.96146454 7.98967475,14.587402 C7.98967475,14.587402 10.5248464,14.3742599 14.4299995,14.5526505 C4.75538888,24.00272 -2.15807372,39.4508847 1.6270294,64.1938958 C4.34816074,58.8282765 7.20581944,54.2758405 10.1741124,50.4207496 L10.1741124,62.1829469 C4.32697546,63.8023631 0.00047078397,69.4181926 0.00047078397,76.0788814 C0.00047078397,82.6190987 4.16926283,88.1515248 9.85633319,89.8821455 C9.4185041,94.3743457 8.71703598,102.496911 8.71703598,108.272597 C8.71703598,110.640327 10.1788202,113.2351 12.4880156,115.862307 L16.5202803,119.807752 C23.7185672,126.042156 34.1252468,131.954531 39.8735191,135.005706 L40.6126499,135.397239 L51.066408,135.686834 L51.1158403,135.689151 L61.6190306,135.686834 L62.4052399,135.269817 C68.4030276,132.079637 79.4123108,125.831331 86.7306476,119.344399 L90.7393731,115.27385 C92.7708059,112.84125 94.0466305,110.454986 94.0466305,108.272597 C94.0466305,102.503861 93.4557966,94.3743457 93.090939,89.9006796 C98.8039025,88.1862762 103.000942,82.6399495 103.000942,76.0788814 M69.7612394,72.0222323 C65.45592,71.6306997 61.2706505,73.277917 58.2505713,76.558451 L59.9971799,78.1153147 C61.3789308,76.6163701 63.0549217,75.5413928 64.869794,74.9158672 C64.7426823,75.2216797 64.6438176,75.5460263 64.6108628,75.8935405 C64.4084257,77.8836385 65.8843334,79.6582777 67.9039966,79.8552024 C69.9236599,80.0544439 71.7291164,78.6018345 71.9291996,76.6117365 C71.9974633,75.9398758 71.8632898,75.3027664 71.592589,74.7305263 C73.5840052,75.335201 75.2411648,76.5167493 76.2156876,78.0875135 L78.2259352,76.8781641 C76.5452364,74.1745036 73.3815681,72.3581627 69.7612394,72.0222323 M51.2311824,105.842314 C47.0317893,105.842314 43.0395413,104.987429 41.0622486,103.664559 L38.4140888,107.496482 C41.2034838,109.363792 45.9937107,110.475837 51.2311824,110.475837 C56.8829439,110.475837 61.873254,109.217836 64.5849697,107.114216 L61.668463,103.476901 C60.1525386,104.653816 56.3368345,105.842314 51.2311824,105.842314 M45.9819411,90.6026583 L41.2741014,90.6026583 C41.2741014,95.2338642 45.4970336,99.0009181 50.6897808,99.0009181 C55.882528,99.0009181 60.1054602,95.2338642 60.1054602,90.6026583 L55.3976205,90.6026583 C55.3976205,92.6784764 53.2861544,94.3673954 50.6897808,94.3673954 C48.0934072,94.3673954 45.9819411,92.6784764 45.9819411,90.6026583 M38.2069438,75.8935405 C38.173989,75.5460263 38.0751243,75.2216797 37.9480127,74.9158672 C39.7605309,75.5413928 41.4388758,76.6163701 42.8206267,78.1153147 L44.0187719,77.0472877 L44.0187719,87.0348458 L48.7266116,87.0348458 L48.7266116,65.3823943 L46.1184684,65.3823943 C41.6318972,64.3908205 28.1745374,61.4508503 25.778247,61.4508503 C21.3693552,61.4508503 19.3002596,65.9708517 19.0789912,66.4874895 L23.4502203,68.1138559 C23.7915387,67.3192068 24.8249095,65.8364796 25.7735392,65.8364796 C27.0964422,65.8550136 35.853024,67.6296528 44.0187719,69.4251429 L44.0187719,76.0279127 C41.0481251,73.1134269 37.1053093,71.6515505 33.0565672,72.0222323 C29.4362385,72.3581627 26.2725702,74.1745036 24.5918714,76.8781641 L26.602119,78.0875135 C27.5766418,76.5167493 29.2338014,75.335201 31.2228636,74.7305263 C30.9545168,75.3027664 30.8203434,75.9398758 30.888607,76.6117365 C31.0886902,78.6018345 32.8917928,80.0544439 34.91381,79.8552024 C36.9334732,79.6582777 38.4093809,77.8836385 38.2069438,75.8935405 M41.4106287,98.206269 L41.8225647,95.9265758 C41.1893603,95.8153713 40.6008803,95.5211426 40.1206807,95.0740077 C39.5015998,94.4971341 39.1343883,93.7395531 39.0849559,92.9333202 C39.0402315,92.1572051 39.2991626,91.4320588 39.8217329,90.8899367 C40.1771747,90.5169381 40.640897,90.2551441 41.1587593,90.1346725 L40.6150038,87.8804637 C39.6498967,88.1051895 38.7813003,88.5963429 38.1080792,89.3006384 C37.1382642,90.3084296 36.6510028,91.6475176 36.7357439,93.0700091 C36.8181311,94.4646994 37.4489816,95.7736696 38.5035377,96.7559764 C39.3156401,97.5135573 40.3231178,98.0162946 41.4106287,98.206269" id="avatar-icon-34"></path>
                </g>
            </g>
        </g>
    </g>
</svg>