<?xml version="1.0" encoding="UTF-8" standalone="no"?>
<svg width="103px" height="130px" viewBox="0 0 103 130" version="1.1" xmlns="http://www.w3.org/2000/svg" xmlns:xlink="http://www.w3.org/1999/xlink" xmlns:sketch="http://www.bohemiancoding.com/sketch/ns">
    <!-- Generator: Sketch 3.2.2 (9983) - http://www.bohemiancoding.com/sketch -->
    <title>avatar-icon-18</title>
    <desc>Created with Sketch.</desc>
    <defs></defs>
    <g id="Page-1" stroke="none" stroke-width="1" fill="none" fill-rule="evenodd" sketch:type="MSPage">
        <g id="item-collection-preview" sketch:type="MSArtboardGroup" transform="translate(-414.000000, -1014.000000)" fill="#2F2F2F">
            <g id="avatars" sketch:type="MSLayerGroup" transform="translate(183.000000, 80.000000)">
                <g id="avatar" transform="translate(231.000000, 933.000000)" sketch:type="MSShapeGroup">
                    <path d="M30.9458073,83.7433926 C29.750016,83.6090518 28.6295501,83.1612489 27.8739419,82.51547 L26.3462479,84.3066815 C27.4667137,85.2659224 29.0061773,85.8975601 30.6821683,86.0861087 C31.0258406,86.1261753 31.3695129,86.1450301 31.7061234,86.1450301 C33.890561,86.1450301 35.889039,85.3436987 36.9718421,83.9837921 L35.1287228,82.51547 C34.5119958,83.2932329 32.9819479,83.9814352 30.9458073,83.7433926 L30.9458073,83.7433926 Z M22.8153681,79.1640191 L24.6302403,80.6629803 C25.4823593,79.6306769 26.9041269,78.8317023 28.5965953,78.3674014 C28.5212698,78.7020751 28.4836071,79.05089 28.5189159,79.4114891 C28.6978138,81.2191986 30.307895,82.5343249 32.1086437,82.3552038 C33.9117463,82.1760826 35.2252336,80.5639923 35.0463357,78.7609966 C35.0298582,78.6030871 34.9921955,78.456962 34.9568867,78.30848 C36.5010581,78.6973614 37.9181179,79.3667088 39.0691847,80.3235929 L40.5733395,78.5088128 C37.9463649,76.3263631 34.2766039,75.2704911 30.4656076,75.6287334 C27.2030747,75.9351248 24.4136797,77.2219688 22.8153681,79.1640191 L22.8153681,79.1640191 Z M89.5984281,92.0277456 L85.3943273,92.0253888 L85.7803701,95.9118463 C85.7921397,96.0131911 86.7195842,106.249022 79.4977581,114.236411 C73.6953456,120.658847 64.2019869,123.913667 51.2836748,123.913667 C38.4289185,123.913667 29.015593,120.691843 23.3049835,114.337756 C16.2008534,106.435214 17.2036232,96.0509009 17.2130389,95.9589834 L17.6602837,92.0253888 L13.7056983,92.0253888 L13.4302897,92.0277456 C9.89940992,91.8981185 7.0629365,88.5655224 7.0629365,84.4858027 C7.0629365,80.420224 9.88293248,77.0923417 13.3996887,76.9462165 L14.6496202,76.9462165 C15.1486512,86.031901 22.6670712,93.27688 31.863836,93.27688 C37.0401058,93.27688 41.6796818,90.9718736 44.845704,87.3470273 L44.845704,93.7930317 C44.845704,99.3175049 49.3346291,103.814388 54.8522173,103.814388 L54.8522173,99.1006741 C51.9310027,99.1006741 49.5535437,96.7202483 49.5535437,93.7930317 L49.5535437,77.9549514 L53.1668106,77.9549514 C54.1436874,86.5621938 61.4549624,93.27688 70.3104089,93.27688 C79.5071737,93.27688 87.0255937,86.031901 87.5246247,76.9485734 L89.5701811,76.9462165 C93.1010609,77.0758437 95.9375343,80.4084397 95.9375343,84.4858027 C95.9375343,88.5537382 93.1175383,91.8816205 89.5984281,92.0277456 L89.5984281,92.0277456 Z M44.4196445,75.9940462 C44.4196445,82.9232063 38.7867143,88.5631656 31.863836,88.5631656 C24.9409577,88.5631656 19.3103815,82.9232063 19.3103815,75.9940462 C19.3103815,74.396097 24.0841309,72.1665101 31.863836,72.1665101 C39.6435411,72.1665101 44.4196445,74.396097 44.4196445,75.9940462 L44.4196445,75.9940462 Z M82.8662174,75.9940462 C82.8662174,82.9232063 77.2332872,88.5631656 70.3104089,88.5631656 C63.3875306,88.5631656 57.7569543,82.9232063 57.7569543,75.9940462 C57.7569543,74.396097 62.5307038,72.1665101 70.3104089,72.1665101 C78.090114,72.1665101 82.8662174,74.396097 82.8662174,75.9940462 L82.8662174,75.9940462 Z M17.2365781,52.5008938 C17.2365781,46.3848494 19.9388781,40.9027996 24.1924112,37.1459692 C30.4161753,39.5947438 40.3120544,42.6020936 51.4978815,42.6020936 C62.6860625,42.6020936 72.5842955,39.5947438 78.8080595,37.1459692 C83.0615927,40.9027996 85.7638927,46.3848494 85.7638927,52.5008938 L85.7638927,71.7799856 C82.6779038,68.6618635 76.1434223,67.4527958 70.3104089,67.4527958 C63.6441079,67.4527958 56.0621321,69.0318901 53.7623524,73.241237 L48.4118926,73.241237 C46.1121129,69.0318901 38.530137,67.4527958 31.863836,67.4527958 C26.5110223,67.4527958 20.5650208,68.4733149 17.2365781,71.0493598 L17.2365781,52.5008938 Z M92.8256522,70.3493733 L92.8256522,52.5008938 C92.8256522,44.1057685 89.0476109,36.5850372 83.1157329,31.5248648 C84.2526762,29.6558771 84.1749968,27.8693793 84.1749968,27.8693793 C82.2259512,4.44221893 56.2292604,-0.11594287 43.228561,1.18739915 C40.5733395,1.45372402 37.1272008,2.14428317 33.39153,3.44526834 C26.7581839,4.5482775 19.2891962,7.64990156 10.9327807,13.7070245 C10.9327807,13.7070245 13.2113751,13.5090485 16.7257775,13.6763854 C8.02568972,22.3213375 1.80427956,36.4624806 5.20804766,59.1071645 C6.8487298,55.8169919 8.54590601,52.8709204 10.2901606,50.2123855 C10.2266048,50.9712935 10.1748185,51.7302015 10.1748185,52.5008938 L10.1748185,70.3493733 C4.32532772,71.9968164 0.00117695992,77.7098382 0.00117695992,84.4858027 C0.00117695992,91.2405553 4.29708068,96.9370792 10.1136166,98.6080909 C10.2736832,103.255813 11.5447999,111.768781 17.9780628,118.980764 C25.079839,126.944585 36.2868514,130.984238 51.2836748,130.984238 C66.2804981,130.984238 77.5345889,126.946942 84.7328758,118.983121 C91.2555877,111.771138 92.627923,103.2511 92.8468375,98.6198752 C98.6845587,96.9606477 102.999294,91.2546965 102.999294,84.4858027 C102.999294,77.7098382 98.6727891,71.9968164 92.8256522,70.3493733 L92.8256522,70.3493733 Z M51.2318885,107.121059 C47.0301416,107.121059 43.0402475,106.251379 41.0629548,104.905613 L38.414795,108.803855 C41.2018361,110.701125 45.9944169,111.834773 51.2318885,111.834773 C56.8836501,111.834773 61.8739602,110.555 64.5856758,108.414974 L61.6668152,104.712351 C60.1508908,105.911991 56.3375407,107.121059 51.2318885,107.121059 L51.2318885,107.121059 Z M70.5505087,82.8006498 C68.5214298,83.0339786 66.9866741,82.35049 66.3675932,81.5703703 L64.5268278,83.0386923 C65.609631,84.3985989 67.605755,85.1999304 69.7901926,85.1999304 C70.1291571,85.1999304 70.4704754,85.1810755 70.8141477,85.1433658 C72.4901387,84.9548172 74.0319562,84.3231795 75.152422,83.3639386 L73.6223741,81.5727272 C72.8691198,82.218506 71.7486539,82.6663089 70.5505087,82.8006498 L70.5505087,82.8006498 Z M60.9229765,77.56607 L62.4294852,79.3784931 C63.5781981,78.4216091 64.9952579,77.7546185 66.5417832,77.3657371 C66.5064744,77.5118622 66.4664578,77.6603442 66.4499803,77.8158968 C66.2710824,79.6212494 67.5869236,81.2333397 69.3900262,81.4124609 C71.1907749,81.591582 72.7985022,80.2740989 72.9774001,78.4687463 C73.0150628,78.1057903 72.9750462,77.7593322 72.8997207,77.4223017 C74.594543,77.8889594 76.0139567,78.6855771 76.8660757,79.7202374 L78.6833018,78.2189194 C77.0849902,76.2792259 74.2955952,74.9900251 71.0330623,74.6836336 C67.2314817,74.3253913 63.552305,75.3789065 60.9229765,77.56607 L60.9229765,77.56607 Z" id="avatar-icon-18"></path>
                </g>
            </g>
        </g>
    </g>
</svg>