<?xml version="1.0" encoding="UTF-8" standalone="no"?>
<svg width="103px" height="118px" viewBox="0 0 103 118" version="1.1" xmlns="http://www.w3.org/2000/svg" xmlns:xlink="http://www.w3.org/1999/xlink" xmlns:sketch="http://www.bohemiancoding.com/sketch/ns">
    <!-- Generator: Sketch 3.2.2 (9983) - http://www.bohemiancoding.com/sketch -->
    <title>avatar-icon-17</title>
    <desc>Created with Sketch.</desc>
    <defs></defs>
    <g id="Page-1" stroke="none" stroke-width="1" fill="none" fill-rule="evenodd" sketch:type="MSPage">
        <g id="item-collection-preview" sketch:type="MSArtboardGroup" transform="translate(-184.000000, -1019.000000)" fill="#2F2F2F">
            <g id="avatars" sketch:type="MSLayerGroup" transform="translate(183.000000, 80.000000)">
                <g id="avatar" transform="translate(1.000000, 939.000000)" sketch:type="MSShapeGroup">
                    <path d="M66.6222096,60.058583 C65.4293825,59.9269804 64.3116942,59.4906138 63.5579589,58.8579978 L62.0317038,60.6126992 C63.1493922,61.5500792 64.6873877,62.1688424 66.356876,62.3535478 C66.6996964,62.3951065 67.0448648,62.4135771 67.3782929,62.4135771 C69.5620117,62.4135771 71.5531876,61.628579 72.6309585,60.2940824 L70.7947562,58.855689 C70.1772099,59.6222164 68.6486068,60.2987 66.6222096,60.058583 L66.6222096,60.058583 Z M19.0100944,50.975694 L23.2742164,52.9104833 C23.5771193,52.2617055 24.7957753,50.4031072 26.3290747,50.4031072 C29.8230248,50.4031072 41.044522,52.319426 45.0714874,53.0605564 L45.9332345,48.519112 C45.3250806,48.4105975 30.9688902,45.7854718 26.3290747,45.7854718 C21.5812473,45.7854718 19.2566433,50.444666 19.0100944,50.975694 L19.0100944,50.975694 Z M89.3774992,65.7313482 L85.2190411,65.7267305 L85.5665576,69.5062651 C85.57595,69.6355589 86.768777,82.5972617 86.768777,90.4241538 C86.7147711,92.3243108 81.9927726,96.5933148 75.1481054,101.358715 L75.1481054,90.5188153 C75.1481054,84.3588896 69.3929496,79.3533728 62.3158221,79.3533728 L55.0625882,79.3533728 C58.4109571,78.0742877 60.7660861,75.1120746 60.7660861,71.6603921 L56.0699166,71.6603921 C56.0699166,73.7314016 53.9636845,75.4122209 51.373747,75.4122209 C48.7814614,75.4122209 46.6775774,73.7314016 46.6775774,71.6603921 L41.9814079,71.6603921 C41.9814079,75.1120746 44.3365369,78.0742877 47.6849058,79.3533728 L40.4316719,79.3533728 C33.3545444,79.3533728 27.5993886,84.3588896 27.5993886,90.5188153 L27.5993886,101.568817 C20.604444,96.7318438 15.7673893,92.3543254 15.7392123,90.4241538 C15.7392123,82.6272763 17.1621517,69.6955882 17.1738921,69.5639856 L17.5965474,65.7267305 L13.3958237,65.7313482 C9.87369652,65.6043632 7.04425435,62.3396949 7.04425435,58.3454402 C7.04425435,54.358112 9.85960801,51.0980614 13.3676467,50.9595323 L17.1926768,50.9595323 L17.1926768,27.010166 C17.1926768,16.4981189 33.1032993,6.92806937 50.570702,6.92806937 C68.2236034,6.92806937 85.5548172,16.876765 85.5548172,27.010166 L85.5548172,50.9595323 L89.3516703,50.9595323 C92.8737975,51.0842085 95.7032396,54.3488767 95.7032396,58.3454402 C95.7032396,62.325842 92.887886,65.5882015 89.3774992,65.7313482 L89.3774992,65.7313482 Z M68.1038511,105.960188 C65.415294,107.615611 62.5788076,109.261798 59.6789229,110.82025 L51.0896287,110.82025 L42.3899746,110.582441 C39.7319426,109.153283 37.1232204,107.652552 34.6436429,106.137967 L34.6436429,90.5188153 C34.6436429,88.2192329 37.2946306,86.279826 40.4316719,86.279826 L62.3158221,86.279826 C65.4528634,86.279826 68.1038511,88.2192329 68.1038511,90.5188153 L68.1038511,105.960188 Z M102.747494,58.3454402 C102.747494,51.7075893 98.4317142,46.1063974 92.5990716,44.4971515 L92.5990716,27.010166 C92.5990716,11.0954854 70.4472397,0.00161617241 50.570702,0.00161617241 C31.0487251,0.00161617241 10.1484224,10.8507507 10.1484224,27.010166 L10.1484224,44.4971515 C4.31577983,46.1063974 0,51.7075893 0,58.3454402 C0,64.8609239 4.15845815,70.3766894 9.83143099,72.0990675 C9.39703531,76.575865 8.69495796,84.67058 8.69495796,90.4241538 C8.69495796,92.7883831 10.1531186,95.3719502 12.4565898,97.9924583 C13.6071513,99.2992491 14.9737367,100.615275 16.478859,101.924375 C19.7661777,104.76653 23.7227006,107.530184 27.5993886,109.996002 L27.5993886,116.589985 L34.6436429,116.589985 L34.6436429,114.244226 C36.5667243,115.338606 38.3207437,116.296765 39.7742082,117.06791 L40.5138549,117.455792 L50.9370032,117.744394 L50.9886611,117.749012 L61.4681635,117.744394 L62.2524238,117.331116 C63.8843427,116.465309 65.9036956,115.354768 68.1038511,114.091844 L68.1038511,116.589985 L75.1481054,116.589985 L75.1481054,109.815914 C79.1562862,107.2462 83.2114286,104.385575 86.517532,101.460303 C88.0437871,100.111953 89.3915877,98.7497505 90.5163203,97.4060186 C92.5427175,94.9794512 93.8130314,92.6036777 93.8130314,90.4241538 C93.8130314,84.6751976 93.2260102,76.575865 92.859709,72.117538 C98.5608588,70.4067041 102.747494,64.8793944 102.747494,58.3454402 L102.747494,58.3454402 Z M66.1408522,52.1093235 C62.8887548,52.4094698 60.1062743,53.6723931 58.5095767,55.5725501 L60.31995,57.0409582 C61.1746529,56.0320049 62.590548,55.2470068 64.278821,54.7921697 C64.2060303,55.1200219 64.1637648,55.4640357 64.2013342,55.814976 C64.3797886,57.588148 65.9858786,58.8764683 67.7821635,58.7009982 C69.5807964,58.525528 70.8910277,56.9462967 70.7125733,55.1800511 C70.6984848,55.0253603 70.6585673,54.8822136 70.620998,54.7367581 C72.1660378,55.1200219 73.5795848,55.7711085 74.7254502,56.7084885 L76.2258764,54.9306988 C73.6077618,52.7950424 69.9470976,51.7606921 66.1408522,52.1093235 L66.1408522,52.1093235 Z M76.4137231,45.7854718 C71.7715595,45.7854718 57.4224134,48.4105975 56.8119114,48.519112 L57.6736585,53.0605564 C61.7006239,52.319426 72.9244691,50.4031072 76.4137231,50.4031072 C77.9493706,50.4031072 79.1656785,52.2617055 79.4732776,52.9104833 L83.7373996,50.975694 C83.4861545,50.444666 81.1638987,45.7854718 76.4137231,45.7854718 L76.4137231,45.7854718 Z M51.1718117,89.7522878 C46.9851765,89.7522878 42.9981286,88.9003341 41.0280854,87.5796903 L38.3864901,91.3984749 C41.1689705,93.2616908 45.9473231,94.3699233 51.1718117,94.3699233 C56.8119114,94.3699233 61.787503,93.1162353 64.4948448,91.0198288 L61.5832196,87.3949849 C60.068705,88.5678643 56.2671557,89.7522878 51.1718117,89.7522878 L51.1718117,89.7522878 Z M26.5216176,54.9306988 L28.0220438,56.7084885 C29.1679092,55.7711085 30.5791081,55.1200219 32.126496,54.7367581 C32.0889267,54.8822136 32.0466611,55.0253603 32.0349207,55.1800511 C31.8541182,56.9462967 33.1666976,58.525528 34.9653305,58.7009982 C36.7616154,58.8764683 38.3677054,57.588148 38.5461598,55.814976 C38.579033,55.4640357 38.5414636,55.1200219 38.468673,54.7921697 C40.156946,55.2470068 41.5728411,56.0320049 42.4204997,57.0409582 L44.2332212,55.5725501 C42.6412197,53.6723931 39.8587392,52.4094698 36.6019456,52.1093235 C32.8003964,51.7606921 29.1397322,52.7950424 26.5216176,54.9306988 L26.5216176,54.9306988 Z M36.1252844,60.058583 C34.0965392,60.2987 32.570284,59.6222164 31.9503897,58.855689 L30.1118393,60.2940824 C31.1943064,61.628579 33.1854823,62.4135771 35.3621569,62.4135771 C35.7026291,62.4135771 36.0431014,62.3951065 36.3859218,62.3535478 C38.0601063,62.1688424 39.5957537,61.5500792 40.711094,60.6126992 L39.187187,58.8579978 C38.4357998,59.4906138 37.3181115,59.9269804 36.1252844,60.058583 L36.1252844,60.058583 Z" id="avatar-icon-17"></path>
                </g>
            </g>
        </g>
    </g>
</svg>