<?xml version="1.0" encoding="UTF-8" standalone="no"?>
<svg width="103px" height="118px" viewBox="0 0 103 118" version="1.1" xmlns="http://www.w3.org/2000/svg" xmlns:xlink="http://www.w3.org/1999/xlink" xmlns:sketch="http://www.bohemiancoding.com/sketch/ns">
    <!-- Generator: Sketch 3.2.2 (9983) - http://www.bohemiancoding.com/sketch -->
    <title>avatar-icon-31</title>
    <desc>Created with Sketch.</desc>
    <defs></defs>
    <g id="Page-1" stroke="none" stroke-width="1" fill="none" fill-rule="evenodd" sketch:type="MSPage">
        <g id="item-collection-preview" sketch:type="MSArtboardGroup" transform="translate(-643.000000, -1711.000000)" fill="#2F2F2F">
            <g id="avatars" sketch:type="MSLayerGroup" transform="translate(183.000000, 80.000000)">
                <g id="avatar" transform="translate(460.000000, 1631.000000)" sketch:type="MSShapeGroup">
                    <path d="M84.5645619,76.7162959 C79.0967095,97.1066563 62.9375647,110.805047 51.2756062,110.805047 C39.6136478,110.805047 23.4545029,97.1066563 17.9866505,76.7162959 L17.0346064,73.171159 L13.5430021,74.2961926 C13.3125562,74.3707289 13.0797826,74.4522531 12.8353703,74.4895213 C10.3097765,74.8854959 7.96574612,73.0733299 7.61425795,70.7627019 L7.04629031,65.6523009 C6.8717101,64.5086332 7.12077787,63.5163675 7.78418269,62.7057843 C8.48017582,61.8532744 9.58817826,61.2756174 10.9033492,61.0776301 C11.3712242,61.0100815 11.8204773,61.0450205 12.2604194,61.1125691 L16.129117,61.6902261 L16.2664535,57.779395 C16.5737147,49.1052229 17.7678433,41.9637053 19.9209993,36.1964524 C20.3097313,36.0077821 20.7054465,35.9006361 21.115128,35.882002 C21.4293724,42.3969481 23.7477977,47.7099949 27.2813013,52.0517395 C23.7547809,52.8320423 21.4712717,54.7140861 20.3236977,57.7747365 L22.5024588,58.5923075 C23.5033854,55.9276316 25.5378268,54.5417207 29.0946078,54.1038194 C31.1523266,56.2211186 33.5196343,58.072882 36.0754887,59.698707 C35.8776311,59.6777436 35.6821013,59.6404754 35.481916,59.6264998 C33.531273,59.4704393 31.4991593,59.5170245 29.5019616,60.0667304 C28.5056905,60.3532296 27.5140749,60.7515334 26.5666863,61.3524831 C26.0988113,61.6529579 25.6309363,62.0070057 25.2072883,62.4402485 C24.830195,62.8036133 24.2086895,63.6072088 24.1342019,63.9053543 L27.2184524,66.1228118 C28.0354878,65.3751187 29.304104,64.8952907 30.7379896,64.4643772 C31.0522339,64.3758653 31.3920834,64.319963 31.7156388,64.2454266 C31.8436643,66.0599218 33.3380709,67.4970765 35.1839657,67.4970765 C37.0764153,67.4970765 38.605738,65.9923732 38.6639314,64.1126586 C39.0829239,64.1965121 39.5135551,64.2524144 39.9092703,64.3758653 C41.3268616,64.8347299 42.6094443,65.6127034 42.8189405,66.5281034 L45.1466768,66.5281034 C45.2374585,65.617362 44.9395082,64.7671813 44.5112048,64.0497686 C52.4092138,67.3433452 60.9170897,69.1205722 67.6698524,70.04296 C57.5814436,59.9502673 57.939915,47.5748977 57.939915,47.5748977 C66.4757237,65.8200078 79.278273,70.2735569 79.278273,70.2735569 C79.278273,70.2735569 82.5650365,71.2541762 85.0976135,71.2541762 C85.0976135,72.4910144 85.0836471,73.6905844 85.0603697,74.8668618 L84.5645619,76.7162959 Z M50.0442338,0.791668409 C13.7268933,0.791668409 0.940638207,24.622349 3.26837443,57.2320184 C3.27768537,57.2716159 3.29397952,57.3042255 3.30561821,57.3461522 C2.98671834,57.646627 2.6561798,57.9401141 2.37917919,58.2801863 C0.468107754,60.6164362 -0.325650297,63.6048795 0.123602793,66.5607131 L0.691570431,71.6711142 C1.54119415,77.2892944 6.45970078,81.5262221 12.132394,81.5285514 C18.7198875,101.783815 35.7658998,117.792833 51.2756062,117.792833 C62.1158738,117.792833 73.6940338,109.957195 81.9388755,98.3365067 C80.1488463,104.516039 77.4579832,110.586096 73.5171258,117.450432 L82.2182038,117.450432 C94.8485005,105.566536 103.000233,86.8625616 103.000233,65.8153492 C103.000233,29.9051154 86.3592465,0.791668409 50.0442338,0.791668409 L50.0442338,0.791668409 Z M51.5130353,83.338388 C56.3407602,83.338388 60.1256593,80.2684206 60.1256593,76.3506017 L55.4701869,76.3506017 C55.4701869,77.4500134 53.7779227,78.6798638 51.5130353,78.6798638 C49.248148,78.6798638 47.5558837,77.4500134 47.5558837,76.3506017 L42.9004113,76.3506017 C42.9004113,80.2684206 46.6829827,83.338388 51.5130353,83.338388 L51.5130353,83.338388 Z M51.5130353,89.8836145 L47.6164049,87.9643026 C41.4595426,89.5179204 35.2863861,90.172443 35.2863861,90.172443 C35.2863861,90.172443 43.4613957,100.807854 51.5130353,100.807854 C59.5646749,100.807854 67.7373568,90.172443 67.7373568,90.172443 C67.7373568,90.172443 61.5665281,89.5179204 55.4119935,87.9643026 L51.5130353,89.8836145 Z" id="avatar-icon-31"></path>
                </g>
            </g>
        </g>
    </g>
</svg>