<?xml version="1.0" encoding="UTF-8" standalone="no"?>
<svg width="103px" height="117px" viewBox="0 0 103 117" version="1.1" xmlns="http://www.w3.org/2000/svg" xmlns:xlink="http://www.w3.org/1999/xlink" xmlns:sketch="http://www.bohemiancoding.com/sketch/ns">
    <!-- Generator: Sketch 3.2.2 (9983) - http://www.bohemiancoding.com/sketch -->
    <title>avatar-icon-20</title>
    <desc>Created with Sketch.</desc>
    <defs></defs>
    <g id="Page-1" stroke="none" stroke-width="1" fill="none" fill-rule="evenodd" sketch:type="MSPage">
        <g id="item-collection-preview" sketch:type="MSArtboardGroup" transform="translate(-874.000000, -1020.000000)" fill="#2F2F2F">
            <g id="avatars" sketch:type="MSLayerGroup" transform="translate(183.000000, 80.000000)">
                <g id="avatar" transform="translate(690.000000, 940.000000)" sketch:type="MSShapeGroup">
                    <path d="M70.1849533,58.2410234 C66.1797277,58.1114802 62.2797182,59.8120284 59.2728763,63.156597 L61.0030963,64.7393787 C62.3732436,63.2201909 63.9491467,62.0990538 65.6255896,61.4042315 C65.4034668,61.8187695 65.2561643,62.2804142 65.2070634,62.7797442 C65.0083219,64.8006173 66.4719946,66.6071553 68.4804527,66.8073584 C70.4889109,67.0099168 72.2799225,65.5331249 72.4786639,63.5075411 C72.5792038,62.5041706 72.2682318,61.5573279 71.6860361,60.829531 C73.7435951,61.272333 75.5533118,62.3534294 76.7738183,63.9715411 L78.6373121,62.5442112 C76.6826311,59.9580589 73.603307,58.3894091 70.1849533,58.2410234 M72.1700301,52.0229523 C66.6450166,51.7144041 61.0218014,54.526668 58.1575858,56.2319269 L59.3500347,58.2622213 C61.4707234,56.9950538 66.9536504,54.0768 72.0367564,54.3735716 C78.445585,54.7433584 80.5241872,58.6673381 80.6036838,58.8275005 L82.7009911,57.7793787 C82.5934369,57.5626883 79.9957687,52.4751756 72.1700301,52.0229523 M96.9145151,64.1835208 L96.3814202,69.0731858 C96.0073186,71.5604142 93.7019173,73.3716629 91.1182779,72.9783228 C90.8680974,72.9429929 90.636622,72.8605563 90.4051466,72.7828305 L86.8979438,71.6452061 L85.9416465,75.2300183 C80.4493669,95.8485766 64.2180322,109.700272 52.5039748,109.700272 C40.7899174,109.700272 24.5585828,95.8485766 19.0663032,75.2300183 L18.1100059,71.6452061 L14.602803,72.7828305 C14.3689895,72.8605563 14.1398523,72.9429929 13.8873337,72.9783228 C11.3481188,73.3740183 9.00063107,71.5486376 8.64757265,69.2121503 L8.07706766,64.042201 C7.90170752,62.885734 8.15188799,61.8823635 8.81591839,61.065064 C9.51735895,60.2030132 10.6303113,59.616536 11.9513577,59.4186883 C12.4283373,59.3480284 12.8749211,59.3857137 13.3121524,59.4516629 L17.195795,60.0357848 L17.3360831,56.0811858 C17.5792492,49.1400284 18.3882439,43.1786883 19.7817725,38.0911756 C26.79384,43.5790944 40.9863208,49.5263025 56.2309624,48.9892873 C76.0045718,48.294465 76.0045718,46.0192162 76.0045718,46.0192162 L59.6212584,33.5006376 C59.6212584,33.5006376 70.3556372,28.9477848 79.9560204,35.7758863 C82.3105225,37.4505259 84.428873,39.3724751 86.1286973,41.8691249 C86.9751023,46.0710335 87.4871539,50.7934701 87.6718666,56.0811858 L87.8121547,60.0357848 L91.6957973,59.4516629 C92.1377048,59.388069 92.5936412,59.3503838 93.056592,59.4186883 C94.3799765,59.616536 95.4929288,60.2030132 96.1943694,61.065064 C96.8583998,61.8823635 97.1085803,62.885734 96.9145151,64.1835208 M101.621181,56.5875817 C101.574419,56.5310538 101.513627,56.4863025 101.466864,56.4321299 C101.71003,54.4772061 101.840966,52.484597 101.840966,50.4637239 C101.840966,23.0147086 79.7502645,0.766261929 52.5039748,0.766261929 C25.2576852,0.766261929 3.16932185,23.0147086 3.16932185,50.4637239 C3.16932185,52.484597 3.30025742,54.4772061 3.54576162,56.4321299 C3.49666078,56.4863025 3.43586926,56.5310538 3.38910656,56.5875817 C1.46949755,58.9499777 0.672193443,61.971866 1.1211154,64.9607797 L1.69395853,70.1260183 C1.96985849,71.9796629 2.71572362,73.6543025 3.74450311,75.1098964 L3.74450311,105.543115 L28.9145287,105.543115 C36.09728,112.474851 44.500538,116.766262 52.5039748,116.766262 C60.5074117,116.766262 68.9106696,112.474851 76.093421,105.543115 L100.388984,105.543115 L100.388984,76.1886376 C101.901757,74.5022213 102.9773,72.387135 103.335034,69.9894091 L103.870467,65.1020995 C104.338094,61.971866 103.54079,58.9499777 101.621181,56.5875817 M52.4992986,81.4504447 C55.3588379,81.4504447 57.6852825,79.3306477 57.6852825,76.7303635 L55.3471472,76.7303635 C55.3471472,78.0328609 54.0681873,79.0951147 52.4992986,79.0951147 C50.9280717,79.0951147 49.6491117,78.0328609 49.6491117,76.7303635 L47.3109765,76.7303635 C47.3109765,79.3306477 49.6374211,81.4504447 52.4992986,81.4504447 M39.7891955,62.7797442 C39.7400947,62.2804142 39.5951303,61.8187695 39.3730075,61.4018761 C41.0494504,62.0990538 42.6253536,63.2178355 43.9931627,64.7393787 L45.7233827,63.156597 C42.7165408,59.8120284 38.8305601,58.1185462 34.8136438,58.2410234 C31.3952901,58.3894091 28.3159661,59.9580589 26.3636232,62.5442112 L28.2271169,63.9715411 C29.4452854,62.3534294 31.255002,61.272333 33.312561,60.829531 C32.7303653,61.5573279 32.4193934,62.5041706 32.5199332,63.5075411 C32.7210128,65.5331249 34.5096862,67.0099168 36.5204825,66.8073584 C38.5242644,66.6071553 39.9902752,64.8006173 39.7891955,62.7797442 M45.6462243,58.259866 L46.8386732,56.2342822 C43.9767957,54.526668 38.3535805,51.7308914 32.828567,52.0229523 C25.0028285,52.4751756 22.4074984,57.5626883 22.3022823,57.7793787 L24.3925752,58.8345665 C24.476748,58.6673381 26.5530121,54.7433584 32.9618407,54.3735716 C38.0776806,54.0956426 43.5278737,56.9950538 45.6462243,58.259866 M52.5016367,94.2775716 C59.2307898,94.2775716 64.8984296,91.4653076 66.6730742,87.6261198 L38.327861,87.6261198 C40.1025057,91.4653076 45.7701454,94.2775716 52.5016367,94.2775716" id="avatar-icon-20"></path>
                </g>
            </g>
        </g>
    </g>
</svg>