<?xml version="1.0" encoding="UTF-8" standalone="no"?>
<svg width="109px" height="131px" viewBox="0 0 109 131" version="1.1" xmlns="http://www.w3.org/2000/svg" xmlns:xlink="http://www.w3.org/1999/xlink" xmlns:sketch="http://www.bohemiancoding.com/sketch/ns">
    <!-- Generator: Sketch 3.2.2 (9983) - http://www.bohemiancoding.com/sketch -->
    <title>avatar-icon-22</title>
    <desc>Created with Sketch.</desc>
    <defs></defs>
    <g id="Page-1" stroke="none" stroke-width="1" fill="none" fill-rule="evenodd" sketch:type="MSPage">
        <g id="item-collection-preview" sketch:type="MSArtboardGroup" transform="translate(-410.000000, -1244.000000)" fill="#2F2F2F">
            <g id="avatars" sketch:type="MSLayerGroup" transform="translate(183.000000, 80.000000)">
                <g id="avatar" transform="translate(227.000000, 1163.000000)" sketch:type="MSShapeGroup">
                    <path d="M95.7065824,91.6732868 L91.5361167,91.6709537 L91.919071,95.5183707 C91.9284114,95.6186975 92.8484357,105.751707 85.6843883,113.661193 C79.9283985,120.016781 70.510992,123.238905 57.6960338,123.238905 C44.946458,123.238905 35.6084444,120.049446 29.943523,113.76152 C22.8938949,105.936028 23.8909771,95.6560284 23.9003175,95.5650343 L24.341649,91.6709537 L22.8915598,91.6709537 C26.3101274,84.1487751 30.1700265,77.7955206 34.2774448,72.3895381 C38.8822366,72.811844 47.5454099,74.3190796 50.975653,74.9607046 L51.83263,70.3713357 C51.3889634,70.2920075 43.687846,68.8641002 37.7567246,68.0941501 C56.4584376,46.5402153 79.0434005,43.0311097 89.3061085,42.6484678 C90.9523449,45.5789444 91.9003903,48.9503923 91.9003903,52.5434925 L91.9003903,76.747922 L95.6762262,76.7455888 C99.1811921,76.8715806 101.994972,80.1706999 101.994972,84.2094378 C101.994972,88.2341767 99.1952026,91.5286296 95.7065824,91.6732868 L95.7065824,91.6732868 Z M98.9079869,70.2150125 L98.9079869,52.5434925 C98.9079869,47.5924804 97.5606416,42.9611142 95.2442351,38.9527076 C97.3247978,6.72913182 68.5985557,0.382876938 51.860651,1.0338347 C31.2978736,0.107561469 -3.5743179,16.3605069 0.297256594,76.5775997 C0.297256594,76.5775997 6.8378357,64.361059 14.830839,52.9541325 C13.3433885,59.1230656 12.1384835,65.9546223 11.2861767,73.4954663 C8.55178966,76.1436278 6.82616026,79.9607135 6.82616026,84.2094378 C6.82616026,87.7115439 8.01471962,90.9080032 9.95751213,93.4138406 C9.66562623,104.904762 10.0812717,117.704598 11.3889205,131.990671 C12.9767798,121.857662 15.153081,112.881911 17.7660435,104.907095 C18.7514503,109.085824 20.7316042,113.962174 24.6568857,118.357889 C31.7041787,126.239377 42.8191936,130.238451 57.6960338,130.238451 C72.5752091,130.238451 83.7392607,126.241711 90.8799572,118.360222 C97.3481486,111.218352 98.7118395,102.786232 98.9290026,98.1991967 C104.717684,96.5589698 109.000234,90.9080032 109.000234,84.2094378 C109.000234,77.5015397 104.708343,71.8435735 98.9079869,70.2150125 L98.9079869,70.2150125 Z M74.6067349,77.3008861 C70.6254113,77.6811947 66.9709999,80.0237094 64.5144883,83.6774723 L66.4479404,84.9793879 C67.5337559,83.3694923 68.8694258,82.095575 70.3475359,81.185634 C70.2564675,81.5309449 70.2004255,81.8925881 70.214436,82.2728968 C70.3008342,84.2817665 72.0077829,85.8449984 74.0136228,85.7540043 C76.028803,85.6676765 77.5886412,83.9621205 77.502243,81.9509177 C77.4625465,81.0409767 77.0819273,80.2406953 76.5074958,79.6294017 C78.5833883,79.7787253 80.50283,80.5813399 81.9225629,81.9789159 L83.559459,80.3200235 C81.2640684,78.0615034 78.0042867,76.9602415 74.6067349,77.3008861 L74.6067349,77.3008861 Z M82.1420611,67.6111815 C77.5279289,67.6111815 63.2582114,70.2616762 62.6510887,70.3713357 L63.5080657,74.9607046 C67.5127401,74.2140864 78.6721216,72.2775454 82.1420611,72.2775454 C83.6715432,72.2775454 84.8787833,74.1534236 85.1846797,74.8090478 L89.427533,72.8561745 C89.1753436,72.3172094 86.8682775,67.6111815 82.1420611,67.6111815 L82.1420611,67.6111815 Z M61.238361,103.34153 L61.238361,98.6751659 C58.3381827,98.6751659 55.9797447,96.3186521 55.9797447,93.4208401 L55.9797447,75.991971 L51.3095704,75.991971 L51.3095704,93.4208401 C51.3095704,98.8921518 55.7649167,103.34153 61.238361,103.34153 L61.238361,103.34153 Z M46.5996997,84.9793879 L48.5331518,83.6774723 C46.074305,80.0237094 42.4222287,77.6811947 38.4409052,77.3008861 C35.0433534,76.9602415 31.7765664,78.0615034 29.4835109,80.3200235 L31.1250771,81.9789159 C32.542475,80.5813399 34.4595816,79.7787253 36.5378091,79.6294017 C35.9587075,80.2406953 35.5804234,81.0409767 35.543062,81.9509177 C35.4519936,83.9621205 37.016502,85.6676765 39.0293471,85.7540043 C41.0398572,85.8449984 42.7444708,84.2817665 42.830869,82.2728968 C42.8448795,81.8925881 42.7911725,81.5309449 42.7001041,81.185634 C44.1782143,82.095575 45.5138841,83.3694923 46.5996997,84.9793879 L46.5996997,84.9793879 Z M46.2167454,108.266877 L46.2727875,112.933241 L69.4742134,112.646259 L69.4158362,107.979895 L46.2167454,108.266877 Z" id="avatar-icon-22"></path>
                </g>
            </g>
        </g>
    </g>
</svg>