<?xml version="1.0" encoding="UTF-8" standalone="no"?>
<svg width="107px" height="132px" viewBox="0 0 107 132" version="1.1" xmlns="http://www.w3.org/2000/svg" xmlns:xlink="http://www.w3.org/1999/xlink" xmlns:sketch="http://www.bohemiancoding.com/sketch/ns">
    <!-- Generator: Sketch 3.2.2 (9983) - http://www.bohemiancoding.com/sketch -->
    <title>avatar-icon-27</title>
    <desc>Created with Sketch.</desc>
    <defs></defs>
    <g id="Page-1" stroke="none" stroke-width="1" fill="none" fill-rule="evenodd" sketch:type="MSPage">
        <g id="item-collection-preview" sketch:type="MSArtboardGroup" transform="translate(-641.000000, -1474.000000)" fill="#2F2F2F">
            <g id="avatars" sketch:type="MSLayerGroup" transform="translate(183.000000, 80.000000)">
                <g id="avatar" transform="translate(458.000000, 1394.000000)" sketch:type="MSShapeGroup">
                    <path d="M39.6701912,66.9017132 C39.6278615,66.5223655 39.5220374,66.1711176 39.3809385,65.8409446 C40.9847626,66.5340737 42.4992242,67.6112339 43.8137956,69.0513501 L45.5540154,67.482443 C42.5768286,64.2041295 38.6001912,62.4010571 34.5765209,62.5930726 C31.1407626,62.7429384 28.0459934,64.3024789 26.0847187,66.8736133 L27.9589824,68.2879714 C29.1700813,66.6956477 30.9667407,65.6255126 33.0150264,65.178257 C32.5282352,65.8690444 32.2672022,66.7190643 32.3589165,67.6276254 C32.5611582,69.6391049 34.3601692,71.107321 36.3825868,70.9059389 C38.3979495,70.7068984 39.872433,68.910851 39.6701912,66.9017132 M53.7495099,88.9577376 C56.6279275,88.9577376 58.9678176,86.8525921 58.9678176,84.2650661 L56.6161692,84.2650661 C56.6161692,85.5623416 55.3298176,86.6160852 53.7495099,86.6160852 C52.1692022,86.6160852 50.8852022,85.5623416 50.8852022,84.2650661 L48.5335538,84.2650661 C48.5335538,86.8525921 50.873444,88.9577376 53.7495099,88.9577376 M57.7190923,96.0810444 L53.7518615,97.6897596 L49.7893341,96.0810444 C43.5315978,97.6499516 37.2503451,96.9263809 37.2503451,96.9263809 C37.2503451,96.9263809 45.563422,107.318635 53.7518615,107.318635 C61.9426527,107.318635 70.2557297,96.9263809 70.2557297,96.9263809 C70.2557297,96.9263809 63.9768286,97.6499516 57.7190923,96.0810444 M87.1640813,84.4453734 C84.1210484,105.66777 58.5515758,123.906901 53.4626088,124.108283 C49.067378,123.932659 27.159422,110.205892 21.2309165,92.910447 C20.7417736,90.9692171 11.4715758,66.4146494 20.0762571,45.4147102 C23.4955538,37.0690609 26.5456418,32.3131647 31.6886967,30.7746991 C38.0992901,50.887152 51.2426527,61.5042042 63.111422,66.707356 C62.8480374,66.9602545 62.5823011,67.2084696 62.3330264,67.482443 L64.0732462,69.0513501 C64.5294659,68.5502365 65.0139055,68.1100058 65.5124549,67.697875 C66.5401253,68.0936143 67.5513341,68.4518871 68.5437297,68.7680102 C69.0681473,69.9177615 70.1593121,70.7724647 71.5091582,70.9059389 C73.5292242,71.107321 75.3305868,69.6391049 75.5328286,67.6276254 C75.6245429,66.7190643 75.3635099,65.8690444 74.8767187,65.178257 C75.1871363,65.2438232 75.476389,65.3538809 75.7750484,65.4498886 C77.1154879,66.4567992 78.425356,67.3091607 79.676433,68.0093148 C79.756389,68.1076642 79.8551582,68.1872804 79.9327626,68.2879714 L80.0315319,68.2130385 C83.5002132,70.1004104 86.4656418,70.8825223 88.2458396,70.9715051 C88.2458396,70.9715051 87.8719275,79.5115116 87.1640813,84.4453734 M68.5155099,65.8268947 C68.367356,66.1664343 68.2568286,66.5176822 68.2215538,66.9017132 C68.207444,67.0258207 68.2215538,67.145245 68.2215538,67.2670109 C68.0193121,66.929813 67.8288286,66.5972983 67.6383451,66.2647837 C67.9275978,66.1102346 68.2168505,65.9556856 68.5155099,65.8268947 M72.3839714,62.6071226 C70.3709604,62.6656639 68.3791143,63.2182938 66.528367,64.2088128 C61.7780374,54.8890361 61.4746747,47.1662663 61.4746747,47.1662663 C64.6846747,53.9921832 68.548433,58.9962945 72.3839714,62.6071226 M53.4978835,0.131835033 C16.8074659,0.131835033 0.000235164835,29.4024907 0.000235164835,65.5060883 C0.000235164835,86.6629182 8.23570769,105.466387 20.9957516,117.41584 L29.7932681,117.41584 C29.7297736,117.275341 29.6733341,117.137183 29.6121912,116.999026 C38.9270703,125.707631 49.4013121,131.13324 53.4626088,131.13324 C57.5685868,131.13324 68.2239055,125.585865 77.6116857,116.703978 C77.4729385,116.942826 77.3506527,117.17465 77.2119055,117.41584 L86.0047187,117.41584 C98.7647626,105.466387 107.000235,86.6629182 107.000235,65.5060883 C107.000235,29.4024907 90.1859495,0.131835033 53.4978835,0.131835033" id="avatar-icon-27"></path>
                </g>
            </g>
        </g>
    </g>
</svg>