<?xml version="1.0" encoding="UTF-8" standalone="no"?>
<svg width="103px" height="117px" viewBox="0 0 103 117" version="1.1" xmlns="http://www.w3.org/2000/svg" xmlns:xlink="http://www.w3.org/1999/xlink" xmlns:sketch="http://www.bohemiancoding.com/sketch/ns">
    <!-- Generator: Sketch 3.2.2 (9983) - http://www.bohemiancoding.com/sketch -->
    <title>avatar-icon-07</title>
    <desc>Created with Sketch.</desc>
    <defs></defs>
    <g id="Page-1" stroke="none" stroke-width="1" fill="none" fill-rule="evenodd" sketch:type="MSPage">
        <g id="item-collection-preview" sketch:type="MSArtboardGroup" transform="translate(-644.000000, -328.000000)" fill="#2F2F2F">
            <g id="avatars" sketch:type="MSLayerGroup" transform="translate(183.000000, 80.000000)">
                <g id="avatar" transform="translate(461.000000, 248.000000)" sketch:type="MSShapeGroup">
                    <path d="M51.5011678,86.1954924 L48.4182864,83.8754924 C43.5463997,85.1120406 39.9683889,88.0043858 39.9683889,88.0043858 C39.9683889,88.0043858 45.1275441,94.116467 51.5011678,94.116467 C57.8701204,94.116467 63.0339466,88.0043858 63.0339466,88.0043858 C63.0339466,88.0043858 59.4512648,85.1143959 54.5840491,83.8754924 L51.5011678,86.1954924 Z M51.5011678,78.804467 C54.357504,78.804467 56.6836781,76.6870254 56.6836781,74.0843858 L54.348162,74.0843858 C54.348162,75.3892386 53.0706346,76.4491371 51.5011678,76.4491371 C49.9317009,76.4491371 48.6541735,75.3892386 48.6541735,74.0843858 L46.3186574,74.0843858 C46.3186574,76.6870254 48.6401604,78.804467 51.5011678,78.804467 L51.5011678,78.804467 Z M95.8105806,63.9470457 L95.2757474,68.8343553 C94.9044003,71.3239391 92.6085879,73.1422538 90.0161649,72.7418477 C89.7686002,72.7041624 89.5350486,72.6217259 89.306168,72.5463553 L85.8028938,71.408731 L84.8453321,74.9935431 C79.3615402,95.6121015 63.1460514,109.463797 51.4474509,109.463797 C41.9582487,109.463797 29.5052765,100.353381 22.2091239,85.9152081 C20.5602495,82.6130355 19.1752884,79.04 18.1640099,75.2314315 L17.2064483,71.644264 L17.159738,71.6607513 L17.092008,71.408731 L13.5887337,72.5463553 C13.3551821,72.6217259 13.1216305,72.7041624 12.8764013,72.7418477 C10.7534171,73.0786599 8.7728994,71.8350457 7.97415287,70.0520609 C7.87372567,69.781198 7.79898915,69.5009137 7.75694986,69.2112081 L7.1847484,64.0436142 C7.00958469,62.8871472 7.26182043,61.8837766 7.92510703,61.0641218 C8.62576188,60.2020711 9.73513206,59.6179492 11.0570342,59.4177462 C11.5334795,59.3494416 11.9772276,59.3847716 12.4163046,59.4530761 L14.6467226,59.787533 C16.6272403,67.7391269 23.7529001,73.6510051 32.2425014,73.6510051 C41.6079213,73.6510051 49.3338088,66.4625381 50.2960414,57.2720406 L52.7016231,57.2720406 C53.6638557,66.4625381 61.3944143,73.6510051 70.7598341,73.6510051 C79.2424288,73.6510051 86.3634177,67.7485482 88.3509419,59.8063756 L90.7098132,59.4530761 C91.1535613,59.3871269 91.608987,59.351797 92.0690837,59.4177462 C93.3933213,59.6179492 94.5026915,60.2020711 95.2033464,61.0641218 C95.3411418,61.2360609 95.4532466,61.422132 95.5560093,61.6129137 C95.8502843,62.2747614 95.9460405,63.0331777 95.8105806,63.9470457 L95.8105806,63.9470457 Z M45.7301073,55.3383147 C45.7301073,62.8376853 39.6764494,68.9403452 32.2425014,68.9403452 C24.8015469,68.9403452 18.7548955,62.8376853 18.7548955,55.3383147 C18.7548955,53.3268629 24.2924044,51.0845888 32.2425014,51.0845888 C40.1879274,51.0845888 45.7301073,53.3268629 45.7301073,55.3383147 L45.7301073,55.3383147 Z M84.24744,55.3383147 C84.24744,62.8376853 78.1961176,68.9403452 70.7598341,68.9403452 C63.3212151,68.9403452 57.2722282,62.8376853 57.2722282,55.3383147 C57.2722282,53.3268629 62.8097371,51.0845888 70.7598341,51.0845888 C78.7052601,51.0845888 84.24744,53.3268629 84.24744,55.3383147 L84.24744,55.3383147 Z M51.5618912,14.8996548 C66.2873206,14.8996548 75.9119828,19.6951066 81.3210382,30.3011574 C83.9228033,35.5064365 85.5132898,42.1154924 86.2209512,50.2013401 C82.73169,47.4550254 76.4281319,46.3739289 70.7598341,46.3739289 C63.6855556,46.3739289 55.6373669,48.0579898 53.2948442,52.5613807 L49.7074913,52.5613807 C47.3649686,48.0579898 39.3121089,46.3739289 32.2425014,46.3739289 C26.5882168,46.3739289 20.3056783,47.4503147 16.8094105,50.1801421 C19.0234799,25.5457462 29.6337298,14.8996548 51.5618912,14.8996548 L51.5618912,14.8996548 Z M101.791837,58.3861117 C101.443846,57.6700914 101.023453,56.9846904 100.509639,56.3511066 C100.500297,56.3393299 100.490955,56.332264 100.483948,56.3204873 C100.715165,54.4032487 100.843618,52.4483249 100.843618,50.4627817 C100.843618,23.0161218 78.7799966,0.765319797 51.5618912,0.765319797 C24.3461212,0.765319797 2.28483547,23.0161218 2.28483547,50.4627817 C2.28483547,52.3753096 2.40861783,54.2525076 2.62815635,56.1061523 C2.55341983,56.1932995 2.45999918,56.2616041 2.38759818,56.3511066 C0.467803889,58.7135025 -0.326271609,61.7353909 0.122147496,64.7243046 L0.692013442,69.8918985 C0.909216446,71.3286497 1.38799726,72.6758985 2.0723035,73.8865381 C4.05282121,77.5844061 7.92510703,80.0787005 12.255154,80.0951878 C13.0889333,82.6365888 14.0791921,85.1120406 15.209582,87.4979898 C23.1199752,104.34331 37.9294833,116.76532 51.5618912,116.76532 C67.1234354,116.76532 84.2287559,100.577137 90.8382666,80.0975431 C96.5322551,80.0975431 101.469536,75.8108426 102.338348,69.988467 L102.870846,65.1011574 C103.225844,62.7175635 102.840484,60.4022741 101.791837,58.3861117 L101.791837,58.3861117 Z M60.4578723,59.1586599 L62.1861542,60.7414416 C63.5524312,59.2222538 65.1242336,58.1034721 66.8011342,57.4086497 C66.5815957,57.8231878 66.4344582,58.2848325 66.3854123,58.7818071 C66.1845579,60.8073909 67.6489266,62.6092183 69.6504639,62.8117766 C71.6590078,63.014335 73.4456777,61.5375431 73.6465321,59.5143147 C73.7469593,58.5085888 73.4363356,57.5593909 72.8547921,56.8339492 C74.9100463,57.2767513 76.7177359,58.3554924 77.9345398,59.9736041 L79.7959462,58.5486294 C77.8457902,55.9624772 74.7699154,54.3938274 71.3553907,54.247797 C67.342974,54.1229645 63.4613461,55.8164467 60.4578723,59.1586599 L60.4578723,59.1586599 Z M23.2063893,58.5486294 L25.0677957,59.9736041 C26.2869352,58.3554924 28.0922892,57.2767513 30.1498789,56.8339492 C29.5683354,57.5593909 29.2577117,58.5085888 29.3558034,59.5143147 C29.5566578,61.5375431 31.3456632,63.014335 33.3518716,62.8117766 C35.3534089,62.6092183 36.8177776,60.8073909 36.6169232,58.7818071 C36.5678774,58.2848325 36.4230754,57.8231878 36.2035368,57.4086497 C37.8781019,58.1034721 39.4499043,59.2222538 40.8161813,60.7414416 L42.5467988,59.1586599 C39.5409894,55.8164467 35.6593616,54.1229645 31.6492803,54.247797 C28.2347557,54.3938274 25.1565453,55.9624772 23.2063893,58.5486294 L23.2063893,58.5486294 Z" id="avatar-icon-07"></path>
                </g>
            </g>
        </g>
    </g>
</svg>