<?xml version="1.0" encoding="UTF-8" standalone="no"?>
<svg width="103px" height="124px" viewBox="0 0 103 124" version="1.1" xmlns="http://www.w3.org/2000/svg" xmlns:xlink="http://www.w3.org/1999/xlink" xmlns:sketch="http://www.bohemiancoding.com/sketch/ns">
    <!-- Generator: Sketch 3.2.2 (9983) - http://www.bohemiancoding.com/sketch -->
    <title>avatar-icon-05</title>
    <desc>Created with Sketch.</desc>
    <defs></defs>
    <g id="Page-1" stroke="none" stroke-width="1" fill="none" fill-rule="evenodd" sketch:type="MSPage">
        <g id="item-collection-preview" sketch:type="MSArtboardGroup" transform="translate(-184.000000, -324.000000)" fill="#2F2F2F">
            <g id="avatars" sketch:type="MSLayerGroup" transform="translate(183.000000, 80.000000)">
                <g id="avatar" transform="translate(1.000000, 244.000000)" sketch:type="MSShapeGroup">
                    <path d="M69.2982234,66.4917993 C63.1333073,66.3832614 58.2041991,61.6712978 57.9170209,55.8574379 L59.4800237,57.2802291 C60.8641285,55.7488999 62.5377656,54.6540822 64.3526378,54.0170115 C64.22788,54.3331873 64.1290154,54.6611607 64.0937066,55.0174484 C63.8912695,57.0419175 65.3671772,58.8516701 67.3868404,59.0522294 C69.4088576,59.2551482 71.2119602,57.7757285 71.4120434,55.7465404 C71.4803071,55.0622793 71.3461336,54.413411 71.0777868,53.8329688 C73.069203,54.4488038 74.7240086,55.6498001 75.6985314,57.2495553 L77.708779,56.0202449 C76.0280802,53.2666838 72.8644119,51.4144598 69.2440832,51.0746887 C65.0046736,50.6712106 60.8947295,52.3087182 57.8887739,55.5412621 C57.8864199,55.4114884 57.8511111,55.2864338 57.8534651,55.1519411 C57.9617454,49.0124673 63.2698346,44.107023 69.6889741,44.22028 C76.1034056,44.333537 81.2396588,49.423024 81.1337324,55.5601383 C81.0230981,61.7019716 75.7173628,66.6074159 69.2982234,66.4917993 L69.2982234,66.4917993 Z M33.3138506,65.8594477 C26.8970651,65.7485502 21.763166,60.6590633 21.8667384,54.521949 C21.9750187,48.3801157 27.2854619,43.4746714 33.7022474,43.5879284 C40.1190329,43.7035449 45.2529321,48.7859533 45.1446518,54.9301461 C45.0363715,61.0696199 39.7306362,65.9750642 33.3138506,65.8594477 L33.3138506,65.8594477 Z M69.7619456,40.076961 C62.5118724,39.9495469 56.3257711,44.6072415 54.3720176,51.0345769 L48.7673344,50.9378365 C47.0419112,44.442075 41.0229381,39.5720235 33.7775729,39.4446094 C25.0774851,39.2912405 17.8815521,46.0205946 17.7356091,54.4488038 C17.5873121,62.8746536 24.5431453,69.8517573 33.2408791,70.0051262 C41.9033042,70.1561355 49.0756979,63.4739719 49.2734272,55.0905936 L53.7246896,55.1708173 C53.6305329,63.5541956 60.5604729,70.4817495 69.2252518,70.6374778 C77.9253396,70.7861277 85.1189187,64.0567736 85.2648617,55.6332834 C85.4131586,47.2074337 78.4573255,40.2303299 69.7619456,40.076961 L69.7619456,40.076961 Z M33.3067889,51.0746887 C29.6864602,51.4144598 26.5227919,53.2666838 24.844447,56.0202449 L26.8523407,57.2495553 C27.8268635,55.6498001 29.4840231,54.4488038 31.4754392,53.8329688 C31.2047385,54.413411 31.070565,55.0622793 31.1388287,55.7465404 C31.3412658,57.7757285 33.1443684,59.2551482 35.1663856,59.0522294 C37.1860488,58.8516701 38.6596026,57.0419175 38.4595194,55.0174484 C38.4242106,54.6611607 38.325346,54.3331873 38.2005883,54.0170115 C40.0131065,54.6540822 41.6890975,55.7512595 43.0708484,57.2802291 L44.8174569,55.694631 C41.7973778,52.3535491 37.6003387,50.6641321 33.3067889,51.0746887 L33.3067889,51.0746887 Z M58.8868359,75.247982 C58.6702752,75.247982 58.4584225,75.2055106 58.2536314,75.1370845 C58.3972205,74.686416 58.4984391,74.2215903 58.4984391,73.735529 L55.4383433,73.735529 C55.4383433,75.1158488 53.6681956,76.2790927 51.5755608,76.2790927 C49.4805722,76.2790927 47.7104244,75.1158488 47.7104244,73.735529 L44.6503286,73.735529 C44.6503286,74.2215903 44.7515472,74.686416 44.8951363,75.1370845 C44.6903453,75.2055106 44.4808464,75.247982 44.2642858,75.247982 C43.1061572,75.247982 42.1645893,74.2617022 42.1645893,73.0465489 L39.1044935,73.0465489 C39.1044935,75.9534788 41.4183967,78.3177189 44.2642858,78.3177189 C45.1046352,78.3177189 45.9120297,78.0699692 46.6488066,77.6735697 C47.9081537,78.7070399 49.6477005,79.3488296 51.5755608,79.3488296 C53.5010673,79.3488296 55.242968,78.7070399 56.4976072,77.6735697 C57.2367381,78.0699692 58.0464865,78.3177189 58.8868359,78.3177189 C61.7303711,78.3177189 64.0442743,75.9534788 64.0442743,73.0465489 L60.9841785,73.0465489 C60.9841785,74.2617022 60.0426105,75.247982 58.8868359,75.247982 L58.8868359,75.247982 Z M89.600782,67.183139 L86.4818383,67.1807795 L85.7638927,67.1807795 L85.7638927,67.7683002 L68.0200449,82.2557596 L35.4606255,82.2557596 L17.2365781,67.3766197 L17.2365781,67.1807795 L13.7056983,67.1807795 L13.4302897,67.183139 C9.89940992,67.0533654 7.0629365,63.7170026 7.0629365,59.6350311 C7.0629365,55.5624978 9.88293248,52.230854 13.3996887,52.0869233 L17.2365781,52.0892828 L17.2365781,27.6116113 C17.2365781,16.2977078 26.4215733,7.08849707 37.7109729,7.08849707 L65.2894979,7.08849707 C76.5788975,7.08849707 85.7638927,16.2977078 85.7638927,27.6116113 L85.7638927,52.0892828 L89.5701811,52.0869233 C93.1010609,52.2143374 95.9375343,55.5507002 95.9375343,59.6350311 C95.9375343,63.705205 93.1175383,67.0368487 89.600782,67.183139 L89.600782,67.183139 Z M39.4811206,92.1775456 C40.8157932,89.9360006 45.8178729,88.2631002 51.8227224,88.2631002 C57.825218,88.2631002 62.8272977,89.9360006 64.1619703,92.1775456 L39.4811206,92.1775456 Z M51.8227224,98.4538717 C45.815519,98.4538717 40.8134393,96.7809712 39.4811206,94.5370667 L64.1619703,94.5370667 C62.8296516,96.7809712 57.8275719,98.4538717 51.8227224,98.4538717 L51.8227224,98.4538717 Z M92.8256522,45.4826238 L92.8256522,27.6116113 C92.8256522,12.3927004 80.4722809,0.00993388235 65.2894979,0.00993388235 L37.7109729,0.00993388235 C22.5281899,0.00993388235 10.1748185,12.3927004 10.1748185,27.6116113 L10.1748185,45.4826238 C4.32532772,47.1295695 0.00117695992,52.8514081 0.00117695992,59.6350311 C0.00117695992,66.4186542 4.32532772,72.1404928 10.1748185,73.7874385 L10.1748185,88.6736568 C10.1748185,103.708525 22.2363038,115.954439 37.1672174,116.24938 C38.6713722,120.543708 44.5090934,123.750297 51.5002354,123.750297 C58.4913773,123.750297 64.3290986,120.543708 65.8332533,116.24938 C80.7641669,115.954439 92.8256522,103.708525 92.8256522,88.6736568 L92.8256522,73.7874385 C98.6727891,72.1404928 102.999294,66.4186542 102.999294,59.6350311 C102.999294,52.8514081 98.6727891,47.1295695 92.8256522,45.4826238 L92.8256522,45.4826238 Z" id="avatar-icon-05"></path>
                </g>
            </g>
        </g>
    </g>
</svg>