<?xml version="1.0" encoding="UTF-8" standalone="no"?>
<svg width="103px" height="117px" viewBox="0 0 103 117" version="1.1" xmlns="http://www.w3.org/2000/svg" xmlns:xlink="http://www.w3.org/1999/xlink" xmlns:sketch="http://www.bohemiancoding.com/sketch/ns">
    <!-- Generator: Sketch 3.2.2 (9983) - http://www.bohemiancoding.com/sketch -->
    <title>avatar-icon-44</title>
    <desc>Created with Sketch.</desc>
    <defs></defs>
    <g id="Page-1" stroke="none" stroke-width="1" fill="none" fill-rule="evenodd" sketch:type="MSPage">
        <g id="item-collection-preview" sketch:type="MSArtboardGroup" transform="translate(-874.000000, -2404.000000)" fill="#2F2F2F">
            <g id="avatars" sketch:type="MSLayerGroup" transform="translate(183.000000, 80.000000)">
                <g id="avatar" transform="translate(690.000000, 2324.000000)" sketch:type="MSShapeGroup">
                    <path d="M70.3520443,57.3865096 C66.3468641,57.2569665 62.4468988,58.9575147 59.4400911,62.3020832 L61.1702915,63.884865 C62.5404232,62.3633218 64.1163084,61.2445401 65.7927323,60.5497178 C65.570612,60.9642558 65.4233112,61.4259005 65.3742109,61.9252305 C65.1754717,63.9461036 66.6391277,65.7526416 68.647563,65.9528447 C70.6559984,66.155403 72.4469896,64.6786112 72.6457289,62.6530274 C72.7462675,61.6496569 72.4352991,60.7028142 71.85311,59.9750173 C73.9106457,60.4178193 75.7203418,61.4989157 76.9408345,63.1170274 L78.8043071,61.6896975 C76.8496483,59.1035452 73.7703591,57.5348954 70.3520443,57.3865096 L70.3520443,57.3865096 Z M52.6689284,90.2221645 L48.7549344,87.2803574 C42.570637,88.8513624 38.0253537,92.5162558 38.0253537,92.5162558 C38.0253537,92.5162558 44.5814104,100.270002 52.6689284,100.270002 C60.7564463,100.270002 67.3101649,92.5162558 67.3101649,92.5162558 C67.3101649,92.5162558 62.7672197,88.8513624 56.5829223,87.2803574 L52.6689284,90.2221645 Z M72.3370985,51.1684386 C66.8121477,50.8598904 61.1889964,53.6721543 58.3248132,55.3774132 L59.5172487,57.4077076 C61.6379132,56.1405401 67.1207781,53.2222863 72.2038263,53.5190579 C78.6125822,53.8888447 80.6911608,57.8128244 80.7706565,57.9729868 L82.86794,56.924865 C82.760387,56.7081746 80.1627483,51.6206619 72.3370985,51.1684386 L72.3370985,51.1684386 Z M52.6665902,80.595931 C55.5260972,80.595931 57.8525153,78.476134 57.8525153,75.8758497 L55.5144066,75.8758497 C55.5144066,77.1783472 54.2354612,78.240601 52.6665902,78.240601 C51.0953812,78.240601 49.8164358,77.1783472 49.8164358,75.8758497 L47.4783271,75.8758497 C47.4783271,78.476134 49.8047452,80.595931 52.6665902,80.595931 L52.6665902,80.595931 Z M96.9129588,64.1839919 L96.37987,69.0736569 C96.0081107,71.5608853 93.7003975,73.372134 91.1167874,72.9787939 C90.8666098,72.9411086 90.635137,72.8586721 90.4036642,72.7833015 L86.8965012,71.6456772 L85.9402148,75.2304893 C80.4479975,95.8490477 64.2168471,109.700743 52.5029226,109.700743 C40.7889982,109.700743 24.5578478,95.8490477 19.0656305,75.2304893 L18.109344,71.6456772 L14.602181,72.7833015 C14.3707083,72.8586721 14.1392355,72.9411086 13.8890579,72.9787939 C11.3498719,73.3744893 9.00007264,71.5491086 8.64701823,69.2126213 L8.07651971,64.0426721 C7.90116156,62.8862051 8.15133919,61.8828345 8.81770016,61.065535 C9.51679466,60.2011289 10.6297344,59.6170071 11.9507658,59.4168041 C12.4300781,59.3484995 12.8743187,59.3861848 13.311545,59.452134 L17.1974817,60.0362558 L17.3354301,56.0816569 C17.4289544,53.4083574 17.6323699,50.9234843 17.8918999,48.5281137 L46.7464991,48.5281137 L46.7464991,32.6932305 L60.8873803,46.9359107 L60.8873803,32.6932305 L76.6088231,48.5281137 L87.1139453,48.5281137 C87.3734754,50.9234843 87.5768909,53.4083574 87.6704152,56.0816569 L87.8107017,60.0362558 L91.6943002,59.452134 C92.1362028,59.3885401 92.5944721,59.3508548 93.0550795,59.4168041 C94.378449,59.6170071 95.4913887,60.2011289 96.1928213,61.065535 C96.8568442,61.8828345 97.1070218,62.8862051 96.9129588,64.1839919 L96.9129588,64.1839919 Z M101.619572,56.5880528 C101.575147,56.5315249 101.512019,56.4867736 101.467594,56.432601 C101.70842,54.4776772 101.839354,52.485068 101.839354,50.4641949 C101.839354,23.0151797 79.7512411,0.766732995 52.5029226,0.766732995 C25.2569423,0.766732995 3.17116772,23.0151797 3.17116772,50.4641949 C3.17116772,52.485068 3.29976369,54.4776772 3.5452651,56.432601 C3.49616482,56.4867736 3.435374,56.5315249 3.38861182,56.5880528 C1.4690246,58.9504487 0.671729542,61.9723371 1.12298452,64.9612508 L1.69348303,70.1264893 C2.44401592,75.1386315 6.38139092,79.0555452 11.2072472,79.9128853 C12.6124505,81.5898802 13.4705364,83.7379411 13.4705364,86.1050477 C13.4705364,90.6720325 10.3327946,94.473535 6.11718464,95.5145909 C7.75386072,96.793535 9.77632472,97.5872812 12.0092185,97.5872812 C15.0861695,97.5872812 17.7960375,96.108134 19.5613095,93.8446619 C27.8966669,107.368966 40.6393592,116.766733 52.5029226,116.766733 C63.9152311,116.766733 76.1412013,108.061434 84.4742206,95.3614944 C86.2418308,97.4294741 88.827779,98.7649462 91.7504148,98.7649462 C93.9786324,98.7649462 96.0081107,97.9712 97.6424487,96.6922558 C93.4268388,95.6512 90.2890969,91.8496975 90.2890969,87.2827127 C90.2890969,84.3197076 91.6405237,81.7005807 93.7237786,79.9199513 C98.5870446,79.0908751 102.561829,75.1504081 103.333405,69.9898802 L103.868832,65.1002152 C104.336454,61.9723371 103.539159,58.9504487 101.619572,56.5880528 L101.619572,56.5880528 Z M45.8135937,57.4053523 L47.0060291,55.3797685 C44.1441841,53.6721543 38.5210328,50.8763777 32.996082,51.1684386 C25.1704322,51.6206619 22.5751316,56.7081746 22.4699167,56.924865 L24.5601859,57.9800528 C24.6443578,57.8128244 26.7205983,53.8888447 33.1293542,53.5190579 C38.2451359,53.2411289 43.6952673,56.1405401 45.8135937,57.4053523 L45.8135937,57.4053523 Z M39.9566315,61.9252305 C39.9075312,61.4259005 39.7625685,60.9642558 39.5404481,60.5473624 C41.2192102,61.2445401 42.7904192,62.3633218 44.1605509,63.884865 L45.8907513,62.3020832 C42.8839435,58.9575147 38.9980069,57.2640325 34.9811362,57.3865096 C31.5628213,57.5348954 28.4835322,59.1035452 26.5312115,61.6896975 L28.3946841,63.1170274 C29.6128387,61.4989157 31.4225348,60.4178193 33.4800705,59.9750173 C32.8978814,60.7028142 32.5869129,61.6496569 32.6874516,62.6530274 C32.888529,64.6786112 34.6771821,66.155403 36.6879556,65.9528447 C38.6917147,65.7526416 40.1577088,63.9461036 39.9566315,61.9252305 L39.9566315,61.9252305 Z" id="avatar-icon-44"></path>
                </g>
            </g>
        </g>
    </g>
</svg>