<?xml version="1.0" encoding="UTF-8" standalone="no"?>
<svg width="122px" height="128px" viewBox="0 0 122 128" version="1.1" xmlns="http://www.w3.org/2000/svg" xmlns:xlink="http://www.w3.org/1999/xlink" xmlns:sketch="http://www.bohemiancoding.com/sketch/ns">
    <!-- Generator: Sketch 3.2.2 (9983) - http://www.bohemiancoding.com/sketch -->
    <title>avatar-icon-24</title>
    <desc>Created with Sketch.</desc>
    <defs></defs>
    <g id="Page-1" stroke="none" stroke-width="1" fill="none" fill-rule="evenodd" sketch:type="MSPage">
        <g id="item-collection-preview" sketch:type="MSArtboardGroup" transform="translate(-864.000000, -1245.000000)" fill="#2F2F2F">
            <g id="avatars" sketch:type="MSLayerGroup" transform="translate(183.000000, 80.000000)">
                <g id="avatar" transform="translate(681.000000, 1165.000000)" sketch:type="MSShapeGroup">
                    <path d="M59.1420524,92.5642864 C54.9941641,92.5642864 51.6287184,96.9090702 51.6287184,102.268795 C51.6287184,107.626204 54.9941641,111.970987 59.1420524,111.970987 C63.2899407,111.970987 66.6553864,107.626204 66.6553864,102.268795 C66.6553864,96.9090702 63.2899407,92.5642864 59.1420524,92.5642864 L59.1420524,92.5642864 Z M65.6749765,65.3647812 L67.4213317,66.9219517 C68.8000332,65.4273461 70.3884859,64.3266675 72.078279,63.640771 C71.8567441,64.0486014 71.7082685,64.5050933 71.6587767,64.9940263 C71.4584525,66.9821994 72.933781,68.7595056 74.9582333,68.9564691 C76.9803288,69.1557499 78.7879597,67.7028542 78.9882838,65.7123639 C79.0872675,64.7229118 78.7738192,63.7913902 78.1869872,63.077687 C80.2632881,63.5110068 82.0874163,64.5722926 83.3176422,66.1665386 L85.1959757,64.7623045 C83.2257288,62.2179991 80.1195261,60.6770491 76.6739507,60.5287472 C72.6391866,60.4036174 68.7081198,62.0743316 65.6749765,65.3647812 L65.6749765,65.3647812 Z M92.3652236,86.5140301 C92.3605101,86.5302506 92.3581533,86.5464712 92.3557966,86.5626917 C92.3463695,86.5951327 92.341656,86.6275738 92.3345858,86.6623321 C92.1295481,87.5359233 91.8773753,88.40488 91.5898513,89.2622507 C91.5757107,89.3039606 91.5592135,89.3433533 91.5474297,89.3850632 C91.2575489,90.2238962 90.9323167,91.0580947 90.5717332,91.8807071 C90.564663,91.8969276 90.5599495,91.9108309 90.555236,91.9270514 C86.6076718,100.885416 78.5428572,108.699075 71.4820201,113.861837 C71.453739,113.882692 71.4231012,113.903547 71.3971769,113.926719 C69.8558593,115.045936 68.3687471,116.042339 66.9829753,116.892758 C66.957051,116.908979 66.9334835,116.925199 66.9075592,116.939103 C66.2453111,117.344616 65.6113441,117.715371 65.0009446,118.053685 C64.9278852,118.095395 64.8524691,118.13247 64.7817664,118.17418 C64.180794,118.500908 63.6057458,118.804463 63.0707625,119.063992 L63.0589788,119.068626 C62.5428495,119.318886 62.0691418,119.527435 61.6237151,119.705861 C61.5553692,119.735985 61.4823099,119.766109 61.4116072,119.793915 C60.9968184,119.956121 60.6150241,120.085885 60.2780082,120.183208 C60.2143758,120.201746 60.1531002,120.215649 60.0918246,120.229552 C59.7595222,120.315289 59.4555008,120.375537 59.2221821,120.384806 C58.9511553,120.37322 58.6047124,120.303703 58.2111343,120.194794 C58.166356,120.183208 58.1310047,120.173939 58.0838696,120.162353 C57.695005,120.046492 57.2495784,119.884287 56.7617302,119.685006 C56.6910275,119.654882 56.6250384,119.629393 56.5566925,119.599269 C56.052347,119.386085 55.5055799,119.131191 54.9163912,118.836904 C54.8527589,118.804463 54.7867697,118.772022 54.7231373,118.737264 C54.0985973,118.417488 53.438706,118.062954 52.7387499,117.65744 C52.7222526,117.648171 52.7057553,117.638903 52.6916148,117.629634 C49.7221038,115.912575 46.1610475,113.454007 42.6023479,110.432355 C42.0744348,109.987449 41.553592,109.526322 41.0280357,109.058244 L41.0091817,109.039707 C40.9997547,109.032755 40.9926844,109.025803 40.9832574,109.018852 C40.4883389,108.573946 39.9981339,108.117454 39.5102857,107.65401 C39.4655073,107.609983 39.4183723,107.57059 39.3759507,107.526563 C38.0915194,106.298438 36.8330123,104.998478 35.6287107,103.638271 C35.5815756,103.587293 35.5367972,103.531679 35.4896622,103.4807 C34.9099005,102.822611 34.3442794,102.152935 33.7951555,101.469355 C33.7857285,101.455452 33.7739447,101.441549 33.762161,101.427645 C33.184756,100.709308 32.6262052,99.9724324 32.0888651,99.223971 C32.0370165,99.1521372 31.9851679,99.0779862 31.9356761,99.0038353 L31.8390491,98.862485 C31.513817,98.4036758 31.1956551,97.9402322 30.8916337,97.4721542 C30.8067905,97.3447072 30.7290176,97.2103085 30.6441745,97.0782271 C30.6111799,97.0295655 30.5781853,96.9762695 30.5475475,96.9252907 C30.283591,96.5081915 30.0267047,96.088775 29.7792455,95.6647241 C29.7509644,95.6160625 29.7250401,95.5697182 29.6967591,95.5210566 C29.5954186,95.344948 29.4964349,95.1688394 29.3974512,94.9904137 C29.1829865,94.601121 28.9708786,94.2095112 28.7681977,93.8155841 C28.6809978,93.64411 28.5961546,93.4726358 28.5089547,93.2988445 L28.400544,93.0763916 C28.2143604,92.6963678 28.035247,92.3117096 27.8679174,91.9247342 C27.7524364,91.6652058 27.641669,91.4079946 27.535615,91.1484662 C27.3777124,90.7661252 27.2315936,90.3791498 27.0901884,89.9921744 C26.9935614,89.7233771 26.8945777,89.456897 26.805021,89.1880997 C26.6777563,88.8103932 26.5622753,88.4280522 26.4515078,88.0410768 C26.3713782,87.7606934 26.286535,87.4779928 26.2158324,87.1952922 C26.1144919,86.7944135 26.0320055,86.3912176 25.9495191,85.9903388 C25.892957,85.7284932 25.8316814,85.4666476 25.786903,85.2001675 C25.7091301,84.7552616 25.6572815,84.3057213 25.6030761,83.8538638 C25.5842221,83.696293 25.5630113,83.5410394 25.5441573,83.3857858 C25.537087,83.3162692 25.5253032,83.2467527 25.518233,83.1772362 C25.4593141,82.4982913 25.4239628,81.8193464 25.4239628,81.1357671 L25.4239628,77.6761606 L21.905328,77.65994 C15.410112,77.6321334 14.6370965,66.0066506 14.6300262,65.8977414 L14.5946749,65.5362553 C14.4179183,64.3985013 14.670091,63.4113664 15.3417661,62.6049745 C16.0464358,61.7568727 17.168251,61.1822027 18.5021742,60.9852391 C18.6765741,60.9597497 18.8439036,60.9481637 19.01359,60.9481637 C19.3034708,60.9481637 19.5886381,60.9782875 19.8690919,61.0199974 L23.7860183,61.5946675 L23.9250668,57.7040584 C23.9816289,56.1677429 24.0782558,54.7009439 24.1866666,53.2596342 C24.2267314,52.7730185 24.269153,52.2956715 24.3139313,51.8206419 C24.403488,50.8589964 24.5118987,49.9297919 24.6273797,49.0121736 C24.7357904,48.187244 24.8512714,47.3762177 24.9785361,46.5837291 C25.0987306,45.8329505 25.2259954,45.0868063 25.3650439,44.3661515 C25.5205897,43.585249 25.6902761,42.8298359 25.8670327,42.0860089 C25.9353786,41.8033083 26.0060812,41.5275594 26.0767838,41.247176 C26.7390319,38.6681123 27.545042,36.2999155 28.5136682,34.1541716 C28.516025,34.1449028 28.5207385,34.1379511 28.5230952,34.1286822 C49.3497366,34.7242073 60.7375754,40.9853304 75.2999627,51.449887 C76.6645237,52.4300702 77.9018199,53.4403773 79.0684135,54.4645876 C78.929365,54.4553187 78.8185975,54.4205605 78.6748355,54.4136088 C73.1081808,54.1100533 67.4401858,56.8744944 64.5531612,58.5544774 L65.7551061,60.5496022 C67.8926827,59.3029389 73.4192725,56.4342229 78.5405004,56.7261924 C79.9309857,56.8026606 81.0834388,57.062189 82.089773,57.3935512 C89.7562961,65.6474818 92.0871265,75.2546677 92.4052884,86.2985288 C92.3887911,86.3680454 92.3817209,86.4421964 92.3652236,86.5140301 L92.3652236,86.5140301 Z M121.845868,63.6152816 C120.667491,41.6017104 103.637581,-0.687518588 57.6243024,0.471090424 C35.7583322,1.0202711 -4.82969743,19.0088346 0.47300067,73.4634582 C3.33645764,102.866638 12.2567742,127.338777 12.2567742,127.338777 C12.2567742,127.338777 19.3270384,129.076691 32.8783779,118.64921 C34.3843442,117.543897 35.8620294,116.357481 37.3279308,115.13399 C42.8191693,119.861115 48.5178022,123.445851 52.9437875,125.466465 C52.948501,125.468782 52.9532146,125.4711 52.9579281,125.473417 C53.8346408,125.874295 54.6618617,126.212609 55.4254502,126.488358 C55.4419475,126.49531 55.4537313,126.497627 55.4702286,126.502262 C56.2243901,126.771059 56.9219895,126.981926 57.5465295,127.118642 L57.5724538,127.125593 C58.1993505,127.264626 58.7531879,127.33646 59.2221821,127.33646 C59.5026359,127.33646 59.8231545,127.301702 60.1601705,127.25304 C60.2591542,127.239137 60.3652081,127.215965 60.4665486,127.197427 C60.7305051,127.148765 61.0086022,127.088518 61.3031965,127.014367 C61.413964,126.984243 61.5270882,126.956436 61.6449259,126.921678 C62.0007959,126.822038 62.3755199,126.706177 62.7667412,126.571778 C62.8209465,126.550923 62.8727951,126.534703 62.931714,126.513848 C63.8956267,126.173217 64.9632366,125.723676 66.1062626,125.17913 L66.2712354,125.098027 C66.8250728,124.833865 67.3930507,124.544212 67.9798826,124.233705 C67.9963799,124.224436 68.0105204,124.217485 68.0270177,124.208216 C69.2831679,123.540857 70.6029506,122.776175 71.9675116,121.91417 C71.83789,122.048569 71.7648307,122.125037 71.7648307,122.125037 C71.7648307,122.125037 125.227811,126.789597 121.845868,63.6152816 L121.845868,63.6152816 Z M52.0199397,65.3647812 C48.9867964,62.0743316 45.0698701,60.4105691 41.0233222,60.5287472 C37.5777468,60.6770491 34.4715441,62.2203163 32.5036539,64.7623045 L34.3819874,66.1665386 C35.6098566,64.5722926 37.4339848,63.5110068 39.5102857,63.077687 C38.9234538,63.7913902 38.6100054,64.7229118 38.7089891,65.7123639 C38.91167,67.7028542 40.7169441,69.1557499 42.7413964,68.9564691 C44.7611352,68.7595056 46.2388204,66.9821994 46.0361395,64.9940263 C45.9866476,64.5027761 45.8405288,64.0486014 45.6166371,63.6384538 C47.308787,64.3243503 48.8948829,65.4273461 50.2735845,66.9219517 L52.0199397,65.3647812 Z M58.8474581,86.4537824 C61.7321259,86.4537824 64.0770968,84.3682862 64.0770968,81.8100775 L61.7203421,81.8100775 C61.7203421,83.0938163 60.4311973,84.1365644 58.8474581,84.1365644 C57.2637189,84.1365644 55.9745741,83.0938163 55.9745741,81.8100775 L53.6178194,81.8100775 C53.6178194,84.3682862 55.9627903,86.4537824 58.8474581,86.4537824 L58.8474581,86.4537824 Z M51.93981,60.5472849 L53.1417549,58.5567946 C50.2570872,56.8744944 44.5890921,54.1262738 39.0224375,54.4136088 C31.1320227,54.8561975 28.5183817,59.8613884 28.409971,60.0745725 L30.5169097,61.1126861 C30.6041096,60.9481637 32.6945511,57.0876784 39.1567725,56.7261924 C44.310995,56.4527607 49.8045903,59.3029389 51.93981,60.5472849 L51.93981,60.5472849 Z" id="avatar-icon-24"></path>
                </g>
            </g>
        </g>
    </g>
</svg>