<?xml version="1.0" encoding="UTF-8" standalone="no"?>
<svg width="114px" height="132px" viewBox="0 0 114 132" version="1.1" xmlns="http://www.w3.org/2000/svg" xmlns:xlink="http://www.w3.org/1999/xlink" xmlns:sketch="http://www.bohemiancoding.com/sketch/ns">
    <!-- Generator: Sketch 3.2.2 (9983) - http://www.bohemiancoding.com/sketch -->
    <title>avatar-icon-03</title>
    <desc>Created with Sketch.</desc>
    <defs></defs>
    <g id="Page-1" stroke="none" stroke-width="1" fill="none" fill-rule="evenodd" sketch:type="MSPage">
        <g id="item-collection-preview" sketch:type="MSArtboardGroup" transform="translate(-638.000000, -90.000000)" fill="#2F2F2F">
            <g id="avatars" sketch:type="MSLayerGroup" transform="translate(183.000000, 80.000000)">
                <g id="avatar" transform="translate(454.000000, 10.000000)" sketch:type="MSShapeGroup">
                    <path d="M104.65856,114.836634 C104.245798,114.56031 103.844696,114.267593 103.459917,113.956142 C103.259366,113.799245 103.086799,113.611906 102.893244,113.445643 C103.518217,113.155268 104.124534,112.8204 104.698204,112.419963 C105.171598,112.094461 105.603016,111.705733 106.032102,111.317005 C105.631,112.51129 105.17393,113.6845 104.65856,114.836634 L104.65856,114.836634 Z M101.545354,112.237307 C101.07196,111.764277 100.633546,111.263145 100.202128,110.754988 C102.156335,108.249331 103.942639,105.549309 105.556376,102.687707 C105.582028,103.146687 105.600684,103.608009 105.577364,104.071673 C105.46776,106.38765 104.69354,108.745779 103.138103,110.680053 C102.678701,111.251436 102.133015,111.761935 101.545354,112.237307 L101.545354,112.237307 Z M98.0986738,114.012343 C98.1243257,113.752411 98.1476456,113.492478 98.1709655,113.227862 C98.509104,112.836792 98.8449104,112.44338 99.1760529,112.040601 C99.5561672,112.396545 99.9246215,112.768881 100.325724,113.10375 C99.6401188,113.501845 98.8845543,113.794562 98.0986738,114.012343 L98.0986738,114.012343 Z M95.3306025,84.4479241 C94.8222288,88.0331222 93.6352462,91.5176256 92.0588214,94.8592831 C90.9697823,91.2506677 90.2095538,87.5413576 89.7035121,83.827364 C89.6055685,83.0967423 89.5449368,82.3661206 89.4703132,81.6354989 C92.4552596,79.4295835 94.7825849,76.3900099 96.303042,72.9781003 C96.1491307,75.8045759 95.8203202,81.0008884 95.3306025,84.4479241 L95.3306025,84.4479241 Z M61.9108628,124.112251 C59.0728317,123.997506 48.8890341,118.12209 40.4938724,109.277353 C41.6878509,109.188367 42.8771655,109.059571 44.0524882,108.883941 C42.7885499,108.982294 41.5199477,109.024445 40.2536775,109.022103 C35.8532135,104.333948 31.9634553,98.8449181 29.9486165,92.9156421 C29.6851017,91.8571773 26.8400746,84.0474872 25.6857399,73.7766323 C28.8432535,80.2117233 34.869114,85.2136718 42.9517892,85.2136718 C51.5125222,85.2136718 58.7137053,79.3195219 60.7985038,71.3669858 C62.8786384,79.3195219 70.0798215,85.2136718 78.6428865,85.2136718 C80.9329001,85.2136718 83.0573424,84.8132349 84.9998895,84.0919802 C85.0441973,84.2910278 85.0745132,84.4924171 85.121153,84.6891229 C86.2824837,89.5294916 87.8589085,94.2972664 89.9833508,98.7863747 C81.4342778,113.274696 65.7633092,123.960039 61.9108628,124.112251 L61.9108628,124.112251 Z M34.8154783,123.828901 C32.8332873,123.224733 30.9583679,122.37 29.165068,121.37242 C29.5032065,120.847871 29.7947052,120.30693 30.0139122,119.763647 C30.3450546,118.983849 30.5875815,118.201709 30.7974606,117.421911 L38.4393898,117.421911 C38.376426,117.279065 38.3204583,117.140903 38.2574946,117.00274 C41.7298268,120.276488 45.3630662,123.084229 48.7607747,125.318246 C44.0338323,125.575837 39.269578,125.210526 34.8154783,123.828901 L34.8154783,123.828901 Z M25.4688649,118.955748 C24.335518,118.072914 23.251143,117.129194 22.2670435,116.08478 C22.0221846,115.824847 21.8216335,115.536814 21.5861026,115.269856 C21.921909,112.628377 21.6747182,110.249173 21.6560623,107.989398 C22.0758203,108.595908 22.5002424,109.200075 22.9363244,109.787851 C23.5519696,111.277195 24.0999871,112.626035 24.5523931,114.082595 C25.0397788,115.649217 25.4198931,117.222864 25.4758608,118.677082 C25.4781928,118.773093 25.4688649,118.862079 25.4688649,118.955748 L25.4688649,118.955748 Z M52.2820787,63.7259007 L35.6876423,62.0702932 C36.9795644,61.3607471 38.7029046,60.7636044 41.009242,60.6324672 C45.2418028,60.4006353 49.6772465,62.3395929 52.2820787,63.7259007 L52.2820787,63.7259007 Z M28.8036097,45.4158655 C32.1943222,37.0699178 35.2189124,32.3138516 40.3189732,30.7776727 C45.7361845,47.9191815 56.0109297,58.1572521 66.2133832,64.0350098 L60.7985038,64.5759509 L54.0100828,63.8991892 L54.847267,62.4824388 C51.995244,60.7823383 46.3844775,58.0026975 40.8763186,58.2930728 C36.4968426,58.5459803 33.8033949,60.2413972 32.2246381,61.7237162 L25.3522654,61.0375875 C25.7067278,55.8717175 26.7211432,50.5395843 28.8036097,45.4158655 L28.8036097,45.4158655 Z M76.8729066,58.468703 C75.4480611,58.6654088 74.0605274,59.0049605 72.7499494,59.4381817 C70.0611656,52.3989228 69.8559506,47.1698259 69.8559506,47.1698259 C71.9710649,51.7104524 74.3800099,55.415079 76.8729066,58.468703 L76.8729066,58.468703 Z M80.6857092,62.5901586 L74.377678,63.2200857 C74.1164951,62.6768029 73.8763002,62.142887 73.6454333,61.6136546 C75.2684979,61.0844223 77.0174899,60.7120862 78.7688139,60.6488593 C79.407779,61.3373298 80.0444121,61.9859907 80.6857092,62.5901586 L80.6857092,62.5901586 Z M13.6759946,99.9244585 C14.473535,100.737041 15.3107192,101.512156 16.1875472,102.228727 C16.2505109,104.127875 16.6049733,105.907594 17.0270634,107.528076 C17.2299464,108.324266 17.4678093,109.099381 17.7126682,109.860445 C15.9403563,106.762328 14.6157863,103.404278 13.6759946,99.9244585 L13.6759946,99.9244585 Z M11.8640389,88.9346906 C11.8127351,88.185335 11.7940792,87.431296 11.7637633,86.6795987 C12.9670699,91.0071271 14.5248388,95.1285828 16.3997582,98.9924475 C16.3787703,99.1259264 16.3647784,99.2570636 16.3461225,99.3858591 C15.8867205,98.898778 15.3946708,98.4421395 14.9702487,97.922274 C14.0910887,96.8450754 13.2888844,95.7163585 12.5519757,94.5525157 C12.2464851,92.6838102 12.0039582,90.8057378 11.8640389,88.9346906 L11.8640389,88.9346906 Z M9.31750649,55.8178576 C9.1402753,56.4618351 8.94905217,57.1034708 8.79047689,57.7474482 C7.27701579,64.0396933 6.47714344,70.4490252 6.40718375,76.8513319 C5.99675363,73.912453 5.79153856,70.9454733 5.80319851,68.0112779 C5.88481814,58.2298459 8.06056422,48.4530973 12.1508736,39.7793066 C10.75168,44.8304315 9.81188824,50.2070577 9.31750649,55.8178576 L9.31750649,55.8178576 Z M109.469454,107.734149 C111.689508,101.406777 112.645624,94.5056809 111.880731,87.599901 C113.893238,80.6988045 115.000933,73.2661338 115.000933,65.5103036 C115.000933,29.4054153 98.3272088,0.138396608 61.9458426,0.138396608 C49.6376027,0.138396608 39.5983885,3.49410455 31.6812846,9.32268588 L31.6486367,9.22199123 C25.8186633,11.3342373 20.5367074,15.1184829 16.4860418,19.556073 C12.3887365,24.0147386 9.28719063,29.1337739 6.94120932,34.4682489 C2.2935545,45.172325 0.446618922,56.7686025 1.14155175,68.1541238 C1.51700204,73.8468844 2.56872925,79.5115442 4.50428043,84.8858287 C5.35312456,87.2439571 6.41417972,89.5318333 7.63614215,91.7307236 C8.45233843,96.1987562 9.68596081,100.60122 11.5352284,104.769511 C13.4194758,109.019762 15.9939921,113.000713 19.2471172,116.335346 C19.1794895,117.115144 18.853011,117.759121 18.0391467,118.206393 C16.9524397,118.803535 15.5042743,118.967457 14.1237366,119.030684 C15.4856184,119.339793 16.891808,119.63251 18.4425809,119.304667 C19.2051414,119.140745 20.0376616,118.691132 20.5950071,117.955827 C20.6323189,117.906651 20.6463109,117.845765 20.6812907,117.796589 C22.0501685,119.044734 23.5612976,120.103199 25.1260624,121.070336 C24.9278433,121.58786 24.6526686,122.077283 24.2119226,122.512846 C23.1415395,123.590044 21.3552356,124.194212 19.5642678,124.493954 C21.3249198,124.941226 23.2697989,125.259702 25.3592614,124.550156 C26.4016606,124.222313 27.3414523,123.547893 28.1250008,122.714235 C30.1794834,123.686055 32.3179177,124.472879 34.5146516,124.95996 C39.264914,126.044184 44.1411038,126.020766 48.8750422,125.390839 C54.4718167,129.048631 59.4156341,131.13746 61.9108628,131.13746 C65.9825162,131.13746 76.5464281,125.589887 85.8557296,116.707682 C85.7204743,116.946539 85.5992108,117.178371 85.4616234,117.421911 L91.489816,117.421911 C91.7206829,118.384365 91.9025781,119.33511 91.9375579,120.236678 C91.9841977,121.690896 91.7486668,123.011635 90.6736197,124.072442 C89.6032366,125.149641 87.8169327,125.753808 86.0259649,126.053551 C87.7866168,126.500822 89.731496,126.819298 91.8209584,126.109752 C93.9570607,125.435332 95.659413,123.353529 96.4756092,121.323244 C97.3501052,119.262516 97.7278875,117.187738 97.9937343,115.171503 C98.0240502,114.939671 98.0310461,114.700814 98.056698,114.468982 C99.1970408,114.494741 100.346712,114.316769 101.48239,113.958483 C101.913808,114.279301 102.333567,114.623536 102.788304,114.913912 C103.254702,115.220679 103.739756,115.497004 104.231806,115.756937 C104.129198,115.970035 104.040583,116.190158 103.933311,116.400914 C103.182411,117.876208 102.324239,119.304667 101.281839,120.592622 C100.237108,121.812666 99.0128137,123.18024 97.2964695,123.320745 C99.0454615,123.386313 100.498291,122.119434 101.710925,120.990717 C102.939884,119.789406 103.991611,118.421832 104.938399,116.995715 C105.089978,116.768567 105.218237,116.534393 105.362821,116.304903 C108.100576,117.496847 111.12983,117.962852 114.012169,117.468746 C111.115839,117.660768 108.284803,116.92078 105.822223,115.550864 C107.293708,113.085016 108.50401,110.459929 109.469454,107.734149 L109.469454,107.734149 Z M60.4930132,90.6746006 C63.3473682,90.6746006 65.6676977,88.567038 65.6676977,85.9817613 L63.3357083,85.9817613 C63.3357083,87.2767414 62.0601101,88.3328644 60.4930132,88.3328644 C58.9259164,88.3328644 57.6503182,87.2767414 57.6503182,85.9817613 L55.3183288,85.9817613 C55.3183288,88.567038 57.6386582,90.6746006 60.4930132,90.6746006 L60.4930132,90.6746006 Z M60.9430872,99.2125707 L57.5127308,97.5171537 C52.0908555,98.8870693 46.6526563,99.4678199 46.6526563,99.4678199 C46.6526563,99.4678199 53.8515075,108.867549 60.9430872,108.867549 C68.0346669,108.867549 75.2335181,99.4678199 75.2335181,99.4678199 C75.2335181,99.4678199 69.7976508,98.8870693 64.3781075,97.5171537 L60.9430872,99.2125707 Z" id="avatar-icon-03"></path>
                </g>
            </g>
        </g>
    </g>
</svg>