<?xml version="1.0" encoding="UTF-8" standalone="no"?>
<svg width="104px" height="141px" viewBox="0 0 104 141" version="1.1" xmlns="http://www.w3.org/2000/svg" xmlns:xlink="http://www.w3.org/1999/xlink" xmlns:sketch="http://www.bohemiancoding.com/sketch/ns">
    <!-- Generator: Sketch 3.2.2 (9983) - http://www.bohemiancoding.com/sketch -->
    <title>avatar-icon-46</title>
    <desc>Created with Sketch.</desc>
    <defs></defs>
    <g id="Page-1" stroke="none" stroke-width="1" fill="none" fill-rule="evenodd" sketch:type="MSPage">
        <g id="item-collection-preview" sketch:type="MSArtboardGroup" transform="translate(-414.000000, -2623.000000)" fill="#2F2F2F">
            <g id="avatars" sketch:type="MSLayerGroup" transform="translate(183.000000, 80.000000)">
                <g id="avatar" transform="translate(230.000000, 2543.000000)" sketch:type="MSShapeGroup">
                    <path d="M53.6495217,92.9891203 C49.4976998,92.9891203 45.5552134,92.1276149 43.6014148,90.7944994 L40.9847203,94.6560982 C43.7386459,96.5378689 48.4742815,97.6585263 53.6495217,97.6585263 C59.2341293,97.6585263 64.1651447,96.3907826 66.842314,94.2708722 L63.9604611,90.6053885 C62.4625488,91.7914176 58.6945087,92.9891203 53.6495217,92.9891203 M65.7165538,66.7260459 C62.2485614,67.0552391 59.2224995,68.824944 57.6129417,71.4631584 L59.5365029,72.6468528 C60.4692091,71.1106182 62.0555075,69.9619443 63.9604611,69.3712645 C63.7046065,69.9292585 63.5743533,70.5502895 63.6394799,71.2063411 C63.8302078,73.148814 65.5583892,74.5659787 67.4912542,74.3698637 C69.4287711,74.1807527 70.8406232,72.4460684 70.6452433,70.5035954 C70.61268,70.1673982 70.517316,69.8475439 70.3963666,69.5510366 C72.1338518,70.1603941 73.7387577,71.2110105 75.0645496,72.6748693 L76.7322562,71.1549776 C73.8434255,67.951765 69.8358125,66.3431547 65.7165538,66.7260459 M78.8953904,59.2106369 C71.7314623,55.0898861 59.4434649,59.7406145 58.0641761,60.2822656 L59.769098,64.6294826 C62.9347168,63.3780818 72.1245479,60.695508 76.5810694,63.2636814 C77.9580322,64.052811 78.7325738,65.2808648 79.0163398,67.1229455 L83.6147443,66.4061916 C83.1146649,63.1889709 81.4841735,60.7001774 78.8953904,59.2106369 M92.4324233,82.1911188 C92.0812048,82.1911188 91.7090526,82.1397553 91.2903815,82.0346937 L86.9455057,80.939718 L86.9524835,86.5126541 L86.6291764,86.4776335 L86.9013126,90.6334049 C86.9152683,90.8411935 88.1340665,111.573356 76.6554999,123.877241 C70.9592467,129.98249 62.9416947,133.078306 52.8238092,133.078306 C42.7105757,133.078306 34.725587,129.989494 29.0851566,123.893584 C17.7112578,111.603708 19.0928725,90.876214 19.1068282,90.6684255 L19.1324137,80.8626728 L14.7503226,82.0160161 C14.3037401,82.1350859 13.9153063,82.1911188 13.5687397,82.1911188 C10.4845291,82.1911188 7.97715424,79.2120377 7.97715424,75.5488887 C7.97715424,71.8880743 10.4845291,68.9089933 13.5687397,68.9089933 C13.9176323,68.9089933 14.3107179,68.9673609 14.7689302,69.0911001 L19.1463694,70.2561169 L19.1812587,47.7449103 C19.1812587,43.1058554 20.7559273,38.8380183 23.3749477,35.4153437 C23.8238562,35.7001774 24.256483,35.9873459 24.7356289,36.269845 C39.6031056,45.0296507 63.9860465,36.9258965 77.9603582,30.9070321 C83.34726,34.5608424 86.8943347,40.7454707 86.8943347,47.7495798 L86.929224,70.1814064 L91.269448,69.0747572 C91.7067267,68.9626914 92.0858567,68.9089933 92.4324233,68.9089933 C95.514308,68.9089933 98.0216828,71.8880743 98.0216828,75.5488887 C98.0216828,79.2120377 95.514308,82.1911188 92.4324233,82.1911188 M104.999535,75.5488887 C104.999535,68.5611225 100.138298,62.7827325 93.8931203,61.9959376 L93.8721868,47.7449103 C93.8721868,39.7929118 90.4483874,32.6463859 85.0265964,27.6524561 C87.3455692,26.5107863 88.6992725,25.7636814 88.6992725,25.7636814 C87.8898416,20.3378315 83.4658834,8.83708442 64.858278,3.58400261 C46.9368281,-1.47529884 21.2467029,21.6779511 18.3392645,0.0819480762 C18.3392645,0.0819480762 2.05760977,16.450551 17.8229035,31.1871965 C14.3130439,35.7865614 12.2034066,41.513588 12.2034066,47.7402409 L12.1801471,61.9865988 C5.90240624,62.7383732 0.999302215,68.5331061 0.999302215,75.5488887 C0.999302215,82.5506631 5.87914673,88.3360572 12.140606,89.1088439 L12.13828,90.2808648 C11.996397,92.4474692 10.8915704,114.491735 23.9448056,128.630697 C30.9598729,136.230155 40.6753689,140.082415 52.8238092,140.082415 C64.9675977,140.082415 74.7086792,136.230155 81.7795692,128.633031 C92.0439895,117.60156 93.7279778,101.753595 93.9140539,94.3012234 L93.9419653,94.3035581 L93.9326615,89.099505 C100.159231,88.2893631 104.999535,82.5226466 104.999535,75.5488887 M46.4623341,64.7508872 L46.4623341,77.5217127 C46.4623341,82.9965913 50.8979221,87.44887 56.3499505,87.44887 L56.3499505,82.779464 C53.4634457,82.779464 51.1142355,80.4214139 51.1142355,77.5217127 L51.1142355,61.9585824 L48.2649459,59.6822469 C43.8177282,60.7141857 31.3622623,62.086991 27.2011366,56.1381677 L23.3935553,58.8230762 C28.6781153,66.3735058 40.8847044,65.5797068 46.4623341,64.7508872 M53.7099964,113.999113 C50.3606275,113.999113 48.0695661,113.245004 47.1229041,112.595956 L44.5038837,116.45522 C46.5297867,117.842034 49.9698678,118.668519 53.7099964,118.668519 C57.7431949,118.668519 61.3367887,117.732303 63.3208246,116.161048 L60.4412977,112.493229 C59.5248731,113.219322 57.0291281,113.999113 53.7099964,113.999113 M43.6642155,72.6468528 L45.5877767,71.4631584 C43.9782188,68.824944 40.952157,67.0552391 37.4841645,66.7260459 C33.3625799,66.3431547 29.3549669,67.951765 26.4661362,71.1549776 L28.1361688,72.6748693 C29.4596347,71.2110105 31.0668666,70.1603941 32.8020258,69.5510366 C32.6810764,69.8475439 32.5857124,70.1673982 32.5531491,70.5035954 C32.3577692,72.4460684 33.7719472,74.1807527 35.7071382,74.3698637 C37.6423292,74.5659787 39.3681846,73.148814 39.5589125,71.2063411 C39.6263651,70.5502895 39.4961119,69.9292585 39.2379313,69.3712645 C41.1452109,69.9619443 42.7315093,71.1106182 43.6642155,72.6468528" id="avatar-icon-46"></path>
                </g>
            </g>
        </g>
    </g>
</svg>